{
.appVersion = "1147";
DisplayStrings = (
"/Cacute/Ccaron Ç/Ccircumflex/Cdotaccent/Gbreve/Gcircumflex/Gcommaaccent/Gdotaccent/IJ Í/Ibreve ÎÏ/Idotaccent/Idotbelow Ì/Ihookabove/Imacron/Iogonek/Itilde/Nacute/Ncaron/Ncommaaccent ÑÚ/Ubreve ÛÜ/Udotbelow Ù/Uhookabove/Uhorn/Uhornacute/Uhorndotbelow/Uhorngrave/Uhornhookabove/Uhorntilde/Uhungarumlaut/Umacron/Uogonek/Uring/Utilde/aeacute"
);
classes = (
{
code = "";
name = DevaIMatras;
}
);
copyright = "Copyright 2011 The Lemonada Project Authors (https://github.com/Gue3bara/Lemonada)";
customParameters = (
{
name = licenseURL;
value = "http://scripts.sil.org/OFL";
},
{
name = license;
value = "This Font Software is licensed under the SIL Open Font License, Version 1.1. This license is available with a FAQ at: http://scripts.sil.org/OFL";
},
{
name = vendorID;
value = "1KTF";
},
{
name = fsType;
value = (
);
},
{
name = "Use Typo Metrics";
value = 1;
},
{
name = "Disable Last Change";
value = 1;
},
{
name = "Use Line Breaks";
value = 1;
}
);
date = "2018-05-02 17:45:14 +0000";
designer = "Mohamed Gaber (Arabic), Eduardo Tunni (Latin)";
designerURL = "http://gaberism.net";
familyName = Lemonada;
featurePrefixes = (
{
automatic = 1;
code = "languagesystem DFLT dflt;
languagesystem arab dflt;
languagesystem latn dflt;
languagesystem latn CAT;
languagesystem latn ROM;
languagesystem latn MOL;
languagesystem latn KAZ;
languagesystem latn TAT;
languagesystem latn TRK;
languagesystem latn CRT;
languagesystem latn AZE;
languagesystem arab URD;
";
name = Languagesystems;
}
);
features = (
{
automatic = 1;
code = "feature ccmp;
feature locl;
feature sups;
feature numr;
feature dnom;
feature frac;
feature ordn;
feature init;
feature medi;
feature fina;
feature rlig;
";
name = aalt;
},
{
automatic = 1;
code = "lookup ccmp_Other_1 {
	@CombiningTopAccents = [acutecomb brevecomb caroncomb circumflexcomb commaturnedabovecomb dieresiscomb dotaccentcomb gravecomb hookabovecomb hungarumlautcomb macroncomb ringcomb tildecomb];

glyphs = (
{
color = 10;
glyphname = A;
layers = (
{
anchors = (
{
name = bottom;
position = "{353, 0}";
},
{
name = ogonek;
position = "{727, 16}";
},
{
name = top;
position = "{478, 710}";
}
);
hints = (
{
horizontal = 1;
origin = "{1, 3}";
target = "{1, 2}";
type = Stem;
},
{
horizontal = 1;
origin = "{0, 8}";
target = "{0, 30}";
type = Stem;
},
{
origin = "{0, 37}";
target = "{0, 5}";
type = Stem;
},
{
origin = "{0, 12}";
target = "{0, 21}";
type = Stem;
},
{
horizontal = 1;
origin = "{0, 40}";
target = up;
type = BottomGhost;
}
);
layerId = "E79706D4-AD71-4087-AB75-377D41BAFC4F";
paths = (
{
closed = 1;
nodes = (
"161 -29 OFFCURVE",
"216 -11 OFFCURVE",
"253 16 CURVE",
"238 44 OFFCURVE",
"232 71 OFFCURVE",
"232 110 CURVE SMOOTH",
"232 197 OFFCURVE",
"315 382 OFFCURVE",
"447 593 CURVE",
"459 593 LINE",
"455 516 OFFCURVE",
"453 408 OFFCURVE",
"453 292 CURVE SMOOTH",
"452 65 OFFCURVE",
"496 -29 OFFCURVE",
"602 -29 CURVE SMOOTH",
"647 -29 OFFCURVE",
"688 -14 OFFCURVE",
"727 16 CURVE",
"648 125 OFFCURVE",
"664 333 OFFCURVE",
"664 578 CURVE SMOOTH",
"664 680 OFFCURVE",
"632 725 OFFCURVE",
"559 725 CURVE SMOOTH",
"533 725 OFFCURVE",
"507 717 OFFCURVE",
"475 700 CURVE",
"459 716 OFFCURVE",
"430 725 OFFCURVE",
"393 725 CURVE SMOOTH",
"322 725 OFFCURVE",
"266 708 OFFCURVE",
"191 662 CURVE",
"224 577 LINE",
"68 271 OFFCURVE",
"20 151 OFFCURVE",
"20 69 CURVE SMOOTH",
"20 5 OFFCURVE",
"52 -29 OFFCURVE",
"113 -29 CURVE SMOOTH"
);
},
{
closed = 1;
nodes = (
"526 161 LINE",
"546 280 LINE",
"200 280 LINE",
"178 161 LINE"
);
}
);
width = 767;
},
{
anchors = (
{
name = bottom;
position = "{313, 0}";
},
{
name = ogonek;
position = "{619, -1}";
},
{
name = top;
position = "{438, 710}";
}
);
hints = (
{
horizontal = 1;
origin = "{1, 3}";
target = "{1, 2}";
type = Stem;
},
{
horizontal = 1;
origin = "{0, 8}";
target = "{0, 30}";
type = Stem;
},
{
origin = "{0, 37}";
target = "{0, 5}";
type = Stem;
},
{
origin = "{0, 12}";
target = "{0, 21}";
type = Stem;
},
{
horizontal = 1;
origin = "{0, 40}";
target = up;
type = BottomGhost;
}
);
layerId = "1D04CB99-59CD-4CDD-8259-0FDF24D9F847";
paths = (
{
closed = 1;
nodes = (
"127 -23 OFFCURVE",
"146 -17 OFFCURVE",
"166 -1 CURVE",
"157 20 OFFCURVE",
"153 47 OFFCURVE",
"153 83 CURVE SMOOTH",
"153 181 OFFCURVE",
"234 355 OFFCURVE",
"431 644 CURVE",
"443 644 LINE",
"443 594 OFFCURVE",
"443 512 OFFCURVE",
"443 378 CURVE SMOOTH",
"443 62 OFFCURVE",
"465 -23 OFFCURVE",
"554 -23 CURVE SMOOTH",
"578 -23 OFFCURVE",
"600 -16 OFFCURVE",
"619 -1 CURVE",
"527 88 OFFCURVE",
"546 498 OFFCURVE",
"546 665 CURVE SMOOTH",
"546 713 OFFCURVE",
"530 734 OFFCURVE",
"498 734 CURVE SMOOTH",
"481 734 OFFCURVE",
"467 728 OFFCURVE",
"454 715 CURVE",
"449 728 OFFCURVE",
"436 734 OFFCURVE",
"411 734 CURVE SMOOTH",
"379 734 OFFCURVE",
"355 726 OFFCURVE",
"325 707 CURVE",
"355 676 LINE",
"158 391 OFFCURVE",
"50 165 OFFCURVE",
"50 57 CURVE SMOOTH",
"50 5 OFFCURVE",
"67 -23 OFFCURVE",
"98 -23 CURVE SMOOTH"
);
},
{
closed = 1;
nodes = (
"484 194 LINE",
"495 253 LINE",
"149 253 LINE",
"136 194 LINE"
);
}
);
width = 674;
},
{
anchors = (
{
name = bottom;
position = "{321, 0}";
},
{
name = ogonek;
position = "{641, 2}";
},
{
name = top;
position = "{446, 710}";
}
);
hints = (
{
horizontal = 1;
origin = "{1, 3}";
target = "{1, 2}";
type = Stem;
},
{
horizontal = 1;
origin = "{0, 8}";
target = "{0, 30}";
type = Stem;
},
{
origin = "{0, 37}";
target = "{0, 5}";
type = Stem;
},
{
origin = "{0, 12}";
target = "{0, 21}";
type = Stem;
},
{
horizontal = 1;
origin = "{0, 40}";
target = up;
type = BottomGhost;
}
);
layerId = "CE369AAB-0FC9-4F25-BC24-38D80C2A37D0";
paths = (
{
closed = 1;
nodes = (
"134 -24 OFFCURVE",
"160 -16 OFFCURVE",
"183 2 CURVE",
"173 25 OFFCURVE",
"169 52 OFFCURVE",
"169 88 CURVE SMOOTH",
"169 184 OFFCURVE",
"250 360 OFFCURVE",
"434 634 CURVE",
"446 634 LINE",
"445 578 OFFCURVE",
"445 491 OFFCURVE",
"445 361 CURVE SMOOTH",
"445 63 OFFCURVE",
"471 -24 OFFCURVE",
"564 -24 CURVE SMOOTH",
"592 -24 OFFCURVE",
"618 -16 OFFCURVE",
"641 2 CURVE",
"551 95 OFFCURVE",
"570 465 OFFCURVE",
"570 648 CURVE SMOOTH",
"570 706 OFFCURVE",
"550 732 OFFCURVE",
"510 732 CURVE SMOOTH",
"491 732 OFFCURVE",
"475 726 OFFCURVE",
"458 712 CURVE",
"451 726 OFFCURVE",
"435 732 OFFCURVE",
"407 732 CURVE SMOOTH",
"368 732 OFFCURVE",
"337 722 OFFCURVE",
"298 698 CURVE",
"329 656 LINE",
"140 367 OFFCURVE",
"44 162 OFFCURVE",
"44 59 CURVE SMOOTH",
"44 5 OFFCURVE",
"64 -24 OFFCURVE",
"101 -24 CURVE SMOOTH"
);
},
{
closed = 1;
nodes = (
"492 187 LINE",
"505 258 LINE",
"159 258 LINE",
"144 187 LINE"
);
}
);
width = 693;
}
);
leftKerningGroup = A;
rightKerningGroup = A;
unicode = 0041;
},
{
color = 10;
glyphname = AE;
layers = (
{
anchors = (
{
name = bottom;
position = "{468, 0}";
},
{
name = top;
position = "{581, 710}";
}
);
hints = (
{
horizontal = 1;
origin = "{2, 13}";
target = "{2, 9}";
type = Stem;
},
{
horizontal = 1;
origin = "{1, 3}";
target = "{1, 2}";
type = Stem;
},
{
horizontal = 1;
origin = "{0, 13}";
target = "{0, 8}";
type = Stem;
},
{
horizontal = 1;
origin = "{4, 13}";
target = "{4, 6}";
type = Stem;
},
{
origin = "{0, 20}";
target = "{0, 5}";
type = Stem;
},
{
origin = "{2, 9}";
target = "{3, 5}";
type = Stem;
}
);
layerId = "E79706D4-AD71-4087-AB75-377D41BAFC4F";
paths = (
{
closed = 1;
nodes = (
"161 -29 OFFCURVE",
"216 -11 OFFCURVE",
"253 16 CURVE",
"238 44 OFFCURVE",
"232 71 OFFCURVE",
"232 110 CURVE SMOOTH",
"232 197 OFFCURVE",
"319 382 OFFCURVE",
"457 593 CURVE",
"469 593 LINE",
"509 680 LINE",
"489 709 OFFCURVE",
"451 726 OFFCURVE",
"403 726 CURVE SMOOTH",
"332 726 OFFCURVE",
"276 709 OFFCURVE",
"201 662 CURVE",
"234 577 LINE",
"70 271 OFFCURVE",
"20 151 OFFCURVE",
"20 69 CURVE SMOOTH",
"20 5 OFFCURVE",
"52 -29 OFFCURVE",
"113 -29 CURVE SMOOTH"
);
},
{
closed = 1;
nodes = (
"488 161 LINE",
"508 280 LINE",
"182 280 LINE",
"160 161 LINE"
);
},
{
closed = 1;
nodes = (
"881 -25 OFFCURVE",
"935 24 OFFCURVE",
"935 111 CURVE SMOOTH",
"935 137 OFFCURVE",
"932 156 OFFCURVE",
"924 175 CURVE",
"876 156 OFFCURVE",
"825 143 OFFCURVE",
"776 136 CURVE",
"567 136 LINE",
"567 29 LINE",
"647 -10 OFFCURVE",
"709 -25 OFFCURVE",
"785 -25 CURVE SMOOTH"
);
},
{
closed = 1;
nodes = (
"569 -26 OFFCURVE",
"609 -12 OFFCURVE",
"644 19 CURVE",
"622 50 OFFCURVE",
"614 83 OFFCURVE",
"614 144 CURVE SMOOTH",
"614 221 OFFCURVE",
"691 564 OFFCURVE",
"691 632 CURVE SMOOTH",
"691 695 OFFCURVE",
"665 726 OFFCURVE",
"614 726 CURVE SMOOTH",
"553 726 OFFCURVE",
"482 701 OFFCURVE",
"408 653 CURVE",
"469 593 LINE",
"412 277 OFFCURVE",
"398 174 OFFCURVE",
"398 109 CURVE SMOOTH",
"398 14 OFFCURVE",
"434 -26 OFFCURVE",
"520 -26 CURVE SMOOTH"
);
},
{
closed = 1;
nodes = (
"763 249 OFFCURVE",
"804 284 OFFCURVE",
"804 341 CURVE SMOOTH",
"804 360 OFFCURVE",
"802 377 OFFCURVE",
"799 389 CURVE",
"709 366 LINE",
"681 366 OFFCURVE",
"657 369 OFFCURVE",
"630 376 CURVE",
"610 262 LINE",
"650 252 OFFCURVE",
"672 249 OFFCURVE",
"695 249 CURVE SMOOTH"
);
},
{
closed = 1;
nodes = (
"905 493 OFFCURVE",
"977 555 OFFCURVE",
"977 656 CURVE SMOOTH",
"977 676 OFFCURVE",
"974 698 OFFCURVE",
"969 721 CURVE",
"845 690 OFFCURVE",
"753 668 OFFCURVE",
"622 668 CURVE",
"610 533 LINE",
"649 513 OFFCURVE",
"736 493 OFFCURVE",
"786 493 CURVE SMOOTH"
);
}
);
width = 967;
},
{
anchors = (
{
name = bottom;
position = "{492, 0}";
},
{
name = top;
position = "{605, 710}";
}
);
hints = (
{
horizontal = 1;
origin = "{2, 13}";
target = "{2, 9}";
type = Stem;
},
{
horizontal = 1;
origin = "{1, 3}";
target = "{1, 2}";
type = Stem;
},
{
horizontal = 1;
origin = "{0, 13}";
target = "{0, 8}";
type = Stem;
},
{
horizontal = 1;
origin = "{4, 13}";
target = "{4, 6}";
type = Stem;
},
{
origin = "{0, 20}";
target = "{0, 5}";
type = Stem;
},
{
origin = "{2, 9}";
target = "{3, 5}";
type = Stem;
}
);
layerId = "1D04CB99-59CD-4CDD-8259-0FDF24D9F847";
paths = (
{
closed = 1;
nodes = (
"115 -29 OFFCURVE",
"141 -28 OFFCURVE",
"166 -7 CURVE",
"150 14 OFFCURVE",
"150 40 OFFCURVE",
"150 68 CURVE SMOOTH",
"150 169 OFFCURVE",
"240 348 OFFCURVE",
"456 644 CURVE",
"468 644 LINE",
"490 682 LINE",
"482 712 OFFCURVE",
"468 726 OFFCURVE",
"436 726 CURVE SMOOTH",
"404 726 OFFCURVE",
"380 720 OFFCURVE",
"350 707 CURVE",
"380 676 LINE",
"166 384 OFFCURVE",
"50 153 OFFCURVE",
"50 42 CURVE SMOOTH",
"50 -1 OFFCURVE",
"63 -29 OFFCURVE",
"94 -29 CURVE SMOOTH"
);
},
{
closed = 1;
nodes = (
"468 194 LINE",
"479 253 LINE",
"153 253 LINE",
"140 194 LINE"
);
},
{
closed = 1;
nodes = (
"760 -25 OFFCURVE",
"805 -5 OFFCURVE",
"805 44 CURVE SMOOTH",
"805 55 OFFCURVE",
"803 62 OFFCURVE",
"797 82 CURVE",
"767 71 OFFCURVE",
"738 64 OFFCURVE",
"698 60 CURVE",
"470 60 LINE",
"429 34 LINE",
"478 -1 OFFCURVE",
"570 -25 OFFCURVE",
"653 -25 CURVE SMOOTH"
);
},
{
closed = 1;
nodes = (
"473 -26 OFFCURVE",
"503 -15 OFFCURVE",
"539 10 CURVE",
"504 25 OFFCURVE",
"487 47 OFFCURVE",
"487 74 CURVE SMOOTH",
"487 169 OFFCURVE",
"574 654 OFFCURVE",
"574 683 CURVE SMOOTH",
"574 712 OFFCURVE",
"562 726 OFFCURVE",
"538 726 CURVE SMOOTH",
"511 726 OFFCURVE",
"476 713 OFFCURVE",
"441 692 CURVE",
"468 644 LINE",
"405 256 OFFCURVE",
"386 123 OFFCURVE",
"386 42 CURVE SMOOTH",
"386 -6 OFFCURVE",
"404 -26 OFFCURVE",
"444 -26 CURVE SMOOTH"
);
},
{
closed = 1;
nodes = (
"679 288 OFFCURVE",
"709 313 OFFCURVE",
"709 358 CURVE SMOOTH",
"709 363 OFFCURVE",
"709 370 OFFCURVE",
"709 377 CURVE",
"640 360 LINE",
"589 360 OFFCURVE",
"544 362 OFFCURVE",
"501 367 CURVE",
"488 309 LINE",
"543 294 OFFCURVE",
"582 288 OFFCURVE",
"623 288 CURVE SMOOTH"
);
},
{
closed = 1;
nodes = (
"801 604 OFFCURVE",
"858 621 OFFCURVE",
"858 683 CURVE SMOOTH",
"858 693 OFFCURVE",
"858 704 OFFCURVE",
"853 720 CURVE",
"738 698 OFFCURVE",
"670 682 OFFCURVE",
"536 682 CURVE",
"509 640 LINE",
"593 612 OFFCURVE",
"665 604 OFFCURVE",
"750 604 CURVE SMOOTH"
);
}
);
width = 834;
},
{
anchors = (
{
name = bottom;
position = "{488, 0}";
},
{
name = top;
position = "{601, 710}";
}
);
hints = (
{
horizontal = 1;
origin = "{2, 13}";
target = "{2, 9}";
type = Stem;
},
{
horizontal = 1;
origin = "{1, 3}";
target = "{1, 2}";
type = Stem;
},
{
horizontal = 1;
origin = "{0, 13}";
target = "{0, 8}";
type = Stem;
},
{
horizontal = 1;
origin = "{4, 13}";
target = "{4, 6}";
type = Stem;
},
{
origin = "{0, 20}";
target = "{0, 5}";
type = Stem;
},
{
origin = "{2, 9}";
target = "{3, 5}";
type = Stem;
}
);
layerId = "CE369AAB-0FC9-4F25-BC24-38D80C2A37D0";
paths = (
{
closed = 1;
nodes = (
"125 -29 OFFCURVE",
"156 -25 OFFCURVE",
"184 -2 CURVE",
"168 20 OFFCURVE",
"167 46 OFFCURVE",
"167 76 CURVE SMOOTH",
"167 175 OFFCURVE",
"256 355 OFFCURVE",
"457 634 CURVE",
"469 634 LINE",
"494 682 LINE",
"484 711 OFFCURVE",
"465 726 OFFCURVE",
"430 726 CURVE SMOOTH",
"390 726 OFFCURVE",
"360 718 OFFCURVE",
"321 698 CURVE",
"351 656 LINE",
"147 361 OFFCURVE",
"44 153 OFFCURVE",
"44 47 CURVE SMOOTH",
"44 0 OFFCURVE",
"61 -29 OFFCURVE",
"98 -29 CURVE SMOOTH"
);
},
{
closed = 1;
nodes = (
"472 187 LINE",
"485 258 LINE",
"159 258 LINE",
"144 187 LINE"
);
},
{
closed = 1;
nodes = (
"785 -25 OFFCURVE",
"831 1 OFFCURVE",
"831 57 CURVE SMOOTH",
"831 71 OFFCURVE",
"829 81 OFFCURVE",
"823 101 CURVE",
"789 88 OFFCURVE",
"756 80 OFFCURVE",
"714 75 CURVE",
"490 75 LINE",
"457 33 LINE",
"512 -3 OFFCURVE",
"598 -25 OFFCURVE",
"680 -25 CURVE SMOOTH"
);
},
{
closed = 1;
nodes = (
"493 -26 OFFCURVE",
"525 -14 OFFCURVE",
"560 12 CURVE",
"528 30 OFFCURVE",
"513 54 OFFCURVE",
"513 88 CURVE SMOOTH",
"513 179 OFFCURVE",
"598 636 OFFCURVE",
"598 673 CURVE SMOOTH",
"598 709 OFFCURVE",
"583 726 OFFCURVE",
"554 726 CURVE SMOOTH",
"520 726 OFFCURVE",
"478 711 OFFCURVE",
"435 684 CURVE",
"469 634 LINE",
"407 260 OFFCURVE",
"389 133 OFFCURVE",
"389 55 CURVE SMOOTH",
"389 -2 OFFCURVE",
"410 -26 OFFCURVE",
"460 -26 CURVE SMOOTH"
);
},
{
closed = 1;
nodes = (
"696 280 OFFCURVE",
"728 307 OFFCURVE",
"728 355 CURVE SMOOTH",
"728 362 OFFCURVE",
"728 371 OFFCURVE",
"727 379 CURVE",
"654 361 LINE",
"608 361 OFFCURVE",
"567 363 OFFCURVE",
"527 369 CURVE",
"513 300 LINE",
"565 286 OFFCURVE",
"600 280 OFFCURVE",
"638 280 CURVE SMOOTH"
);
},
{
closed = 1;
nodes = (
"822 582 OFFCURVE",
"882 608 OFFCURVE",
"882 678 CURVE SMOOTH",
"882 690 OFFCURVE",
"882 703 OFFCURVE",
"877 720 CURVE",
"760 696 OFFCURVE",
"687 679 OFFCURVE",
"554 679 CURVE",
"530 619 LINE",
"605 592 OFFCURVE",
"680 582 OFFCURVE",
"758 582 CURVE SMOOTH"
);
}
);
width = 861;
}
);
leftKerningGroup = A;
leftMetricsKey = A;
rightKerningGroup = E;
rightMetricsKey = E;
unicode = 00C6;
},
{
color = 10;
glyphname = B;
layers = (
{
hints = (
{
horizontal = 1;
origin = "{0, 27}";
target = "{1, 24}";
type = Stem;
},
{
horizontal = 1;
origin = "{1, 18}";
target = "{1, 14}";
type = Stem;
},
{
horizontal = 1;
origin = "{0, 17}";
target = "{1, 8}";
type = Stem;
},
{
origin = "{0, 24}";
target = "{1, 2}";
type = Stem;
},
{
origin = "{1, 21}";
target = "{0, 2}";
type = Stem;
},
{
origin = "{1, 11}";
target = "{0, 8}";
type = Stem;
}
);
layerId = "E79706D4-AD71-4087-AB75-377D41BAFC4F";
paths = (
{
closed = 1;
nodes = (
"583 -24 OFFCURVE",
"722 59 OFFCURVE",
"722 188 CURVE SMOOTH",
"722 281 OFFCURVE",
"659 348 OFFCURVE",
"552 368 CURVE",
"661 410 OFFCURVE",
"719 481 OFFCURVE",
"719 574 CURVE SMOOTH",
"719 668 OFFCURVE",
"654 725 OFFCURVE",
"547 725 CURVE SMOOTH",
"481 725 OFFCURVE",
"413 705 OFFCURVE",
"345 666 CURVE",
"337 706 OFFCURVE",
"312 726 OFFCURVE",
"271 726 CURVE SMOOTH",
"210 726 OFFCURVE",
"139 701 OFFCURVE",
"65 653 CURVE",
"118 546 LINE",
"72 283 OFFCURVE",
"60 197 OFFCURVE",
"60 140 CURVE SMOOTH",
"60 24 OFFCURVE",
"151 -24 OFFCURVE",
"368 -24 CURVE SMOOTH"
);
},
{
closed = 1;
nodes = (
"341 89 OFFCURVE",
"299 97 OFFCURVE",
"268 111 CURVE",
"280 242 OFFCURVE",
"308 441 OFFCURVE",
"335 579 CURVE",
"361 589 OFFCURVE",
"387 593 OFFCURVE",
"416 593 CURVE SMOOTH",
"472 593 OFFCURVE",
"501 568 OFFCURVE",
"501 518 CURVE SMOOTH",
"501 438 OFFCURVE",
"419 384 OFFCURVE",
"289 378 CURVE",
"276 282 LINE",
"311 295 OFFCURVE",
"349 302 OFFCURVE",
"382 302 CURVE SMOOTH",
"460 302 OFFCURVE",
"504 265 OFFCURVE",
"504 201 CURVE SMOOTH",
"504 133 OFFCURVE",
"454 89 OFFCURVE",
"378 89 CURVE SMOOTH"
);
}
);
width = 762;
},
{
hints = (
{
horizontal = 1;
origin = "{0, 27}";
target = "{1, 24}";
type = Stem;
},
{
horizontal = 1;
origin = "{1, 18}";
target = "{1, 14}";
type = Stem;
},
{
horizontal = 1;
origin = "{0, 17}";
target = "{1, 8}";
type = Stem;
},
{
origin = "{0, 24}";
target = "{1, 2}";
type = Stem;
},
{
origin = "{1, 21}";
target = "{0, 2}";
type = Stem;
},
{
origin = "{1, 11}";
target = "{0, 8}";
type = Stem;
}
);
layerId = "1D04CB99-59CD-4CDD-8259-0FDF24D9F847";
paths = (
{
closed = 1;
nodes = (
"558 -26 OFFCURVE",
"680 65 OFFCURVE",
"680 190 CURVE SMOOTH",
"680 283 OFFCURVE",
"617 348 OFFCURVE",
"510 368 CURVE",
"616 415 OFFCURVE",
"677 490 OFFCURVE",
"677 574 CURVE SMOOTH",
"677 668 OFFCURVE",
"611 727 OFFCURVE",
"504 727 CURVE SMOOTH",
"441 727 OFFCURVE",
"376 710 OFFCURVE",
"308 677 CURVE",
"309 709 OFFCURVE",
"296 726 OFFCURVE",
"270 726 CURVE SMOOTH",
"246 726 OFFCURVE",
"211 713 OFFCURVE",
"173 692 CURVE",
"199 642 LINE",
"141 315 OFFCURVE",
"120 166 OFFCURVE",
"120 85 CURVE SMOOTH",
"120 18 OFFCURVE",
"223 -26 OFFCURVE",
"391 -26 CURVE SMOOTH"
);
},
{
closed = 1;
nodes = (
"326 38 OFFCURVE",
"265 49 OFFCURVE",
"220 66 CURVE",
"232 244 OFFCURVE",
"257 411 OFFCURVE",
"301 617 CURVE",
"357 642 OFFCURVE",
"410 653 OFFCURVE",
"464 653 CURVE SMOOTH",
"534 653 OFFCURVE",
"569 622 OFFCURVE",
"569 563 CURVE SMOOTH",
"569 450 OFFCURVE",
"442 372 OFFCURVE",
"238 362 CURVE",
"231 300 LINE",
"293 315 OFFCURVE",
"351 322 OFFCURVE",
"400 322 CURVE SMOOTH",
"510 322 OFFCURVE",
"573 271 OFFCURVE",
"573 183 CURVE SMOOTH",
"573 96 OFFCURVE",
"498 38 OFFCURVE",
"381 38 CURVE SMOOTH"
);
}
);
width = 751;
},
{
hints = (
{
horizontal = 1;
origin = "{0, 27}";
target = "{1, 24}";
type = Stem;
},
{
horizontal = 1;
origin = "{1, 18}";
target = "{1, 14}";
type = Stem;
},
{
horizontal = 1;
origin = "{0, 17}";
target = "{1, 8}";
type = Stem;
},
{
origin = "{0, 24}";
target = "{1, 2}";
type = Stem;
},
{
origin = "{1, 21}";
target = "{0, 2}";
type = Stem;
},
{
origin = "{1, 11}";
target = "{0, 8}";
type = Stem;
}
);
layerId = "CE369AAB-0FC9-4F25-BC24-38D80C2A37D0";
paths = (
{
closed = 1;
nodes = (
"563 -26 OFFCURVE",
"688 64 OFFCURVE",
"688 190 CURVE SMOOTH",
"688 283 OFFCURVE",
"625 348 OFFCURVE",
"518 368 CURVE",
"625 414 OFFCURVE",
"685 488 OFFCURVE",
"685 574 CURVE SMOOTH",
"685 668 OFFCURVE",
"619 727 OFFCURVE",
"512 727 CURVE SMOOTH",
"449 727 OFFCURVE",
"383 709 OFFCURVE",
"315 675 CURVE",
"314 708 OFFCURVE",
"299 726 OFFCURVE",
"270 726 CURVE SMOOTH",
"238 726 OFFCURVE",
"196 711 OFFCURVE",
"151 684 CURVE",
"182 623 LINE",
"127 309 OFFCURVE",
"108 172 OFFCURVE",
"108 96 CURVE SMOOTH",
"108 19 OFFCURVE",
"208 -26 OFFCURVE",
"386 -26 CURVE SMOOTH"
);
},
{
closed = 1;
nodes = (
"329 48 OFFCURVE",
"271 59 OFFCURVE",
"229 75 CURVE",
"241 244 OFFCURVE",
"267 417 OFFCURVE",
"307 609 CURVE",
"357 631 OFFCURVE",
"405 641 OFFCURVE",
"454 641 CURVE SMOOTH",
"521 641 OFFCURVE",
"555 611 OFFCURVE",
"555 554 CURVE SMOOTH",
"555 448 OFFCURVE",
"437 374 OFFCURVE",
"248 365 CURVE",
"240 296 LINE",
"296 311 OFFCURVE",
"350 318 OFFCURVE",
"396 318 CURVE SMOOTH",
"500 318 OFFCURVE",
"559 270 OFFCURVE",
"559 187 CURVE SMOOTH",
"559 103 OFFCURVE",
"489 48 OFFCURVE",
"380 48 CURVE SMOOTH"
);
}
);
width = 753;
}
);
leftKerningGroup = H;
leftMetricsKey = H;
rightKerningGroup = B;
rightMetricsKey = "=H+10";
unicode = 0042;
},
{
color = 10;
glyphname = C;
layers = (
{
anchors = (
{
name = bottom;
position = "{315, 0}";
},
{
name = top;
position = "{457, 696}";
}
);
hints = (
{
horizontal = 1;
origin = "{0, 29}";
target = "{0, 8}";
type = Stem;
},
{
origin = "{0, 26}";
target = "{0, 11}";
type = Stem;
},
{
origin = "{0, 5}";
target = "{0, 2}";
type = Stem;
},
{
horizontal = 1;
origin = "{0, 23}";
target = "{0, 14}";
type = Stem;
}
);
layerId = "E79706D4-AD71-4087-AB75-377D41BAFC4F";
paths = (
{
closed = 1;
nodes = (
"526 -25 OFFCURVE",
"664 62 OFFCURVE",
"664 171 CURVE SMOOTH",
"664 234 OFFCURVE",
"616 265 OFFCURVE",
"531 265 CURVE",
"526 162 OFFCURVE",
"457 81 OFFCURVE",
"367 81 CURVE SMOOTH",
"292 81 OFFCURVE",
"248 152 OFFCURVE",
"248 274 CURVE SMOOTH",
"248 422 OFFCURVE",
"324 555 OFFCURVE",
"425 594 CURVE",
"457 527 OFFCURVE",
"515 491 OFFCURVE",
"579 491 CURVE SMOOTH",
"647 491 OFFCURVE",
"696 536 OFFCURVE",
"696 599 CURVE SMOOTH",
"696 677 OFFCURVE",
"615 726 OFFCURVE",
"489 726 CURVE SMOOTH",
"225 726 OFFCURVE",
"30 538 OFFCURVE",
"30 278 CURVE SMOOTH",
"30 87 OFFCURVE",
"151 -25 OFFCURVE",
"355 -25 CURVE SMOOTH"
);
}
);
width = 716;
},
{
anchors = (
{
name = bottom;
position = "{267, 0}";
},
{
name = top;
position = "{439, 696}";
}
);
hints = (
{
horizontal = 1;
origin = "{0, 29}";
target = "{0, 8}";
type = Stem;
},
{
origin = "{0, 26}";
target = "{0, 11}";
type = Stem;
},
{
origin = "{0, 5}";
target = "{0, 2}";
type = Stem;
},
{
horizontal = 1;
origin = "{0, 23}";
target = "{0, 14}";
type = Stem;
}
);
layerId = "1D04CB99-59CD-4CDD-8259-0FDF24D9F847";
paths = (
{
closed = 1;
nodes = (
"457 -25 OFFCURVE",
"571 65 OFFCURVE",
"571 171 CURVE SMOOTH",
"571 218 OFFCURVE",
"543 234 OFFCURVE",
"501 234 CURVE",
"493 122 OFFCURVE",
"424 36 OFFCURVE",
"315 36 CURVE SMOOTH",
"222 36 OFFCURVE",
"166 115 OFFCURVE",
"166 247 CURVE SMOOTH",
"166 440 OFFCURVE",
"266 594 OFFCURVE",
"403 653 CURVE",
"435 590 OFFCURVE",
"485 575 OFFCURVE",
"534 575 CURVE SMOOTH",
"584 575 OFFCURVE",
"623 607 OFFCURVE",
"623 649 CURVE SMOOTH",
"623 698 OFFCURVE",
"570 726 OFFCURVE",
"482 726 CURVE SMOOTH",
"251 726 OFFCURVE",
"60 523 OFFCURVE",
"60 256 CURVE SMOOTH",
"60 78 OFFCURVE",
"159 -25 OFFCURVE",
"322 -25 CURVE SMOOTH"
);
}
);
width = 650;
},
{
anchors = (
{
name = bottom;
position = "{276, 0}";
},
{
name = top;
position = "{442, 696}";
}
);
hints = (
{
horizontal = 1;
origin = "{0, 29}";
target = "{0, 8}";
type = Stem;
},
{
origin = "{0, 26}";
target = "{0, 11}";
type = Stem;
},
{
origin = "{0, 5}";
target = "{0, 2}";
type = Stem;
},
{
horizontal = 1;
origin = "{0, 23}";
target = "{0, 14}";
type = Stem;
}
);
layerId = "CE369AAB-0FC9-4F25-BC24-38D80C2A37D0";
paths = (
{
closed = 1;
nodes = (
"470 -25 OFFCURVE",
"589 64 OFFCURVE",
"589 171 CURVE SMOOTH",
"589 221 OFFCURVE",
"557 240 OFFCURVE",
"507 240 CURVE",
"499 130 OFFCURVE",
"430 45 OFFCURVE",
"325 45 CURVE SMOOTH",
"236 45 OFFCURVE",
"182 122 OFFCURVE",
"182 252 CURVE SMOOTH",
"182 436 OFFCURVE",
"277 586 OFFCURVE",
"407 641 CURVE",
"439 577 OFFCURVE",
"491 558 OFFCURVE",
"543 558 CURVE SMOOTH",
"596 558 OFFCURVE",
"637 593 OFFCURVE",
"637 639 CURVE SMOOTH",
"637 694 OFFCURVE",
"579 726 OFFCURVE",
"483 726 CURVE SMOOTH",
"245 726 OFFCURVE",
"54 526 OFFCURVE",
"54 260 CURVE SMOOTH",
"54 80 OFFCURVE",
"157 -25 OFFCURVE",
"328 -25 CURVE SMOOTH"
);
}
);
width = 662;
}
);
leftKerningGroup = O;
leftMetricsKey = O;
rightKerningGroup = C;
rightMetricsKey = "=O";
unicode = 0043;
},
{
color = 10;
glyphname = D;
layers = (
{
anchors = (
{
name = bottom;
position = "{356, 0}";
},
{
name = center;
position = "{226, 355}";
},
{
name = top;
position = "{481, 710}";
}
);
hints = (
{
horizontal = 1;
origin = "{0, 37}";
target = "{0, 18}";
type = Stem;
},
{
horizontal = 1;
origin = "{0, 27}";
target = "{0, 12}";
type = Stem;
},
{
origin = "{0, 34}";
target = "{0, 21}";
type = Stem;
},
{
origin = "{0, 15}";
target = "{0, 2}";
type = Stem;
}
);
layerId = "E79706D4-AD71-4087-AB75-377D41BAFC4F";
paths = (
{
closed = 1;
nodes = (
"601 -25 OFFCURVE",
"796 158 OFFCURVE",
"796 419 CURVE SMOOTH",
"796 602 OFFCURVE",
"675 726 OFFCURVE",
"494 726 CURVE SMOOTH",
"392 726 OFFCURVE",
"330 701 OFFCURVE",
"235 620 CURVE",
"265 538 LINE",
"319 578 OFFCURVE",
"362 596 OFFCURVE",
"403 596 CURVE SMOOTH",
"513 596 OFFCURVE",
"578 517 OFFCURVE",
"578 384 CURVE SMOOTH",
"578 211 OFFCURVE",
"481 89 OFFCURVE",
"343 89 CURVE SMOOTH",
"319 89 OFFCURVE",
"295 94 OFFCURVE",
"276 103 CURVE",
"276 162 OFFCURVE",
"353 558 OFFCURVE",
"353 632 CURVE SMOOTH",
"353 695 OFFCURVE",
"327 726 OFFCURVE",
"276 726 CURVE SMOOTH",
"215 726 OFFCURVE",
"144 701 OFFCURVE",
"70 653 CURVE",
"123 546 LINE",
"74 286 OFFCURVE",
"60 199 OFFCURVE",
"60 143 CURVE SMOOTH",
"60 38 OFFCURVE",
"158 -25 OFFCURVE",
"323 -25 CURVE SMOOTH"
);
}
);
width = 856;
},
{
anchors = (
{
name = bottom;
position = "{355, 0}";
},
{
name = center;
position = "{225, 355}";
},
{
name = top;
position = "{480, 710}";
}
);
hints = (
{
horizontal = 1;
origin = "{0, 37}";
target = "{0, 18}";
type = Stem;
},
{
horizontal = 1;
origin = "{0, 27}";
target = "{0, 12}";
type = Stem;
},
{
origin = "{0, 34}";
target = "{0, 21}";
type = Stem;
},
{
origin = "{0, 15}";
target = "{0, 2}";
type = Stem;
}
);
layerId = "1D04CB99-59CD-4CDD-8259-0FDF24D9F847";
paths = (
{
closed = 1;
nodes = (
"582 -25 OFFCURVE",
"754 149 OFFCURVE",
"754 404 CURVE SMOOTH",
"754 602 OFFCURVE",
"645 726 OFFCURVE",
"473 726 CURVE SMOOTH",
"353 726 OFFCURVE",
"302 676 OFFCURVE",
"238 635 CURVE",
"238 592 LINE",
"310 632 OFFCURVE",
"337 659 OFFCURVE",
"442 659 CURVE SMOOTH",
"576 659 OFFCURVE",
"647 565 OFFCURVE",
"647 387 CURVE SMOOTH",
"647 183 OFFCURVE",
"522 38 OFFCURVE",
"345 38 CURVE SMOOTH",
"297 38 OFFCURVE",
"262 43 OFFCURVE",
"219 55 CURVE",
"219 165 OFFCURVE",
"304 654 OFFCURVE",
"304 683 CURVE SMOOTH",
"304 712 OFFCURVE",
"291 726 OFFCURVE",
"267 726 CURVE SMOOTH",
"247 726 OFFCURVE",
"212 713 OFFCURVE",
"172 692 CURVE",
"198 642 LINE",
"142 313 OFFCURVE",
"120 154 OFFCURVE",
"120 85 CURVE SMOOTH",
"120 8 OFFCURVE",
"187 -25 OFFCURVE",
"331 -25 CURVE SMOOTH"
);
}
);
width = 821;
},
{
anchors = (
{
name = bottom;
position = "{356, 0}";
},
{
name = center;
position = "{226, 355}";
},
{
name = top;
position = "{481, 710}";
}
);
hints = (
{
horizontal = 1;
origin = "{0, 37}";
target = "{0, 18}";
type = Stem;
},
{
horizontal = 1;
origin = "{0, 27}";
target = "{0, 12}";
type = Stem;
},
{
origin = "{0, 34}";
target = "{0, 21}";
type = Stem;
},
{
origin = "{0, 15}";
target = "{0, 2}";
type = Stem;
}
);
layerId = "CE369AAB-0FC9-4F25-BC24-38D80C2A37D0";
paths = (
{
closed = 1;
nodes = (
"586 -25 OFFCURVE",
"763 151 OFFCURVE",
"763 407 CURVE SMOOTH",
"763 602 OFFCURVE",
"651 726 OFFCURVE",
"478 726 CURVE SMOOTH",
"361 726 OFFCURVE",
"308 681 OFFCURVE",
"238 632 CURVE",
"244 581 LINE",
"312 621 OFFCURVE",
"342 646 OFFCURVE",
"435 646 CURVE SMOOTH",
"564 646 OFFCURVE",
"634 555 OFFCURVE",
"634 386 CURVE SMOOTH",
"634 189 OFFCURVE",
"514 48 OFFCURVE",
"345 48 CURVE SMOOTH",
"302 48 OFFCURVE",
"269 53 OFFCURVE",
"231 65 CURVE",
"231 164 OFFCURVE",
"314 635 OFFCURVE",
"314 673 CURVE SMOOTH",
"314 709 OFFCURVE",
"299 726 OFFCURVE",
"269 726 CURVE SMOOTH",
"241 726 OFFCURVE",
"199 711 OFFCURVE",
"152 684 CURVE",
"183 623 LINE",
"129 308 OFFCURVE",
"108 163 OFFCURVE",
"108 97 CURVE SMOOTH",
"108 14 OFFCURVE",
"182 -25 OFFCURVE",
"330 -25 CURVE SMOOTH"
);
}
);
width = 828;
}
);
leftKerningGroup = H;
leftMetricsKey = H;
rightKerningGroup = O;
rightMetricsKey = "=O+40";
unicode = 0044;
},
{
color = 10;
glyphname = E;
layers = (
{
anchors = (
{
name = bottom;
position = "{283, 0}";
},
{
name = ogonek;
position = "{554, 10}";
},
{
name = top;
position = "{398, 710}";
},
{
name = topleft;
position = "{20, 710}";
}
);
hints = (
{
horizontal = 1;
origin = "{1, 13}";
target = "{1, 9}";
type = Stem;
},
{
horizontal = 1;
origin = "{2, 13}";
target = "{2, 6}";
type = Stem;
},
{
origin = "{0, 18}";
target = "{0, 5}";
type = Stem;
},
{
horizontal = 1;
origin = "{3, 12}";
target = "{3, 8}";
type = Stem;
}
);
layerId = "E79706D4-AD71-4087-AB75-377D41BAFC4F";
paths = (
{
closed = 1;
nodes = (
"231 -26 OFFCURVE",
"271 -12 OFFCURVE",
"306 19 CURVE",
"284 50 OFFCURVE",
"276 83 OFFCURVE",
"276 144 CURVE SMOOTH",
"276 221 OFFCURVE",
"353 564 OFFCURVE",
"353 632 CURVE SMOOTH",
"353 695 OFFCURVE",
"327 726 OFFCURVE",
"276 726 CURVE SMOOTH",
"215 726 OFFCURVE",
"144 701 OFFCURVE",
"70 653 CURVE",
"123 546 LINE",
"73 261 OFFCURVE",
"60 168 OFFCURVE",
"60 109 CURVE SMOOTH",
"60 14 OFFCURVE",
"96 -26 OFFCURVE",
"182 -26 CURVE SMOOTH"
);
},
{
closed = 1;
nodes = (
"543 -25 OFFCURVE",
"597 24 OFFCURVE",
"597 111 CURVE SMOOTH",
"597 137 OFFCURVE",
"594 156 OFFCURVE",
"586 175 CURVE",
"538 156 OFFCURVE",
"487 143 OFFCURVE",
"438 136 CURVE",
"229 136 LINE",
"229 29 LINE",
"309 -10 OFFCURVE",
"371 -25 OFFCURVE",
"447 -25 CURVE SMOOTH"
);
},
{
closed = 1;
nodes = (
"425 249 OFFCURVE",
"466 284 OFFCURVE",
"466 341 CURVE SMOOTH",
"466 360 OFFCURVE",
"464 377 OFFCURVE",
"461 389 CURVE",
"371 366 LINE",
"343 366 OFFCURVE",
"319 369 OFFCURVE",
"292 376 CURVE",
"272 262 LINE",
"312 252 OFFCURVE",
"334 249 OFFCURVE",
"357 249 CURVE SMOOTH"
);
},
{
closed = 1;
nodes = (
"567 493 OFFCURVE",
"639 555 OFFCURVE",
"639 656 CURVE SMOOTH",
"639 676 OFFCURVE",
"636 698 OFFCURVE",
"631 721 CURVE",
"507 690 OFFCURVE",
"415 668 OFFCURVE",
"284 668 CURVE",
"272 533 LINE",
"311 513 OFFCURVE",
"398 493 OFFCURVE",
"448 493 CURVE SMOOTH"
);
}
);
width = 629;
},
{
anchors = (
{
name = bottom;
position = "{327, 0}";
},
{
name = ogonek;
position = "{526, 10}";
},
{
name = top;
position = "{397, 710}";
},
{
name = topleft;
position = "{20, 710}";
}
);
hints = (
{
horizontal = 1;
origin = "{1, 13}";
target = "{1, 9}";
type = Stem;
},
{
horizontal = 1;
origin = "{2, 13}";
target = "{2, 6}";
type = Stem;
},
{
origin = "{0, 18}";
target = "{0, 5}";
type = Stem;
},
{
horizontal = 1;
origin = "{3, 12}";
target = "{3, 8}";
type = Stem;
}
);
layerId = "1D04CB99-59CD-4CDD-8259-0FDF24D9F847";
paths = (
{
closed = 1;
nodes = (
"207 -26 OFFCURVE",
"237 -15 OFFCURVE",
"273 10 CURVE",
"238 25 OFFCURVE",
"221 47 OFFCURVE",
"221 74 CURVE SMOOTH",
"221 169 OFFCURVE",
"308 654 OFFCURVE",
"308 683 CURVE SMOOTH",
"308 712 OFFCURVE",
"296 726 OFFCURVE",
"272 726 CURVE SMOOTH",
"245 726 OFFCURVE",
"210 713 OFFCURVE",
"175 692 CURVE",
"201 642 LINE",
"138 255 OFFCURVE",
"120 123 OFFCURVE",
"120 42 CURVE SMOOTH",
"120 -6 OFFCURVE",
"138 -26 OFFCURVE",
"178 -26 CURVE SMOOTH"
);
},
{
closed = 1;
nodes = (
"494 -25 OFFCURVE",
"539 -5 OFFCURVE",
"539 44 CURVE SMOOTH",
"539 55 OFFCURVE",
"537 62 OFFCURVE",
"531 82 CURVE",
"501 71 OFFCURVE",
"472 64 OFFCURVE",
"432 60 CURVE",
"204 60 LINE",
"163 34 LINE",
"212 -1 OFFCURVE",
"304 -25 OFFCURVE",
"387 -25 CURVE SMOOTH"
);
},
{
closed = 1;
nodes = (
"413 288 OFFCURVE",
"443 313 OFFCURVE",
"443 358 CURVE SMOOTH",
"443 363 OFFCURVE",
"443 370 OFFCURVE",
"443 377 CURVE",
"374 360 LINE",
"323 360 OFFCURVE",
"278 362 OFFCURVE",
"235 367 CURVE",
"222 309 LINE",
"277 294 OFFCURVE",
"316 288 OFFCURVE",
"357 288 CURVE SMOOTH"
);
},
{
closed = 1;
nodes = (
"535 604 OFFCURVE",
"592 621 OFFCURVE",
"592 683 CURVE SMOOTH",
"592 693 OFFCURVE",
"592 704 OFFCURVE",
"587 720 CURVE",
"472 698 OFFCURVE",
"404 682 OFFCURVE",
"270 682 CURVE",
"243 640 LINE",
"327 612 OFFCURVE",
"399 604 OFFCURVE",
"484 604 CURVE SMOOTH"
);
}
);
width = 568;
},
{
anchors = (
{
name = bottom;
position = "{318, 0}";
},
{
name = ogonek;
position = "{532, 10}";
},
{
name = top;
position = "{397, 710}";
},
{
name = topleft;
position = "{20, 710}";
}
);
hints = (
{
horizontal = 1;
origin = "{1, 13}";
target = "{1, 9}";
type = Stem;
},
{
horizontal = 1;
origin = "{2, 13}";
target = "{2, 6}";
type = Stem;
},
{
origin = "{0, 18}";
target = "{0, 5}";
type = Stem;
},
{
horizontal = 1;
origin = "{3, 12}";
target = "{3, 8}";
type = Stem;
}
);
layerId = "CE369AAB-0FC9-4F25-BC24-38D80C2A37D0";
paths = (
{
closed = 1;
nodes = (
"212 -26 OFFCURVE",
"244 -14 OFFCURVE",
"280 12 CURVE",
"247 30 OFFCURVE",
"232 54 OFFCURVE",
"232 88 CURVE SMOOTH",
"232 179 OFFCURVE",
"317 636 OFFCURVE",
"317 673 CURVE SMOOTH",
"317 709 OFFCURVE",
"302 726 OFFCURVE",
"273 726 CURVE SMOOTH",
"239 726 OFFCURVE",
"197 711 OFFCURVE",
"154 684 CURVE",
"185 623 LINE",
"125 256 OFFCURVE",
"108 132 OFFCURVE",
"108 55 CURVE SMOOTH",
"108 -2 OFFCURVE",
"130 -26 OFFCURVE",
"179 -26 CURVE SMOOTH"
);
},
{
closed = 1;
nodes = (
"504 -25 OFFCURVE",
"551 1 OFFCURVE",
"551 57 CURVE SMOOTH",
"551 71 OFFCURVE",
"548 81 OFFCURVE",
"542 101 CURVE",
"508 88 OFFCURVE",
"475 80 OFFCURVE",
"433 75 CURVE",
"209 75 LINE",
"176 33 LINE",
"231 -3 OFFCURVE",
"317 -25 OFFCURVE",
"399 -25 CURVE SMOOTH"
);
},
{
closed = 1;
nodes = (
"415 280 OFFCURVE",
"448 307 OFFCURVE",
"448 355 CURVE SMOOTH",
"448 362 OFFCURVE",
"447 371 OFFCURVE",
"447 379 CURVE",
"373 361 LINE",
"327 361 OFFCURVE",
"286 363 OFFCURVE",
"246 369 CURVE",
"232 300 LINE",
"284 286 OFFCURVE",
"320 280 OFFCURVE",
"357 280 CURVE SMOOTH"
);
},
{
closed = 1;
nodes = (
"541 582 OFFCURVE",
"601 608 OFFCURVE",
"601 678 CURVE SMOOTH",
"601 690 OFFCURVE",
"601 703 OFFCURVE",
"596 720 CURVE",
"479 696 OFFCURVE",
"406 679 OFFCURVE",
"273 679 CURVE",
"249 619 LINE",
"324 592 OFFCURVE",
"399 582 OFFCURVE",
"477 582 CURVE SMOOTH"
);
}
);
width = 580;
}
);
leftKerningGroup = H;
leftMetricsKey = H;
rightKerningGroup = E;
unicode = 0045;
},
{
color = 10;
glyphname = F;
layers = (
{
hints = (
{
horizontal = 1;
origin = "{1, 13}";
target = "{1, 6}";
type = Stem;
},
{
origin = "{0, 18}";
target = "{0, 5}";
type = Stem;
},
{
horizontal = 1;
origin = "{2, 12}";
target = "{2, 8}";
type = Stem;
}
);
layerId = "E79706D4-AD71-4087-AB75-377D41BAFC4F";
paths = (
{
closed = 1;
nodes = (
"231 -26 OFFCURVE",
"271 -12 OFFCURVE",
"306 19 CURVE",
"284 50 OFFCURVE",
"276 83 OFFCURVE",
"276 144 CURVE SMOOTH",
"276 221 OFFCURVE",
"353 564 OFFCURVE",
"353 632 CURVE SMOOTH",
"353 695 OFFCURVE",
"327 726 OFFCURVE",
"276 726 CURVE SMOOTH",
"215 726 OFFCURVE",
"144 701 OFFCURVE",
"70 653 CURVE",
"123 546 LINE",
"73 261 OFFCURVE",
"60 168 OFFCURVE",
"60 109 CURVE SMOOTH",
"60 14 OFFCURVE",
"96 -26 OFFCURVE",
"182 -26 CURVE SMOOTH"
);
},
{
closed = 1;
nodes = (
"425 249 OFFCURVE",
"466 284 OFFCURVE",
"466 341 CURVE SMOOTH",
"466 360 OFFCURVE",
"464 377 OFFCURVE",
"461 389 CURVE",
"371 366 LINE",
"343 366 OFFCURVE",
"319 369 OFFCURVE",
"292 376 CURVE",
"272 262 LINE",
"312 252 OFFCURVE",
"334 249 OFFCURVE",
"357 249 CURVE SMOOTH"
);
},
{
closed = 1;
nodes = (
"557 493 OFFCURVE",
"629 555 OFFCURVE",
"629 656 CURVE SMOOTH",
"629 676 OFFCURVE",
"626 698 OFFCURVE",
"621 721 CURVE",
"497 690 OFFCURVE",
"405 668 OFFCURVE",
"274 668 CURVE",
"262 533 LINE",
"301 513 OFFCURVE",
"388 493 OFFCURVE",
"438 493 CURVE SMOOTH"
);
}
);
width = 599;
},
{
hints = (
{
horizontal = 1;
origin = "{1, 13}";
target = "{1, 6}";
type = Stem;
},
{
origin = "{0, 18}";
target = "{0, 5}";
type = Stem;
},
{
horizontal = 1;
origin = "{2, 12}";
target = "{2, 8}";
type = Stem;
}
);
layerId = "1D04CB99-59CD-4CDD-8259-0FDF24D9F847";
paths = (
{
closed = 1;
nodes = (
"197 -26 OFFCURVE",
"217 -20 OFFCURVE",
"243 -5 CURVE",
"229 13 OFFCURVE",
"221 41 OFFCURVE",
"221 74 CURVE SMOOTH",
"221 169 OFFCURVE",
"308 654 OFFCURVE",
"308 683 CURVE SMOOTH",
"308 712 OFFCURVE",
"296 726 OFFCURVE",
"272 726 CURVE SMOOTH",
"245 726 OFFCURVE",
"210 713 OFFCURVE",
"175 692 CURVE",
"201 642 LINE",
"138 255 OFFCURVE",
"120 123 OFFCURVE",
"120 42 CURVE SMOOTH",
"120 -6 OFFCURVE",
"138 -26 OFFCURVE",
"178 -26 CURVE SMOOTH"
);
},
{
closed = 1;
nodes = (
"413 288 OFFCURVE",
"443 313 OFFCURVE",
"443 358 CURVE SMOOTH",
"443 363 OFFCURVE",
"443 370 OFFCURVE",
"443 377 CURVE",
"374 360 LINE",
"323 360 OFFCURVE",
"278 362 OFFCURVE",
"235 367 CURVE",
"222 309 LINE",
"277 294 OFFCURVE",
"316 288 OFFCURVE",
"357 288 CURVE SMOOTH"
);
},
{
closed = 1;
nodes = (
"525 604 OFFCURVE",
"582 621 OFFCURVE",
"582 683 CURVE SMOOTH",
"582 693 OFFCURVE",
"582 704 OFFCURVE",
"577 720 CURVE",
"462 698 OFFCURVE",
"394 682 OFFCURVE",
"260 682 CURVE",
"233 640 LINE",
"317 612 OFFCURVE",
"389 604 OFFCURVE",
"474 604 CURVE SMOOTH"
);
}
);
width = 508;
},
{
hints = (
{
horizontal = 1;
origin = "{1, 13}";
target = "{1, 6}";
type = Stem;
},
{
origin = "{0, 18}";
target = "{0, 5}";
type = Stem;
},
{
horizontal = 1;
origin = "{2, 12}";
target = "{2, 8}";
type = Stem;
}
);
layerId = "CE369AAB-0FC9-4F25-BC24-38D80C2A37D0";
paths = (
{
closed = 1;
nodes = (
"204 -26 OFFCURVE",
"228 -18 OFFCURVE",
"256 0 CURVE",
"240 20 OFFCURVE",
"232 49 OFFCURVE",
"232 88 CURVE SMOOTH",
"232 179 OFFCURVE",
"317 636 OFFCURVE",
"317 673 CURVE SMOOTH",
"317 709 OFFCURVE",
"302 726 OFFCURVE",
"273 726 CURVE SMOOTH",
"239 726 OFFCURVE",
"197 711 OFFCURVE",
"154 684 CURVE",
"185 623 LINE",
"125 256 OFFCURVE",
"108 132 OFFCURVE",
"108 55 CURVE SMOOTH",
"108 -2 OFFCURVE",
"130 -26 OFFCURVE",
"179 -26 CURVE SMOOTH"
);
},
{
closed = 1;
nodes = (
"415 280 OFFCURVE",
"448 307 OFFCURVE",
"448 355 CURVE SMOOTH",
"448 362 OFFCURVE",
"447 371 OFFCURVE",
"447 379 CURVE",
"373 361 LINE",
"327 361 OFFCURVE",
"286 363 OFFCURVE",
"246 369 CURVE",
"232 300 LINE",
"284 286 OFFCURVE",
"320 280 OFFCURVE",
"357 280 CURVE SMOOTH"
);
},
{
closed = 1;
nodes = (
"531 582 OFFCURVE",
"591 608 OFFCURVE",
"591 678 CURVE SMOOTH",
"591 690 OFFCURVE",
"591 703 OFFCURVE",
"586 720 CURVE",
"469 696 OFFCURVE",
"396 679 OFFCURVE",
"263 679 CURVE",
"239 619 LINE",
"314 592 OFFCURVE",
"389 582 OFFCURVE",
"467 582 CURVE SMOOTH"
);
}
);
width = 526;
}
);
leftKerningGroup = H;
leftMetricsKey = H;
rightKerningGroup = F;
unicode = 0046;
},
{
color = 10;
glyphname = G;
layers = (
{
anchors = (
{
name = bottom;
position = "{260, 0}";
},
{
name = ogonek;
position = "{669, -141}";
},
{
name = top;
position = "{467, 696}";
}
);
hints = (
{
horizontal = 1;
origin = "{0, 29}";
target = "{0, 8}";
type = Stem;
},
{
origin = "{0, 26}";
target = "{0, 11}";
type = Stem;
},
{
origin = "{1, 20}";
target = "{1, 5}";
type = Stem;
},
{
horizontal = 1;
origin = "{0, 23}";
target = "{0, 14}";
type = Stem;
}
);
layerId = "E79706D4-AD71-4087-AB75-377D41BAFC4F";
paths = (
{
closed = 1;
nodes = (
"477 -30 OFFCURVE",
"570 59 OFFCURVE",
"570 171 CURVE SMOOTH",
"570 213 OFFCURVE",
"552 234 OFFCURVE",
"520 234 CURVE",
"515 148 OFFCURVE",
"454 81 OFFCURVE",
"373 81 CURVE SMOOTH",
"294 81 OFFCURVE",
"248 152 OFFCURVE",
"248 274 CURVE SMOOTH",
"248 422 OFFCURVE",
"328 555 OFFCURVE",
"435 594 CURVE",
"468 527 OFFCURVE",
"528 491 OFFCURVE",
"594 491 CURVE SMOOTH",
"663 491 OFFCURVE",
"713 536 OFFCURVE",
"713 599 CURVE SMOOTH",
"713 677 OFFCURVE",
"631 726 OFFCURVE",
"503 726 CURVE SMOOTH",
"231 726 OFFCURVE",
"30 538 OFFCURVE",
"30 278 CURVE SMOOTH",
"30 84 OFFCURVE",
"154 -30 OFFCURVE",
"362 -30 CURVE SMOOTH"
);
},
{
closed = 1;
nodes = (
"590 -185 OFFCURVE",
"631 -171 OFFCURVE",
"669 -141 CURVE",
"648 -125 OFFCURVE",
"638 -96 OFFCURVE",
"638 -60 CURVE SMOOTH",
"638 56 OFFCURVE",
"716 265 OFFCURVE",
"716 310 CURVE SMOOTH",
"716 356 OFFCURVE",
"697 377 OFFCURVE",
"640 377 CURVE SMOOTH",
"576 377 OFFCURVE",
"502 347 OFFCURVE",
"442 309 CURVE",
"520 234 LINE",
"559 189 LINE",
"444 19 LINE",
"436 -21 OFFCURVE",
"431 -54 OFFCURVE",
"431 -74 CURVE SMOOTH",
"431 -146 OFFCURVE",
"465 -185 OFFCURVE",
"550 -185 CURVE SMOOTH"
);
}
);
width = 756;
},
{
anchors = (
{
name = bottom;
position = "{215, 0}";
},
{
name = ogonek;
position = "{561, -167}";
},
{
name = top;
position = "{422, 696}";
}
);
hints = (
{
horizontal = 1;
origin = "{0, 29}";
target = "{0, 8}";
type = Stem;
},
{
origin = "{0, 26}";
target = "{0, 11}";
type = Stem;
},
{
origin = "{1, 20}";
target = "{1, 5}";
type = Stem;
},
{
horizontal = 1;
origin = "{0, 23}";
target = "{0, 14}";
type = Stem;
}
);
layerId = "1D04CB99-59CD-4CDD-8259-0FDF24D9F847";
paths = (
{
closed = 1;
nodes = (
"459 -30 OFFCURVE",
"566 76 OFFCURVE",
"566 201 CURVE SMOOTH",
"566 269 OFFCURVE",
"558 294 OFFCURVE",
"549 294 CURVE",
"541 148 OFFCURVE",
"456 36 OFFCURVE",
"324 36 CURVE SMOOTH",
"225 36 OFFCURVE",
"166 115 OFFCURVE",
"166 247 CURVE SMOOTH",
"166 440 OFFCURVE",
"273 594 OFFCURVE",
"417 653 CURVE",
"450 590 OFFCURVE",
"503 575 OFFCURVE",
"552 575 CURVE SMOOTH",
"605 575 OFFCURVE",
"644 607 OFFCURVE",
"644 649 CURVE SMOOTH",
"644 698 OFFCURVE",
"591 726 OFFCURVE",
"499 726 CURVE SMOOTH",
"260 726 OFFCURVE",
"60 523 OFFCURVE",
"60 256 CURVE SMOOTH",
"60 75 OFFCURVE",
"163 -30 OFFCURVE",
"332 -30 CURVE SMOOTH"
);
},
{
closed = 1;
nodes = (
"527 -185 OFFCURVE",
"544 -179 OFFCURVE",
"561 -167 CURVE",
"552 -160 OFFCURVE",
"547 -147 OFFCURVE",
"547 -128 CURVE SMOOTH",
"547 17 OFFCURVE",
"646 313 OFFCURVE",
"646 333 CURVE SMOOTH",
"646 367 OFFCURVE",
"631 377 OFFCURVE",
"595 377 CURVE SMOOTH",
"564 377 OFFCURVE",
"517 361 OFFCURVE",
"487 332 CURVE",
"549 294 LINE",
"556 221 LINE",
"479 40 LINE",
"457 -51 OFFCURVE",
"449 -105 OFFCURVE",
"449 -134 CURVE SMOOTH",
"449 -172 OFFCURVE",
"468 -185 OFFCURVE",
"504 -185 CURVE SMOOTH"
);
}
);
width = 717;
},
{
anchors = (
{
name = bottom;
position = "{224, 0}";
},
{
name = ogonek;
position = "{582, -162}";
},
{
name = top;
position = "{431, 696}";
}
);
hints = (
{
horizontal = 1;
origin = "{0, 29}";
target = "{0, 8}";
type = Stem;
},
{
origin = "{0, 26}";
target = "{0, 11}";
type = Stem;
},
{
origin = "{1, 20}";
target = "{1, 5}";
type = Stem;
},
{
horizontal = 1;
origin = "{0, 23}";
target = "{0, 14}";
type = Stem;
}
);
layerId = "CE369AAB-0FC9-4F25-BC24-38D80C2A37D0";
paths = (
{
closed = 1;
nodes = (
"462 -30 OFFCURVE",
"566 73 OFFCURVE",
"566 195 CURVE SMOOTH",
"566 258 OFFCURVE",
"556 282 OFFCURVE",
"543 282 CURVE",
"535 148 OFFCURVE",
"455 45 OFFCURVE",
"333 45 CURVE SMOOTH",
"238 45 OFFCURVE",
"182 122 OFFCURVE",
"182 252 CURVE SMOOTH",
"182 436 OFFCURVE",
"284 586 OFFCURVE",
"420 641 CURVE",
"453 577 OFFCURVE",
"508 558 OFFCURVE",
"560 558 CURVE SMOOTH",
"616 558 OFFCURVE",
"657 593 OFFCURVE",
"657 639 CURVE SMOOTH",
"657 694 OFFCURVE",
"599 726 OFFCURVE",
"499 726 CURVE SMOOTH",
"254 726 OFFCURVE",
"54 526 OFFCURVE",
"54 260 CURVE SMOOTH",
"54 77 OFFCURVE",
"161 -30 OFFCURVE",
"338 -30 CURVE SMOOTH"
);
},
{
closed = 1;
nodes = (
"539 -185 OFFCURVE",
"561 -177 OFFCURVE",
"582 -162 CURVE",
"571 -153 OFFCURVE",
"565 -137 OFFCURVE",
"565 -114 CURVE SMOOTH",
"565 25 OFFCURVE",
"660 303 OFFCURVE",
"660 328 CURVE SMOOTH",
"660 365 OFFCURVE",
"644 377 OFFCURVE",
"604 377 CURVE SMOOTH",
"566 377 OFFCURVE",
"514 358 OFFCURVE",
"478 327 CURVE",
"543 282 LINE",
"556 215 LINE",
"472 36 LINE",
"452 -45 OFFCURVE",
"445 -95 OFFCURVE",
"445 -122 CURVE SMOOTH",
"445 -167 OFFCURVE",
"467 -185 OFFCURVE",
"513 -185 CURVE SMOOTH"
);
}
);
width = 725;
}
);
leftKerningGroup = O;
leftMetricsKey = O;
rightKerningGroup = G;
rightMetricsKey = "=H+10";
unicode = 0047;
},
{
color = 10;
glyphname = H;
layers = (
{
anchors = (
{
name = bottom;
position = "{363, 0}";
},
{
name = center;
position = "{441, 495}";
},
{
name = top;
position = "{475, 710}";
},
{
name = topleft;
position = "{20, 710}";
}
);
hints = (
{
horizontal = 1;
origin = "{2, 3}";
target = "{2, 2}";
type = Stem;
},
{
origin = "{1, 18}";
target = "{1, 5}";
type = Stem;
},
{
origin = "{0, 18}";
target = "{0, 5}";
type = Stem;
}
);
layerId = "E79706D4-AD71-4087-AB75-377D41BAFC4F";
paths = (
{
closed = 1;
nodes = (
"668 -26 OFFCURVE",
"708 -12 OFFCURVE",
"747 19 CURVE",
"725 50 OFFCURVE",
"717 83 OFFCURVE",
"717 144 CURVE SMOOTH",
"717 221 OFFCURVE",
"794 564 OFFCURVE",
"794 632 CURVE SMOOTH",
"794 695 OFFCURVE",
"768 726 OFFCURVE",
"717 726 CURVE SMOOTH",
"656 726 OFFCURVE",
"585 701 OFFCURVE",
"511 653 CURVE",
"564 546 LINE",
"513 253 OFFCURVE",
"501 167 OFFCURVE",
"501 109 CURVE SMOOTH",
"501 14 OFFCURVE",
"537 -26 OFFCURVE",
"623 -26 CURVE SMOOTH"
);
},
{
closed = 1;
nodes = (
"227 -26 OFFCURVE",
"267 -12 OFFCURVE",
"306 19 CURVE",
"284 50 OFFCURVE",
"276 83 OFFCURVE",
"276 144 CURVE SMOOTH",
"276 221 OFFCURVE",
"353 564 OFFCURVE",
"353 632 CURVE SMOOTH",
"353 695 OFFCURVE",
"327 726 OFFCURVE",
"276 726 CURVE SMOOTH",
"215 726 OFFCURVE",
"144 701 OFFCURVE",
"70 653 CURVE",
"123 546 LINE",
"72 253 OFFCURVE",
"60 167 OFFCURVE",
"60 109 CURVE SMOOTH",
"60 14 OFFCURVE",
"96 -26 OFFCURVE",
"182 -26 CURVE SMOOTH"
);
},
{
closed = 1;
nodes = (
"581 267 LINE",
"601 386 LINE",
"255 386 LINE",
"233 267 LINE"
);
}
);
width = 824;
},
{
anchors = (
{
name = bottom;
position = "{384, 0}";
},
{
name = center;
position = "{458, 522}";
},
{
name = top;
position = "{484, 710}";
},
{
name = topleft;
position = "{20, 710}";
}
);
hints = (
{
horizontal = 1;
origin = "{2, 3}";
target = "{2, 2}";
type = Stem;
},
{
origin = "{1, 18}";
target = "{1, 5}";
type = Stem;
},
{
origin = "{0, 18}";
target = "{0, 5}";
type = Stem;
}
);
layerId = "1D04CB99-59CD-4CDD-8259-0FDF24D9F847";
paths = (
{
closed = 1;
nodes = (
"644 -26 OFFCURVE",
"664 -20 OFFCURVE",
"688 -5 CURVE",
"674 13 OFFCURVE",
"666 41 OFFCURVE",
"666 74 CURVE SMOOTH",
"666 169 OFFCURVE",
"753 654 OFFCURVE",
"753 683 CURVE SMOOTH",
"753 712 OFFCURVE",
"741 726 OFFCURVE",
"717 726 CURVE SMOOTH",
"690 726 OFFCURVE",
"655 713 OFFCURVE",
"620 692 CURVE",
"646 642 LINE",
"583 259 OFFCURVE",
"565 124 OFFCURVE",
"565 42 CURVE SMOOTH",
"565 -6 OFFCURVE",
"583 -26 OFFCURVE",
"623 -26 CURVE SMOOTH"
);
},
{
closed = 1;
nodes = (
"199 -26 OFFCURVE",
"219 -20 OFFCURVE",
"243 -5 CURVE",
"229 13 OFFCURVE",
"221 41 OFFCURVE",
"221 74 CURVE SMOOTH",
"221 169 OFFCURVE",
"308 654 OFFCURVE",
"308 683 CURVE SMOOTH",
"308 712 OFFCURVE",
"296 726 OFFCURVE",
"272 726 CURVE SMOOTH",
"245 726 OFFCURVE",
"210 713 OFFCURVE",
"175 692 CURVE",
"201 642 LINE",
"138 259 OFFCURVE",
"120 124 OFFCURVE",
"120 42 CURVE SMOOTH",
"120 -6 OFFCURVE",
"138 -26 OFFCURVE",
"178 -26 CURVE SMOOTH"
);
},
{
closed = 1;
nodes = (
"629 297 LINE",
"640 356 LINE",
"204 356 LINE",
"191 297 LINE"
);
}
);
width = 814;
},
{
anchors = (
{
name = bottom;
position = "{380, 0}";
},
{
name = center;
position = "{455, 517}";
},
{
name = top;
position = "{482, 710}";
},
{
name = topleft;
position = "{20, 710}";
}
);
hints = (
{
horizontal = 1;
origin = "{2, 3}";
target = "{2, 2}";
type = Stem;
},
{
origin = "{1, 18}";
target = "{1, 5}";
type = Stem;
},
{
origin = "{0, 18}";
target = "{0, 5}";
type = Stem;
}
);
layerId = "CE369AAB-0FC9-4F25-BC24-38D80C2A37D0";
paths = (
{
closed = 1;
nodes = (
"649 -26 OFFCURVE",
"673 -18 OFFCURVE",
"700 0 CURVE",
"684 20 OFFCURVE",
"676 49 OFFCURVE",
"676 88 CURVE SMOOTH",
"676 179 OFFCURVE",
"761 636 OFFCURVE",
"761 673 CURVE SMOOTH",
"761 709 OFFCURVE",
"746 726 OFFCURVE",
"717 726 CURVE SMOOTH",
"683 726 OFFCURVE",
"641 711 OFFCURVE",
"598 684 CURVE",
"630 623 LINE",
"569 258 OFFCURVE",
"552 133 OFFCURVE",
"552 55 CURVE SMOOTH",
"552 -2 OFFCURVE",
"574 -26 OFFCURVE",
"623 -26 CURVE SMOOTH"
);
},
{
closed = 1;
nodes = (
"205 -26 OFFCURVE",
"229 -18 OFFCURVE",
"256 0 CURVE",
"240 20 OFFCURVE",
"232 49 OFFCURVE",
"232 88 CURVE SMOOTH",
"232 179 OFFCURVE",
"317 636 OFFCURVE",
"317 673 CURVE SMOOTH",
"317 709 OFFCURVE",
"302 726 OFFCURVE",
"273 726 CURVE SMOOTH",
"239 726 OFFCURVE",
"197 711 OFFCURVE",
"154 684 CURVE",
"185 623 LINE",
"125 258 OFFCURVE",
"108 133 OFFCURVE",
"108 55 CURVE SMOOTH",
"108 -2 OFFCURVE",
"130 -26 OFFCURVE",
"179 -26 CURVE SMOOTH"
);
},
{
closed = 1;
nodes = (
"619 291 LINE",
"632 362 LINE",
"214 362 LINE",
"199 291 LINE"
);
}
);
width = 816;
}
);
leftKerningGroup = H;
rightKerningGroup = H;
unicode = 0048;
},
{
color = 10;
glyphname = I;
layers = (
{
anchors = (
{
name = bottom;
position = "{170, 0}";
},
{
name = ogonek;
position = "{306, 20}";
},
{
name = top;
position = "{255, 710}";
},
{
name = topleft;
position = "{20, 710}";
}
);
hints = (
{
origin = "{0, 18}";
target = "{0, 5}";
type = Stem;
}
);
layerId = "E79706D4-AD71-4087-AB75-377D41BAFC4F";
paths = (
{
closed = 1;
nodes = (
"227 -25 OFFCURVE",
"267 -11 OFFCURVE",
"306 20 CURVE",
"284 51 OFFCURVE",
"276 84 OFFCURVE",
"276 145 CURVE SMOOTH",
"276 222 OFFCURVE",
"353 564 OFFCURVE",
"353 632 CURVE SMOOTH",
"353 695 OFFCURVE",
"327 726 OFFCURVE",
"276 726 CURVE SMOOTH",
"215 726 OFFCURVE",
"144 701 OFFCURVE",
"70 653 CURVE",
"123 546 LINE",
"72 254 OFFCURVE",
"60 168 OFFCURVE",
"60 110 CURVE SMOOTH",
"60 15 OFFCURVE",
"96 -25 OFFCURVE",
"182 -25 CURVE SMOOTH"
);
}
);
width = 383;
},
{
anchors = (
{
name = bottom;
position = "{163, 0}";
},
{
name = ogonek;
position = "{243, -4}";
},
{
name = top;
position = "{263, 710}";
},
{
name = topleft;
position = "{20, 710}";
}
);
hints = (
{
origin = "{0, 18}";
target = "{0, 5}";
type = Stem;
}
);
layerId = "1D04CB99-59CD-4CDD-8259-0FDF24D9F847";
paths = (
{
closed = 1;
nodes = (
"199 -25 OFFCURVE",
"219 -19 OFFCURVE",
"243 -4 CURVE",
"229 14 OFFCURVE",
"221 42 OFFCURVE",
"221 75 CURVE SMOOTH",
"221 170 OFFCURVE",
"308 654 OFFCURVE",
"308 683 CURVE SMOOTH",
"308 712 OFFCURVE",
"296 726 OFFCURVE",
"272 726 CURVE SMOOTH",
"245 726 OFFCURVE",
"210 713 OFFCURVE",
"175 692 CURVE",
"201 642 LINE",
"138 260 OFFCURVE",
"120 125 OFFCURVE",
"120 43 CURVE SMOOTH",
"120 -5 OFFCURVE",
"138 -25 OFFCURVE",
"178 -25 CURVE SMOOTH"
);
}
);
width = 369;
},
{
anchors = (
{
name = bottom;
position = "{164, 0}";
},
{
name = ogonek;
position = "{256, 1}";
},
{
name = top;
position = "{261, 710}";
},
{
name = topleft;
position = "{20, 710}";
}
);
hints = (
{
origin = "{0, 18}";
target = "{0, 5}";
type = Stem;
}
);
layerId = "CE369AAB-0FC9-4F25-BC24-38D80C2A37D0";
paths = (
{
closed = 1;
nodes = (
"205 -25 OFFCURVE",
"229 -17 OFFCURVE",
"256 1 CURVE",
"240 21 OFFCURVE",
"232 50 OFFCURVE",
"232 89 CURVE SMOOTH",
"232 180 OFFCURVE",
"317 636 OFFCURVE",
"317 673 CURVE SMOOTH",
"317 709 OFFCURVE",
"302 726 OFFCURVE",
"273 726 CURVE SMOOTH",
"239 726 OFFCURVE",
"197 711 OFFCURVE",
"154 684 CURVE",
"185 623 LINE",
"125 259 OFFCURVE",
"108 134 OFFCURVE",
"108 56 CURVE SMOOTH",
"108 -1 OFFCURVE",
"130 -25 OFFCURVE",
"179 -25 CURVE SMOOTH"
);
}
);
width = 372;
}
);
leftKerningGroup = H;
leftMetricsKey = H;
rightKerningGroup = H;
rightMetricsKey = H;
unicode = 0049;
},
{
color = 10;
glyphname = J;
layers = (
{
anchors = (
{
name = bottom;
position = "{243, 0}";
},
{
name = top;
position = "{368, 710}";
}
);
hints = (
{
horizontal = 1;
place = "{-45, 21}";
target = up;
type = BottomGhost;
},
{
horizontal = 1;
place = "{724, -20}";
target = down;
type = TopGhost;
}
);
layerId = "E79706D4-AD71-4087-AB75-377D41BAFC4F";
paths = (
{
closed = 1;
nodes = (
"349 -25 OFFCURVE",
"497 24 OFFCURVE",
"533 278 CURVE SMOOTH",
"582 632 LINE",
"349 545 LINE",
"312 278 LINE SMOOTH",
"290 120 OFFCURVE",
"272 112 OFFCURVE",
"230 88 CURVE",
"265 37 LINE",
"248 168 OFFCURVE",
"178 222 OFFCURVE",
"111 222 CURVE SMOOTH",
"53 222 OFFCURVE",
"0 181 OFFCURVE",
"0 115 CURVE SMOOTH",
"0 34 OFFCURVE",
"84 -25 OFFCURVE",
"203 -25 CURVE SMOOTH"
);
},
{
closed = 1;
nodes = (
"512 480 OFFCURVE",
"605 534 OFFCURVE",
"605 626 CURVE SMOOTH",
"605 689 OFFCURVE",
"568 726 OFFCURVE",
"496 726 CURVE SMOOTH",
"444 726 OFFCURVE",
"399 698 OFFCURVE",
"369 641 CURVE",
"308 645 OFFCURVE",
"181 688 OFFCURVE",
"99 732 CURVE",
"89 697 OFFCURVE",
"84 663 OFFCURVE",
"84 635 CURVE SMOOTH",
"84 523 OFFCURVE",
"159 480 OFFCURVE",
"356 480 CURVE SMOOTH"
);
}
);
width = 610;
},
{
anchors = (
{
name = bottom;
position = "{200, 0}";
},
{
name = top;
position = "{325, 710}";
}
);
hints = (
{
horizontal = 1;
place = "{-67.5, 21}";
target = up;
type = BottomGhost;
},
{
horizontal = 1;
place = "{1086, -20}";
target = down;
type = TopGhost;
}
);
layerId = "1D04CB99-59CD-4CDD-8259-0FDF24D9F847";
paths = (
{
closed = 1;
nodes = (
"325 -25 OFFCURVE",
"395 72 OFFCURVE",
"424 269 CURVE SMOOTH",
"483 683 LINE",
"381 643 LINE",
"330 269 LINE SMOOTH",
"305 84 OFFCURVE",
"262 31 OFFCURVE",
"157 27 CURVE",
"183 16 LINE",
"167 51 OFFCURVE",
"145 114 OFFCURVE",
"80 114 CURVE SMOOTH",
"34 114 OFFCURVE",
"15 85 OFFCURVE",
"15 58 CURVE SMOOTH",
"15 -1 OFFCURVE",
"81 -25 OFFCURVE",
"139 -25 CURVE SMOOTH"
);
},
{
closed = 1;
nodes = (
"467 585 OFFCURVE",
"514 609 OFFCURVE",
"514 670 CURVE SMOOTH",
"514 706 OFFCURVE",
"490 726 OFFCURVE",
"456 726 CURVE SMOOTH",
"417 726 OFFCURVE",
"389 700 OFFCURVE",
"378 656 CURVE",
"295 660 OFFCURVE",
"187 690 OFFCURVE",
"105 732 CURVE",
"97 721 OFFCURVE",
"90 696 OFFCURVE",
"90 673 CURVE SMOOTH",
"90 610 OFFCURVE",
"162 585 OFFCURVE",
"346 585 CURVE SMOOTH"
);
}
);
width = 523;
},
{
anchors = (
{
name = bottom;
position = "{209, 0}";
},
{
name = top;
position = "{334, 710}";
}
);
hints = (
{
horizontal = 1;
place = "{-63, 21}";
target = up;
type = BottomGhost;
},
{
horizontal = 1;
place = "{1013.6, -20}";
target = down;
type = TopGhost;
}
);
layerId = "CE369AAB-0FC9-4F25-BC24-38D80C2A37D0";
paths = (
{
closed = 1;
nodes = (
"330 -25 OFFCURVE",
"415 62 OFFCURVE",
"446 271 CURVE SMOOTH",
"503 673 LINE",
"375 623 LINE",
"326 271 LINE SMOOTH",
"302 91 OFFCURVE",
"264 47 OFFCURVE",
"172 39 CURVE",
"199 20 LINE",
"183 74 OFFCURVE",
"152 136 OFFCURVE",
"86 136 CURVE SMOOTH",
"38 136 OFFCURVE",
"12 104 OFFCURVE",
"12 69 CURVE SMOOTH",
"12 6 OFFCURVE",
"82 -25 OFFCURVE",
"152 -25 CURVE SMOOTH"
);
},
{
closed = 1;
nodes = (
"476 564 OFFCURVE",
"532 594 OFFCURVE",
"532 661 CURVE SMOOTH",
"532 703 OFFCURVE",
"506 726 OFFCURVE",
"464 726 CURVE SMOOTH",
"422 726 OFFCURVE",
"391 700 OFFCURVE",
"376 653 CURVE",
"298 657 OFFCURVE",
"186 690 OFFCURVE",
"104 732 CURVE",
"95 716 OFFCURVE",
"89 689 OFFCURVE",
"89 665 CURVE SMOOTH",
"89 593 OFFCURVE",
"161 564 OFFCURVE",
"348 564 CURVE SMOOTH"
);
}
);
width = 540;
}
);
leftKerningGroup = J;
rightKerningGroup = J;
unicode = 004A;
},
{
color = 10;
glyphname = K;
layers = (
{
anchors = (
{
name = bottom;
position = "{339, 0}";
},
{
name = top;
position = "{451, 710}";
}
);
hints = (
{
origin = "{1, 18}";
target = "{1, 5}";
type = Stem;
},
{
origin = "{0, 12}";
target = "{0, 3}";
type = Stem;
}
);
layerId = "E79706D4-AD71-4087-AB75-377D41BAFC4F";
paths = (
{
closed = 1;
nodes = (
"432 345 LINE SMOOTH",
"639 457 OFFCURVE",
"734 548 OFFCURVE",
"734 635 CURVE SMOOTH",
"734 695 OFFCURVE",
"701 725 OFFCURVE",
"636 725 CURVE SMOOTH",
"592 725 OFFCURVE",
"545 710 OFFCURVE",
"496 680 CURVE",
"501 665 OFFCURVE",
"504 650 OFFCURVE",
"504 633 CURVE SMOOTH",
"504 569 OFFCURVE",
"451 494 OFFCURVE",
"358 425 CURVE SMOOTH",
"182 296 LINE",
"182 210 LINE"
);
},
{
closed = 1;
nodes = (
"229 -26 OFFCURVE",
"269 -12 OFFCURVE",
"306 19 CURVE",
"284 50 OFFCURVE",
"276 83 OFFCURVE",
"276 144 CURVE SMOOTH",
"276 221 OFFCURVE",
"353 564 OFFCURVE",
"353 632 CURVE SMOOTH",
"353 695 OFFCURVE",
"327 726 OFFCURVE",
"276 726 CURVE SMOOTH",
"215 726 OFFCURVE",
"144 701 OFFCURVE",
"70 653 CURVE",
"123 546 LINE",
"74 264 OFFCURVE",
"60 169 OFFCURVE",
"60 109 CURVE SMOOTH",
"60 14 OFFCURVE",
"96 -26 OFFCURVE",
"182 -26 CURVE SMOOTH"
);
},
{
closed = 1;
nodes = (
"639 -25 OFFCURVE",
"707 1 OFFCURVE",
"736 30 CURVE",
"666 79 OFFCURVE",
"589 235 OFFCURVE",
"530 446 CURVE",
"347 317 LINE",
"410 139 LINE SMOOTH",
"453 17 OFFCURVE",
"500 -25 OFFCURVE",
"593 -25 CURVE SMOOTH"
);
}
);
width = 736;
},
{
anchors = (
{
name = bottom;
position = "{321, 0}";
},
{
name = top;
position = "{421, 710}";
}
);
hints = (
{
origin = "{1, 18}";
target = "{1, 5}";
type = Stem;
},
{
origin = "{0, 12}";
target = "{0, 3}";
type = Stem;
}
);
layerId = "1D04CB99-59CD-4CDD-8259-0FDF24D9F847";
paths = (
{
closed = 1;
nodes = (
"412 386 LINE SMOOTH",
"592 510 OFFCURVE",
"662 584 OFFCURVE",
"662 662 CURVE SMOOTH",
"662 698 OFFCURVE",
"635 725 OFFCURVE",
"601 725 CURVE SMOOTH",
"583 725 OFFCURVE",
"563 719 OFFCURVE",
"550 709 CURVE",
"555 698 OFFCURVE",
"558 688 OFFCURVE",
"558 678 CURVE SMOOTH",
"558 590 OFFCURVE",
"496 518 OFFCURVE",
"287 362 CURVE SMOOTH",
"210 304 LINE",
"212 246 LINE"
);
},
{
closed = 1;
nodes = (
"198 -26 OFFCURVE",
"218 -20 OFFCURVE",
"243 -5 CURVE",
"229 13 OFFCURVE",
"221 41 OFFCURVE",
"221 74 CURVE SMOOTH",
"221 169 OFFCURVE",
"308 654 OFFCURVE",
"308 683 CURVE SMOOTH",
"308 712 OFFCURVE",
"296 726 OFFCURVE",
"272 726 CURVE SMOOTH",
"248 726 OFFCURVE",
"213 713 OFFCURVE",
"175 692 CURVE",
"201 642 LINE",
"139 264 OFFCURVE",
"120 124 OFFCURVE",
"120 42 CURVE SMOOTH",
"120 -6 OFFCURVE",
"138 -26 OFFCURVE",
"178 -26 CURVE SMOOTH"
);
},
{
closed = 1;
nodes = (
"601 -25 OFFCURVE",
"636 -13 OFFCURVE",
"649 2 CURVE",
"589 58 OFFCURVE",
"491 237 OFFCURVE",
"420 416 CURVE",
"339 362 LINE",
"440 148 LINE SMOOTH",
"507 1 OFFCURVE",
"527 -25 OFFCURVE",
"579 -25 CURVE SMOOTH"
);
}
);
width = 676;
},
{
anchors = (
{
name = bottom;
position = "{325, 0}";
},
{
name = top;
position = "{427, 710}";
}
);
hints = (
{
origin = "{1, 18}";
target = "{1, 5}";
type = Stem;
},
{
origin = "{0, 12}";
target = "{0, 3}";
type = Stem;
}
);
layerId = "CE369AAB-0FC9-4F25-BC24-38D80C2A37D0";
paths = (
{
closed = 1;
nodes = (
"416 378 LINE SMOOTH",
"601 499 OFFCURVE",
"676 577 OFFCURVE",
"676 657 CURVE SMOOTH",
"676 697 OFFCURVE",
"648 725 OFFCURVE",
"608 725 CURVE SMOOTH",
"585 725 OFFCURVE",
"559 717 OFFCURVE",
"539 703 CURVE",
"544 691 OFFCURVE",
"547 680 OFFCURVE",
"547 669 CURVE SMOOTH",
"547 586 OFFCURVE",
"487 513 OFFCURVE",
"301 375 CURVE SMOOTH",
"204 302 LINE",
"206 239 LINE"
);
},
{
closed = 1;
nodes = (
"204 -26 OFFCURVE",
"228 -18 OFFCURVE",
"256 0 CURVE",
"240 20 OFFCURVE",
"232 49 OFFCURVE",
"232 88 CURVE SMOOTH",
"232 179 OFFCURVE",
"317 636 OFFCURVE",
"317 673 CURVE SMOOTH",
"317 709 OFFCURVE",
"302 726 OFFCURVE",
"273 726 CURVE SMOOTH",
"241 726 OFFCURVE",
"199 711 OFFCURVE",
"154 684 CURVE",
"185 623 LINE",
"126 264 OFFCURVE",
"108 133 OFFCURVE",
"108 55 CURVE SMOOTH",
"108 -2 OFFCURVE",
"130 -26 OFFCURVE",
"179 -26 CURVE SMOOTH"
);
},
{
closed = 1;
nodes = (
"609 -25 OFFCURVE",
"650 -10 OFFCURVE",
"666 8 CURVE",
"604 62 OFFCURVE",
"511 237 OFFCURVE",
"442 422 CURVE",
"341 353 LINE",
"434 146 LINE SMOOTH",
"496 4 OFFCURVE",
"522 -25 OFFCURVE",
"582 -25 CURVE SMOOTH"
);
}
);
width = 688;
}
);
leftKerningGroup = H;
leftMetricsKey = H;
rightKerningGroup = K;
unicode = 004B;
},
{
color = 10;
glyphname = L;
layers = (
{
anchors = (
{
name = bottom;
position = "{277, 0}";
},
{
name = center;
position = "{477, 385}";
},
{
name = top;
position = "{247, 710}";
},
{
name = topright;
position = "{383, 610}";
}
);
hints = (
{
horizontal = 1;
origin = "{1, 13}";
target = "{1, 9}";
type = Stem;
},
{
origin = "{0, 18}";
target = "{0, 5}";
type = Stem;
}
);
layerId = "E79706D4-AD71-4087-AB75-377D41BAFC4F";
paths = (
{
closed = 1;
nodes = (
"229 -26 OFFCURVE",
"269 -12 OFFCURVE",
"306 19 CURVE",
"284 50 OFFCURVE",
"276 83 OFFCURVE",
"276 144 CURVE SMOOTH",
"276 221 OFFCURVE",
"353 564 OFFCURVE",
"353 632 CURVE SMOOTH",
"353 695 OFFCURVE",
"327 726 OFFCURVE",
"276 726 CURVE SMOOTH",
"215 726 OFFCURVE",
"144 701 OFFCURVE",
"70 653 CURVE",
"123 546 LINE",
"74 264 OFFCURVE",
"60 169 OFFCURVE",
"60 109 CURVE SMOOTH",
"60 14 OFFCURVE",
"96 -26 OFFCURVE",
"182 -26 CURVE SMOOTH"
);
},
{
closed = 1;
nodes = (
"489 -25 OFFCURVE",
"543 24 OFFCURVE",
"543 111 CURVE SMOOTH",
"543 138 OFFCURVE",
"539 157 OFFCURVE",
"532 175 CURVE",
"484 156 OFFCURVE",
"433 143 OFFCURVE",
"384 136 CURVE",
"260 136 LINE",
"211 14 LINE",
"288 -18 OFFCURVE",
"339 -25 OFFCURVE",
"393 -25 CURVE SMOOTH"
);
}
);
width = 553;
},
{
anchors = (
{
name = bottom;
position = "{270, 0}";
},
{
name = center;
position = "{410, 385}";
},
{
name = top;
position = "{240, 710}";
},
{
name = topright;
position = "{370, 610}";
}
);
hints = (
{
horizontal = 1;
origin = "{1, 13}";
target = "{1, 9}";
type = Stem;
},
{
origin = "{0, 18}";
target = "{0, 5}";
type = Stem;
}
);
layerId = "1D04CB99-59CD-4CDD-8259-0FDF24D9F847";
paths = (
{
closed = 1;
nodes = (
"208 -26 OFFCURVE",
"238 -15 OFFCURVE",
"273 10 CURVE",
"238 25 OFFCURVE",
"221 47 OFFCURVE",
"221 74 CURVE SMOOTH",
"221 169 OFFCURVE",
"308 654 OFFCURVE",
"308 683 CURVE SMOOTH",
"308 712 OFFCURVE",
"296 726 OFFCURVE",
"272 726 CURVE SMOOTH",
"245 726 OFFCURVE",
"210 713 OFFCURVE",
"175 692 CURVE",
"201 642 LINE",
"137 254 OFFCURVE",
"120 123 OFFCURVE",
"120 42 CURVE SMOOTH",
"120 -6 OFFCURVE",
"138 -26 OFFCURVE",
"178 -26 CURVE SMOOTH"
);
},
{
closed = 1;
nodes = (
"459 -25 OFFCURVE",
"500 -5 OFFCURVE",
"500 44 CURVE SMOOTH",
"500 54 OFFCURVE",
"499 61 OFFCURVE",
"492 82 CURVE",
"462 71 OFFCURVE",
"433 64 OFFCURVE",
"393 60 CURVE",
"188 60 LINE",
"157 26 LINE",
"198 -3 OFFCURVE",
"282 -25 OFFCURVE",
"363 -25 CURVE SMOOTH"
);
}
);
width = 540;
},
{
anchors = (
{
name = bottom;
position = "{271, 0}";
},
{
name = center;
position = "{423, 385}";
},
{
name = top;
position = "{241, 710}";
},
{
name = topright;
position = "{373, 610}";
}
);
hints = (
{
horizontal = 1;
origin = "{1, 13}";
target = "{1, 9}";
type = Stem;
},
{
origin = "{0, 18}";
target = "{0, 5}";
type = Stem;
}
);
layerId = "CE369AAB-0FC9-4F25-BC24-38D80C2A37D0";
paths = (
{
closed = 1;
nodes = (
"212 -26 OFFCURVE",
"244 -14 OFFCURVE",
"280 12 CURVE",
"247 30 OFFCURVE",
"232 54 OFFCURVE",
"232 88 CURVE SMOOTH",
"232 179 OFFCURVE",
"317 636 OFFCURVE",
"317 673 CURVE SMOOTH",
"317 709 OFFCURVE",
"302 726 OFFCURVE",
"273 726 CURVE SMOOTH",
"239 726 OFFCURVE",
"197 711 OFFCURVE",
"154 684 CURVE",
"185 623 LINE",
"124 256 OFFCURVE",
"108 132 OFFCURVE",
"108 55 CURVE SMOOTH",
"108 -2 OFFCURVE",
"130 -26 OFFCURVE",
"179 -26 CURVE SMOOTH"
);
},
{
closed = 1;
nodes = (
"465 -25 OFFCURVE",
"509 1 OFFCURVE",
"509 57 CURVE SMOOTH",
"509 71 OFFCURVE",
"507 80 OFFCURVE",
"500 101 CURVE",
"466 88 OFFCURVE",
"433 80 OFFCURVE",
"391 75 CURVE",
"202 75 LINE",
"168 24 LINE",
"216 -6 OFFCURVE",
"293 -25 OFFCURVE",
"369 -25 CURVE SMOOTH"
);
}
);
width = 543;
}
);
leftKerningGroup = H;
leftMetricsKey = H;
rightKerningGroup = L;
unicode = 004C;
},
{
color = 10;
glyphname = M;
layers = (
{
hints = (
{
horizontal = 1;
place = "{726, -20}";
target = down;
type = TopGhost;
},
{
horizontal = 1;
place = "{726, -216}";
type = Stem;
},
{
horizontal = 1;
place = "{720, -20}";
target = down;
type = TopGhost;
},
{
place = "{60, 216}";
type = Stem;
},
{
place = "{710, 216}";
type = Stem;
},
{
horizontal = 1;
place = "{-26, 21}";
target = up;
type = BottomGhost;
}
);
layerId = "E79706D4-AD71-4087-AB75-377D41BAFC4F";
paths = (
{
closed = 1;
nodes = (
"225 -26 OFFCURVE",
"265 -12 OFFCURVE",
"306 19 CURVE",
"286 51 OFFCURVE",
"276 96 OFFCURVE",
"276 164 CURVE SMOOTH",
"276 216 OFFCURVE",
"304 376 OFFCURVE",
"335 510 CURVE",
"345 510 LINE",
"366 125 OFFCURVE",
"405 41 OFFCURVE",
"478 41 CURVE SMOOTH",
"516 41 OFFCURVE",
"558 56 OFFCURVE",
"591 87 CURVE",
"603 203 OFFCURVE",
"662 387 OFFCURVE",
"759 510 CURVE",
"769 510 LINE",
"731 315 OFFCURVE",
"710 195 OFFCURVE",
"710 129 CURVE SMOOTH",
"710 25 OFFCURVE",
"742 -26 OFFCURVE",
"832 -26 CURVE SMOOTH",
"875 -26 OFFCURVE",
"915 -12 OFFCURVE",
"956 19 CURVE",
"936 51 OFFCURVE",
"926 96 OFFCURVE",
"926 164 CURVE SMOOTH",
"926 235 OFFCURVE",
"1003 550 OFFCURVE",
"1003 612 CURVE SMOOTH",
"1003 670 OFFCURVE",
"982 720 OFFCURVE",
"893 720 CURVE SMOOTH",
"686 720 OFFCURVE",
"566 456 OFFCURVE",
"516 293 CURVE",
"504 293 LINE",
"472 665 OFFCURVE",
"405 726 OFFCURVE",
"276 726 CURVE SMOOTH",
"205 726 OFFCURVE",
"132 693 OFFCURVE",
"70 653 CURVE",
"123 546 LINE",
"83 325 OFFCURVE",
"60 196 OFFCURVE",
"60 129 CURVE SMOOTH",
"60 25 OFFCURVE",
"92 -26 OFFCURVE",
"182 -26 CURVE SMOOTH"
);
}
);
width = 1033;
},
{
associatedMasterId = "E79706D4-AD71-4087-AB75-377D41BAFC4F";
hints = (
{
horizontal = 1;
place = "{726, -20}";
target = down;
type = TopGhost;
},
{
horizontal = 1;
place = "{726, -216}";
type = Stem;
},
{
horizontal = 1;
place = "{720, -20}";
target = down;
type = TopGhost;
},
{
place = "{60, 216}";
type = Stem;
},
{
place = "{710, 216}";
type = Stem;
},
{
horizontal = 1;
place = "{-26, 21}";
target = up;
type = BottomGhost;
}
);
layerId = "D67B66B7-4B97-49EC-B6F1-997388DBB96E";
name = "Jun 15 17, 02:08";
paths = (
{
closed = 1;
nodes = (
"225 -27 OFFCURVE",
"265 -13 OFFCURVE",
"306 18 CURVE",
"286 50 OFFCURVE",
"276 95 OFFCURVE",
"276 163 CURVE",
"276 221 OFFCURVE",
"311 417 OFFCURVE",
"347 558 CURVE",
"269 509 LINE",
"411 509 LINE",
"340 613 LINE",
"360 139 OFFCURVE",
"399 40 OFFCURVE",
"478 40 CURVE",
"516 40 OFFCURVE",
"558 55 OFFCURVE",
"591 86 CURVE",
"604 213 OFFCURVE",
"674 422 OFFCURVE",
"788 542 CURVE",
"693 509 LINE",
"835 509 LINE",
"783 578 LINE",
"736 342 OFFCURVE",
"710 201 OFFCURVE",
"710 128 CURVE",
"710 24 OFFCURVE",
"742 -27 OFFCURVE",
"832 -27 CURVE",
"875 -27 OFFCURVE",
"915 -13 OFFCURVE",
"956 18 CURVE",
"936 50 OFFCURVE",
"926 95 OFFCURVE",
"926 163 CURVE",
"926 234 OFFCURVE",
"1003 549 OFFCURVE",
"1003 611 CURVE",
"1003 669 OFFCURVE",
"982 719 OFFCURVE",
"893 719 CURVE",
"671 719 OFFCURVE",
"549 416 OFFCURVE",
"506 258 CURVE",
"582 292 LINE",
"438 292 LINE",
"511 196 LINE",
"482 654 OFFCURVE",
"415 725 OFFCURVE",
"276 725 CURVE",
"205 725 OFFCURVE",
"132 692 OFFCURVE",
"70 652 CURVE",
"152 486 LINE",
"136 617 LINE",
"88 351 OFFCURVE",
"60 202 OFFCURVE",
"60 128 CURVE",
"60 24 OFFCURVE",
"92 -27 OFFCURVE",
"182 -27 CURVE"
);
}
);
width = 1033;
},
{
associatedMasterId = "1D04CB99-59CD-4CDD-8259-0FDF24D9F847";
hints = (
{
horizontal = 1;
place = "{726, -20}";
target = down;
type = TopGhost;
},
{
horizontal = 1;
place = "{726, -132}";
type = Stem;
},
{
horizontal = 1;
place = "{728, -20}";
target = down;
type = TopGhost;
},
{
place = "{123, 99}";
type = Stem;
},
{
place = "{782, 99}";
type = Stem;
},
{
horizontal = 1;
place = "{-26, 21}";
target = up;
type = BottomGhost;
}
);
layerId = "F3A3EC43-F3D3-4801-B38E-A9C4B38D32DE";
name = "Jun 15 17, 02:08";
paths = (
{
closed = 1;
nodes = (
"860 -28 OFFCURVE",
"881 -21 OFFCURVE",
"904 -7 CURVE",
"888 11 OFFCURVE",
"881 33 OFFCURVE",
"881 62 CURVE SMOOTH",
"881 160 OFFCURVE",
"966 660 OFFCURVE",
"966 692 CURVE SMOOTH",
"966 723 OFFCURVE",
"951 728 OFFCURVE",
"944 728 CURVE SMOOTH",
"786 728 OFFCURVE",
"570 421 OFFCURVE",
"504 110 CURVE",
"536 131 LINE",
"471 131 LINE",
"507 90 LINE",
"385 639 OFFCURVE",
"389 726 OFFCURVE",
"270 726 CURVE SMOOTH",
"249 726 OFFCURVE",
"215 717 OFFCURVE",
"175 692 CURVE",
"213 618 LINE",
"207 679 LINE",
"137 230 OFFCURVE",
"123 111 OFFCURVE",
"123 32 CURVE SMOOTH",
"123 -11 OFFCURVE",
"143 -26 OFFCURVE",
"181 -26 CURVE SMOOTH",
"201 -26 OFFCURVE",
"222 -20 OFFCURVE",
"245 -5 CURVE",
"229 12 OFFCURVE",
"222 35 OFFCURVE",
"222 64 CURVE SMOOTH",
"222 139 OFFCURVE",
"270 429 OFFCURVE",
"294 612 CURVE",
"265 594 LINE",
"324 594 LINE",
"286 640 LINE",
"417 78 OFFCURVE",
"414 41 OFFCURVE",
"505 41 CURVE SMOOTH",
"530 41 OFFCURVE",
"558 52 OFFCURVE",
"581 72 CURVE",
"601 187 OFFCURVE",
"700 488 OFFCURVE",
"862 605 CURVE",
"821 594 LINE",
"880 594 LINE",
"859 629 LINE",
"795 229 OFFCURVE",
"782 110 OFFCURVE",
"782 30 CURVE SMOOTH",
"782 -13 OFFCURVE",
"802 -28 OFFCURVE",
"838 -28 CURVE SMOOTH"
);
}
);
width = 1031;
},
{
associatedMasterId = "1D04CB99-59CD-4CDD-8259-0FDF24D9F847";
hints = (
{
horizontal = 1;
place = "{726, -20}";
target = down;
type = TopGhost;
},
{
horizontal = 1;
place = "{726, -216}";
type = Stem;
},
{
horizontal = 1;
place = "{720, -20}";
target = down;
type = TopGhost;
},
{
place = "{60, 216}";
type = Stem;
},
{
place = "{710, 216}";
type = Stem;
},
{
horizontal = 1;
place = "{-26, 21}";
target = up;
type = BottomGhost;
}
);
layerId = "A4E88B8E-933B-4045-9FF1-D28B6D311CA5";
name = "Jun 15 17, 02:08";
paths = (
{
closed = 1;
nodes = (
"225 -27 OFFCURVE",
"265 -13 OFFCURVE",
"306 18 CURVE",
"286 50 OFFCURVE",
"276 95 OFFCURVE",
"276 163 CURVE",
"276 221 OFFCURVE",
"311 417 OFFCURVE",
"347 558 CURVE",
"269 509 LINE",
"411 509 LINE",
"340 613 LINE",
"360 139 OFFCURVE",
"399 40 OFFCURVE",
"478 40 CURVE",
"516 40 OFFCURVE",
"558 55 OFFCURVE",
"591 86 CURVE",
"604 213 OFFCURVE",
"674 422 OFFCURVE",
"788 542 CURVE",
"693 509 LINE",
"835 509 LINE",
"783 578 LINE",
"736 342 OFFCURVE",
"710 201 OFFCURVE",
"710 128 CURVE",
"710 24 OFFCURVE",
"742 -27 OFFCURVE",
"832 -27 CURVE",
"875 -27 OFFCURVE",
"915 -13 OFFCURVE",
"956 18 CURVE",
"936 50 OFFCURVE",
"926 95 OFFCURVE",
"926 163 CURVE",
"926 234 OFFCURVE",
"1003 549 OFFCURVE",
"1003 611 CURVE",
"1003 669 OFFCURVE",
"982 719 OFFCURVE",
"893 719 CURVE",
"671 719 OFFCURVE",
"549 416 OFFCURVE",
"506 258 CURVE",
"582 292 LINE",
"438 292 LINE",
"511 196 LINE",
"482 654 OFFCURVE",
"415 725 OFFCURVE",
"276 725 CURVE",
"205 725 OFFCURVE",
"132 692 OFFCURVE",
"70 652 CURVE",
"152 486 LINE",
"136 617 LINE",
"88 351 OFFCURVE",
"60 202 OFFCURVE",
"60 128 CURVE",
"60 24 OFFCURVE",
"92 -27 OFFCURVE",
"182 -27 CURVE"
);
}
);
width = 1033;
},
{
hints = (
{
horizontal = 1;
place = "{726, -20}";
target = down;
type = TopGhost;
},
{
horizontal = 1;
place = "{726, -132}";
type = Stem;
},
{
horizontal = 1;
place = "{728, -20}";
target = down;
type = TopGhost;
},
{
place = "{123, 99}";
type = Stem;
},
{
place = "{782, 99}";
type = Stem;
},
{
horizontal = 1;
place = "{-26, 21}";
target = up;
type = BottomGhost;
}
);
layerId = "1D04CB99-59CD-4CDD-8259-0FDF24D9F847";
paths = (
{
closed = 1;
nodes = (
"198 -26 OFFCURVE",
"219 -20 OFFCURVE",
"242 -5 CURVE",
"226 12 OFFCURVE",
"219 35 OFFCURVE",
"219 64 CURVE SMOOTH",
"219 137 OFFCURVE",
"264 411 OFFCURVE",
"289 594 CURVE",
"294 594 LINE",
"414 76 OFFCURVE",
"414 41 OFFCURVE",
"502 41 CURVE SMOOTH",
"527 41 OFFCURVE",
"555 52 OFFCURVE",
"578 72 CURVE",
"597 184 OFFCURVE",
"691 471 OFFCURVE",
"845 594 CURVE",
"850 594 LINE",
"791 222 OFFCURVE",
"779 108 OFFCURVE",
"779 30 CURVE SMOOTH",
"779 -13 OFFCURVE",
"799 -28 OFFCURVE",
"835 -28 CURVE SMOOTH",
"857 -28 OFFCURVE",
"878 -21 OFFCURVE",
"901 -7 CURVE",
"885 11 OFFCURVE",
"878 33 OFFCURVE",
"878 62 CURVE SMOOTH",
"878 160 OFFCURVE",
"963 660 OFFCURVE",
"963 692 CURVE SMOOTH",
"963 723 OFFCURVE",
"948 728 OFFCURVE",
"941 728 CURVE SMOOTH",
"787 728 OFFCURVE",
"577 435 OFFCURVE",
"506 131 CURVE",
"495 131 LINE",
"382 643 OFFCURVE",
"383 726 OFFCURVE",
"267 726 CURVE SMOOTH",
"246 726 OFFCURVE",
"212 717 OFFCURVE",
"172 692 CURVE",
"198 642 LINE",
"133 223 OFFCURVE",
"120 109 OFFCURVE",
"120 32 CURVE SMOOTH",
"120 -11 OFFCURVE",
"140 -26 OFFCURVE",
"178 -26 CURVE SMOOTH"
);
}
);
width = 1024;
},
{
associatedMasterId = "1D04CB99-59CD-4CDD-8259-0FDF24D9F847";
hints = (
{
horizontal = 1;
place = "{726, -20}";
target = down;
type = TopGhost;
},
{
horizontal = 1;
place = "{726, -132}";
type = Stem;
},
{
horizontal = 1;
place = "{728, -20}";
target = down;
type = TopGhost;
},
{
place = "{123, 99}";
type = Stem;
},
{
place = "{782, 99}";
type = Stem;
},
{
horizontal = 1;
place = "{-26, 21}";
target = up;
type = BottomGhost;
}
);
layerId = "8F2642E3-B77E-4A92-AED8-28FABE9B0BA9";
name = "Jun 15 17, 02:08";
paths = (
{
closed = 1;
nodes = (
"860 -28 OFFCURVE",
"881 -21 OFFCURVE",
"904 -7 CURVE",
"888 11 OFFCURVE",
"881 33 OFFCURVE",
"881 62 CURVE SMOOTH",
"881 160 OFFCURVE",
"966 660 OFFCURVE",
"966 692 CURVE SMOOTH",
"966 723 OFFCURVE",
"951 728 OFFCURVE",
"944 728 CURVE SMOOTH",
"786 728 OFFCURVE",
"570 421 OFFCURVE",
"504 110 CURVE",
"536 131 LINE",
"471 131 LINE",
"507 90 LINE",
"385 639 OFFCURVE",
"389 726 OFFCURVE",
"270 726 CURVE SMOOTH",
"249 726 OFFCURVE",
"215 717 OFFCURVE",
"175 692 CURVE",
"213 618 LINE",
"207 679 LINE",
"137 230 OFFCURVE",
"123 111 OFFCURVE",
"123 32 CURVE SMOOTH",
"123 -11 OFFCURVE",
"143 -26 OFFCURVE",
"181 -26 CURVE SMOOTH",
"201 -26 OFFCURVE",
"222 -20 OFFCURVE",
"245 -5 CURVE",
"229 12 OFFCURVE",
"222 35 OFFCURVE",
"222 64 CURVE SMOOTH",
"222 139 OFFCURVE",
"270 429 OFFCURVE",
"294 612 CURVE",
"265 594 LINE",
"324 594 LINE",
"286 640 LINE",
"417 78 OFFCURVE",
"414 41 OFFCURVE",
"505 41 CURVE SMOOTH",
"530 41 OFFCURVE",
"558 52 OFFCURVE",
"581 72 CURVE",
"601 187 OFFCURVE",
"700 488 OFFCURVE",
"862 605 CURVE",
"821 594 LINE",
"880 594 LINE",
"859 629 LINE",
"795 229 OFFCURVE",
"782 110 OFFCURVE",
"782 30 CURVE SMOOTH",
"782 -13 OFFCURVE",
"802 -28 OFFCURVE",
"838 -28 CURVE SMOOTH"
);
}
);
width = 1031;
},
{
hints = (
{
horizontal = 1;
place = "{727.6, -20}";
target = down;
type = TopGhost;
},
{
horizontal = 1;
place = "{770.8, 36}";
type = Stem;
},
{
horizontal = 1;
place = "{724.8, -20}";
target = down;
type = TopGhost;
},
{
place = "{110.4, 122.4}";
type = Stem;
},
{
place = "{722.8, -62.4}";
type = Stem;
},
{
horizontal = 1;
place = "{-26, 21}";
target = up;
type = BottomGhost;
}
);
layerId = "CE369AAB-0FC9-4F25-BC24-38D80C2A37D0";
paths = (
{
closed = 1;
nodes = (
"204 -26 OFFCURVE",
"229 -18 OFFCURVE",
"255 0 CURVE",
"238 20 OFFCURVE",
"231 47 OFFCURVE",
"231 84 CURVE SMOOTH",
"231 153 OFFCURVE",
"272 404 OFFCURVE",
"299 577 CURVE",
"305 577 LINE",
"405 86 OFFCURVE",
"413 41 OFFCURVE",
"498 41 CURVE SMOOTH",
"525 41 OFFCURVE",
"556 53 OFFCURVE",
"581 75 CURVE",
"599 188 OFFCURVE",
"686 454 OFFCURVE",
"828 577 CURVE",
"834 577 LINE",
"779 241 OFFCURVE",
"766 125 OFFCURVE",
"766 50 CURVE SMOOTH",
"766 -5 OFFCURVE",
"788 -28 OFFCURVE",
"835 -28 CURVE SMOOTH",
"861 -28 OFFCURVE",
"886 -19 OFFCURVE",
"912 -2 CURVE",
"896 19 OFFCURVE",
"888 46 OFFCURVE",
"888 82 CURVE SMOOTH",
"888 175 OFFCURVE",
"971 638 OFFCURVE",
"971 676 CURVE SMOOTH",
"971 712 OFFCURVE",
"955 726 OFFCURVE",
"932 726 CURVE SMOOTH",
"767 726 OFFCURVE",
"575 439 OFFCURVE",
"508 163 CURVE",
"497 163 LINE",
"400 647 OFFCURVE",
"388 726 OFFCURVE",
"269 726 CURVE SMOOTH",
"238 726 OFFCURVE",
"196 712 OFFCURVE",
"152 684 CURVE",
"183 623 LINE",
"123 243 OFFCURVE",
"108 126 OFFCURVE",
"108 51 CURVE SMOOTH",
"108 -4 OFFCURVE",
"131 -26 OFFCURVE",
"179 -26 CURVE SMOOTH"
);
}
);
width = 1026;
}
);
leftKerningGroup = M;
leftMetricsKey = H;
rightKerningGroup = M;
rightMetricsKey = H;
unicode = 004D;
},
{
color = 10;
glyphname = N;
layers = (
{
anchors = (
{
name = bottom;
position = "{370, 0}";
},
{
name = top;
position = "{495, 710}";
}
);
hints = (
{
origin = "{1, 18}";
target = "{1, 5}";
type = Stem;
},
{
origin = "{2, 18}";
target = "{2, 5}";
type = Stem;
}
);
layerId = "E79706D4-AD71-4087-AB75-377D41BAFC4F";
paths = (
{
closed = 1;
nodes = (
"654 243 LINE",
"544 243 LINE",
"477 653 OFFCURVE",
"436 726 OFFCURVE",
"276 726 CURVE",
"289 546 LINE",
"353 546 LINE",
"430 77 OFFCURVE",
"486 -26 OFFCURVE",
"663 -25 CURVE"
);
},
{
closed = 1;
nodes = (
"227 -26 OFFCURVE",
"267 -12 OFFCURVE",
"306 19 CURVE",
"284 50 OFFCURVE",
"276 83 OFFCURVE",
"276 144 CURVE SMOOTH",
"276 221 OFFCURVE",
"353 564 OFFCURVE",
"353 632 CURVE SMOOTH",
"353 695 OFFCURVE",
"327 726 OFFCURVE",
"276 726 CURVE SMOOTH",
"215 726 OFFCURVE",
"144 701 OFFCURVE",
"70 653 CURVE",
"123 546 LINE",
"72 253 OFFCURVE",
"60 167 OFFCURVE",
"60 109 CURVE SMOOTH",
"60 14 OFFCURVE",
"96 -26 OFFCURVE",
"182 -26 CURVE SMOOTH"
);
},
{
closed = 1;
nodes = (
"708 -25 OFFCURVE",
"748 -11 OFFCURVE",
"787 20 CURVE",
"765 51 OFFCURVE",
"757 84 OFFCURVE",
"757 145 CURVE SMOOTH",
"757 222 OFFCURVE",
"834 565 OFFCURVE",
"834 633 CURVE SMOOTH",
"834 696 OFFCURVE",
"808 727 OFFCURVE",
"757 727 CURVE SMOOTH",
"699 727 OFFCURVE",
"631 702 OFFCURVE",
"561 654 CURVE",
"604 547 LINE",
"553 254 OFFCURVE",
"541 168 OFFCURVE",
"541 110 CURVE SMOOTH",
"541 15 OFFCURVE",
"577 -25 OFFCURVE",
"663 -25 CURVE SMOOTH"
);
}
);
width = 864;
},
{
anchors = (
{
name = bottom;
position = "{373, 0}";
},
{
name = top;
position = "{498, 710}";
}
);
hints = (
{
origin = "{1, 18}";
target = "{1, 5}";
type = Stem;
},
{
origin = "{2, 18}";
target = "{2, 5}";
type = Stem;
}
);
layerId = "1D04CB99-59CD-4CDD-8259-0FDF24D9F847";
paths = (
{
closed = 1;
nodes = (
"652 83 LINE",
"584 84 LINE",
"399 656 OFFCURVE",
"365 726 OFFCURVE",
"271 726 CURVE",
"263 624 LINE",
"305 624 LINE",
"497 29 OFFCURVE",
"526 -26 OFFCURVE",
"648 -27 CURVE"
);
},
{
closed = 1;
nodes = (
"199 -26 OFFCURVE",
"219 -20 OFFCURVE",
"243 -5 CURVE",
"229 13 OFFCURVE",
"221 41 OFFCURVE",
"221 74 CURVE SMOOTH",
"221 169 OFFCURVE",
"308 654 OFFCURVE",
"308 683 CURVE SMOOTH",
"308 712 OFFCURVE",
"296 726 OFFCURVE",
"272 726 CURVE SMOOTH",
"245 726 OFFCURVE",
"210 713 OFFCURVE",
"175 692 CURVE",
"201 642 LINE",
"138 259 OFFCURVE",
"120 124 OFFCURVE",
"120 42 CURVE SMOOTH",
"120 -6 OFFCURVE",
"138 -26 OFFCURVE",
"178 -26 CURVE SMOOTH"
);
},
{
closed = 1;
nodes = (
"669 -27 OFFCURVE",
"689 -20 OFFCURVE",
"713 -6 CURVE",
"699 12 OFFCURVE",
"691 41 OFFCURVE",
"691 73 CURVE SMOOTH",
"691 168 OFFCURVE",
"778 654 OFFCURVE",
"778 683 CURVE SMOOTH",
"778 711 OFFCURVE",
"766 726 OFFCURVE",
"742 726 CURVE SMOOTH",
"714 726 OFFCURVE",
"677 713 OFFCURVE",
"640 692 CURVE",
"671 642 LINE",
"608 259 OFFCURVE",
"590 123 OFFCURVE",
"590 41 CURVE SMOOTH",
"590 -6 OFFCURVE",
"608 -27 OFFCURVE",
"648 -27 CURVE SMOOTH"
);
}
);
width = 839;
},
{
anchors = (
{
name = bottom;
position = "{372, 0}";
},
{
name = top;
position = "{497, 710}";
}
);
hints = (
{
origin = "{1, 18}";
target = "{1, 5}";
type = Stem;
},
{
origin = "{2, 18}";
target = "{2, 5}";
type = Stem;
}
);
layerId = "CE369AAB-0FC9-4F25-BC24-38D80C2A37D0";
paths = (
{
closed = 1;
nodes = (
"652 115 LINE",
"576 116 LINE",
"415 655 OFFCURVE",
"379 726 OFFCURVE",
"272 726 CURVE",
"268 608 LINE",
"315 608 LINE",
"484 39 OFFCURVE",
"518 -26 OFFCURVE",
"651 -27 CURVE"
);
},
{
closed = 1;
nodes = (
"205 -26 OFFCURVE",
"229 -18 OFFCURVE",
"256 0 CURVE",
"240 20 OFFCURVE",
"232 49 OFFCURVE",
"232 88 CURVE SMOOTH",
"232 179 OFFCURVE",
"317 636 OFFCURVE",
"317 673 CURVE SMOOTH",
"317 709 OFFCURVE",
"302 726 OFFCURVE",
"273 726 CURVE SMOOTH",
"239 726 OFFCURVE",
"197 711 OFFCURVE",
"154 684 CURVE",
"185 623 LINE",
"125 258 OFFCURVE",
"108 133 OFFCURVE",
"108 55 CURVE SMOOTH",
"108 -2 OFFCURVE",
"130 -26 OFFCURVE",
"179 -26 CURVE SMOOTH"
);
},
{
closed = 1;
nodes = (
"677 -27 OFFCURVE",
"701 -18 OFFCURVE",
"728 -1 CURVE",
"712 20 OFFCURVE",
"704 50 OFFCURVE",
"704 87 CURVE SMOOTH",
"704 179 OFFCURVE",
"789 636 OFFCURVE",
"789 673 CURVE SMOOTH",
"789 708 OFFCURVE",
"774 726 OFFCURVE",
"745 726 CURVE SMOOTH",
"711 726 OFFCURVE",
"668 711 OFFCURVE",
"624 684 CURVE",
"658 623 LINE",
"597 258 OFFCURVE",
"580 132 OFFCURVE",
"580 55 CURVE SMOOTH",
"580 -2 OFFCURVE",
"602 -27 OFFCURVE",
"651 -27 CURVE SMOOTH"
);
}
);
width = 844;
}
);
leftKerningGroup = H;
leftMetricsKey = H;
rightKerningGroup = H;
rightMetricsKey = H;
unicode = 004E;
},
{
color = 10;
glyphname = Eng;
layers = (
{
hints = (
{
horizontal = 1;
origin = "{1, 15}";
target = "{2, 4}";
type = Stem;
},
{
origin = "{1, 18}";
target = "{1, 5}";
type = Stem;
},
{
origin = "{2, 1}";
target = "{0, 3}";
type = Stem;
}
);
layerId = "E79706D4-AD71-4087-AB75-377D41BAFC4F";
paths = (
{
closed = 1;
nodes = (
"591 -240 OFFCURVE",
"705 -109 OFFCURVE",
"772 268 CURVE SMOOTH",
"796 402 OFFCURVE",
"834 585 OFFCURVE",
"834 633 CURVE SMOOTH",
"834 696 OFFCURVE",
"808 727 OFFCURVE",
"757 727 CURVE SMOOTH",
"699 727 OFFCURVE",
"631 702 OFFCURVE",
"561 654 CURVE",
"604 547 LINE",
"537 150 LINE SMOOTH",
"510 -16 OFFCURVE",
"434 -114 OFFCURVE",
"221 -114 CURVE",
"221 -207 OFFCURVE",
"313 -240 OFFCURVE",
"375 -240 CURVE SMOOTH"
);
},
{
closed = 1;
nodes = (
"227 -26 OFFCURVE",
"267 -12 OFFCURVE",
"306 19 CURVE",
"284 50 OFFCURVE",
"276 83 OFFCURVE",
"276 144 CURVE SMOOTH",
"276 221 OFFCURVE",
"353 564 OFFCURVE",
"353 632 CURVE SMOOTH",
"353 695 OFFCURVE",
"327 726 OFFCURVE",
"276 726 CURVE SMOOTH",
"215 726 OFFCURVE",
"144 701 OFFCURVE",
"70 653 CURVE",
"123 546 LINE",
"72 253 OFFCURVE",
"60 167 OFFCURVE",
"60 109 CURVE SMOOTH",
"60 14 OFFCURVE",
"96 -26 OFFCURVE",
"182 -26 CURVE SMOOTH"
);
},
{
closed = 1;
nodes = (
"654 243 LINE",
"544 243 LINE",
"477 653 OFFCURVE",
"436 726 OFFCURVE",
"276 726 CURVE",
"289 546 LINE",
"353 546 LINE",
"430 77 OFFCURVE",
"486 -26 OFFCURVE",
"663 -25 CURVE"
);
}
);
width = 894;
},
{
hints = (
{
horizontal = 1;
origin = "{1, 15}";
target = "{2, 4}";
type = Stem;
},
{
origin = "{1, 18}";
target = "{1, 5}";
type = Stem;
},
{
origin = "{2, 1}";
target = "{0, 3}";
type = Stem;
}
);
layerId = "1D04CB99-59CD-4CDD-8259-0FDF24D9F847";
paths = (
{
closed = 1;
nodes = (
"578 -240 OFFCURVE",
"665 -79 OFFCURVE",
"708 222 CURVE SMOOTH",
"735 402 OFFCURVE",
"779 662 OFFCURVE",
"779 683 CURVE SMOOTH",
"779 711 OFFCURVE",
"766 726 OFFCURVE",
"742 726 CURVE SMOOTH",
"714 726 OFFCURVE",
"678 713 OFFCURVE",
"641 692 CURVE",
"672 642 LINE",
"623 281 LINE SMOOTH",
"569 -82 OFFCURVE",
"503 -174 OFFCURVE",
"296 -174 CURVE",
"296 -207 OFFCURVE",
"336 -240 OFFCURVE",
"390 -240 CURVE SMOOTH"
);
},
{
closed = 1;
nodes = (
"199 -26 OFFCURVE",
"219 -20 OFFCURVE",
"243 -5 CURVE",
"229 13 OFFCURVE",
"221 41 OFFCURVE",
"221 74 CURVE SMOOTH",
"221 169 OFFCURVE",
"308 654 OFFCURVE",
"308 683 CURVE SMOOTH",
"308 712 OFFCURVE",
"296 726 OFFCURVE",
"272 726 CURVE SMOOTH",
"245 726 OFFCURVE",
"210 713 OFFCURVE",
"175 692 CURVE",
"201 642 LINE",
"138 259 OFFCURVE",
"120 124 OFFCURVE",
"120 42 CURVE SMOOTH",
"120 -6 OFFCURVE",
"138 -26 OFFCURVE",
"178 -26 CURVE SMOOTH"
);
},
{
closed = 1;
nodes = (
"645 83 LINE",
"577 84 LINE",
"394 656 OFFCURVE",
"362 726 OFFCURVE",
"271 726 CURVE",
"263 624 LINE",
"305 624 LINE",
"494 29 OFFCURVE",
"522 -26 OFFCURVE",
"640 -27 CURVE"
);
}
);
width = 870;
},
{
hints = (
{
horizontal = 1;
origin = "{1, 15}";
target = "{2, 4}";
type = Stem;
},
{
origin = "{1, 18}";
target = "{1, 5}";
type = Stem;
},
{
origin = "{2, 1}";
target = "{0, 3}";
type = Stem;
}
);
layerId = "CE369AAB-0FC9-4F25-BC24-38D80C2A37D0";
paths = (
{
closed = 1;
nodes = (
"581 -240 OFFCURVE",
"673 -85 OFFCURVE",
"721 231 CURVE SMOOTH",
"747 402 OFFCURVE",
"790 647 OFFCURVE",
"790 673 CURVE SMOOTH",
"790 708 OFFCURVE",
"774 726 OFFCURVE",
"745 726 CURVE SMOOTH",
"711 726 OFFCURVE",
"669 711 OFFCURVE",
"625 684 CURVE",
"658 623 LINE",
"606 255 LINE SMOOTH",
"557 -69 OFFCURVE",
"489 -162 OFFCURVE",
"281 -162 CURVE",
"281 -207 OFFCURVE",
"331 -240 OFFCURVE",
"387 -240 CURVE SMOOTH"
);
},
{
closed = 1;
nodes = (
"205 -26 OFFCURVE",
"229 -18 OFFCURVE",
"256 0 CURVE",
"240 20 OFFCURVE",
"232 49 OFFCURVE",
"232 88 CURVE SMOOTH",
"232 179 OFFCURVE",
"317 636 OFFCURVE",
"317 673 CURVE SMOOTH",
"317 709 OFFCURVE",
"302 726 OFFCURVE",
"273 726 CURVE SMOOTH",
"239 726 OFFCURVE",
"197 711 OFFCURVE",
"154 684 CURVE",
"185 623 LINE",
"125 258 OFFCURVE",
"108 133 OFFCURVE",
"108 55 CURVE SMOOTH",
"108 -2 OFFCURVE",
"130 -26 OFFCURVE",
"179 -26 CURVE SMOOTH"
);
},
{
closed = 1;
nodes = (
"647 115 LINE",
"570 116 LINE",
"411 655 OFFCURVE",
"377 726 OFFCURVE",
"272 726 CURVE",
"268 608 LINE",
"315 608 LINE",
"481 39 OFFCURVE",
"515 -26 OFFCURVE",
"645 -27 CURVE"
);
}
);
width = 875;
}
);
leftKerningGroup = Eng;
leftMetricsKey = N;
rightKerningGroup = Eng;
rightMetricsKey = "=N+30";
unicode = 014A;
},
{
color = 10;
glyphname = O;
layers = (
{
anchors = (
{
name = bottom;
position = "{349, 0}";
},
{
name = center;
position = "{437, 355}";
},
{
name = ogonek;
position = "{526, 10}";
},
{
name = top;
position = "{461, 710}";
},
{
name = topleft;
position = "{25, 710}";
},
{
name = topright;
position = "{611, 622}";
}
);
hints = (
{
horizontal = 1;
origin = "{0, 35}";
target = "{0, 14}";
type = Stem;
},
{
horizontal = 1;
origin = "{0, 20}";
target = "{0, 29}";
type = Stem;
},
{
origin = "{0, 32}";
target = "{0, 17}";
type = Stem;
},
{
origin = "{0, 11}";
target = "{0, 2}";
type = Stem;
}
);
layerId = "E79706D4-AD71-4087-AB75-377D41BAFC4F";
paths = (
{
closed = 1;
nodes = (
"579 -25 OFFCURVE",
"753 167 OFFCURVE",
"753 424 CURVE SMOOTH",
"753 547 OFFCURVE",
"701 622 OFFCURVE",
"611 622 CURVE SMOOTH",
"537 622 OFFCURVE",
"482 563 OFFCURVE",
"482 487 CURVE",
"482 412 OFFCURVE",
"515 341 OFFCURVE",
"612 296 CURVE",
"591 169 OFFCURVE",
"493 81 OFFCURVE",
"394 81 CURVE SMOOTH",
"306 81 OFFCURVE",
"248 149 OFFCURVE",
"248 283 CURVE SMOOTH",
"248 441 OFFCURVE",
"334 575 OFFCURVE",
"469 575 CURVE SMOOTH",
"486 575 OFFCURVE",
"513 571 OFFCURVE",
"527 567 CURVE",
"538 591 OFFCURVE",
"541 605 OFFCURVE",
"541 629 CURVE SMOOTH",
"541 695 OFFCURVE",
"506 725 OFFCURVE",
"416 725 CURVE SMOOTH",
"213 725 OFFCURVE",
"30 550 OFFCURVE",
"30 283 CURVE SMOOTH",
"30 101 OFFCURVE",
"154 -25 OFFCURVE",
"346 -25 CURVE SMOOTH"
);
}
);
width = 773;
},
{
anchors = (
{
name = bottom;
position = "{357, 0}";
},
{
name = center;
position = "{407, 355}";
},
{
name = ogonek;
position = "{498, 10}";
},
{
name = top;
position = "{485, 710}";
},
{
name = topleft;
position = "{24, 710}";
},
{
name = topright;
position = "{610, 610}";
}
);
hints = (
{
horizontal = 1;
origin = "{0, 35}";
target = "{0, 14}";
type = Stem;
},
{
horizontal = 1;
origin = "{0, 20}";
target = "{0, 29}";
type = Stem;
},
{
origin = "{0, 32}";
target = "{0, 17}";
type = Stem;
},
{
origin = "{0, 11}";
target = "{0, 2}";
type = Stem;
}
);
layerId = "1D04CB99-59CD-4CDD-8259-0FDF24D9F847";
paths = (
{
closed = 1;
nodes = (
"551 -25 OFFCURVE",
"710 182 OFFCURVE",
"710 445 CURVE SMOOTH",
"710 547 OFFCURVE",
"673 610 OFFCURVE",
"610 610 CURVE SMOOTH",
"558 610 OFFCURVE",
"520 563 OFFCURVE",
"520 501 CURVE SMOOTH",
"520 441 OFFCURVE",
"542 382 OFFCURVE",
"626 346 CURVE",
"603 157 OFFCURVE",
"466 36 OFFCURVE",
"355 36 CURVE SMOOTH",
"242 36 OFFCURVE",
"167 118 OFFCURVE",
"167 286 CURVE SMOOTH",
"167 510 OFFCURVE",
"301 650 OFFCURVE",
"465 650 CURVE SMOOTH",
"482 650 OFFCURVE",
"509 646 OFFCURVE",
"524 642 CURVE",
"529 654 OFFCURVE",
"531 662 OFFCURVE",
"531 674 CURVE SMOOTH",
"531 709 OFFCURVE",
"500 725 OFFCURVE",
"440 725 CURVE SMOOTH",
"236 725 OFFCURVE",
"60 556 OFFCURVE",
"60 280 CURVE SMOOTH",
"60 94 OFFCURVE",
"168 -25 OFFCURVE",
"334 -25 CURVE SMOOTH"
);
}
);
width = 737;
},
{
anchors = (
{
name = bottom;
position = "{355, 0}";
},
{
name = center;
position = "{413, 355}";
},
{
name = ogonek;
position = "{504, 10}";
},
{
name = top;
position = "{480, 710}";
},
{
name = topleft;
position = "{24, 710}";
},
{
name = topright;
position = "{610, 612}";
}
);
hints = (
{
horizontal = 1;
origin = "{0, 35}";
target = "{0, 14}";
type = Stem;
},
{
horizontal = 1;
origin = "{0, 20}";
target = "{0, 29}";
type = Stem;
},
{
origin = "{0, 32}";
target = "{0, 17}";
type = Stem;
},
{
origin = "{0, 11}";
target = "{0, 2}";
type = Stem;
}
);
layerId = "CE369AAB-0FC9-4F25-BC24-38D80C2A37D0";
paths = (
{
closed = 1;
nodes = (
"557 -25 OFFCURVE",
"719 179 OFFCURVE",
"719 441 CURVE SMOOTH",
"719 547 OFFCURVE",
"679 612 OFFCURVE",
"610 612 CURVE SMOOTH",
"554 612 OFFCURVE",
"512 563 OFFCURVE",
"512 498 CURVE",
"512 435 OFFCURVE",
"537 374 OFFCURVE",
"623 336 CURVE",
"601 159 OFFCURVE",
"471 45 OFFCURVE",
"363 45 CURVE SMOOTH",
"255 45 OFFCURVE",
"183 124 OFFCURVE",
"183 285 CURVE SMOOTH",
"183 496 OFFCURVE",
"308 635 OFFCURVE",
"466 635 CURVE SMOOTH",
"483 635 OFFCURVE",
"510 631 OFFCURVE",
"525 627 CURVE",
"531 641 OFFCURVE",
"533 651 OFFCURVE",
"533 665 CURVE SMOOTH",
"533 706 OFFCURVE",
"501 725 OFFCURVE",
"435 725 CURVE SMOOTH",
"231 725 OFFCURVE",
"54 555 OFFCURVE",
"54 281 CURVE SMOOTH",
"54 95 OFFCURVE",
"165 -25 OFFCURVE",
"336 -25 CURVE SMOOTH"
);
}
);
width = 744;
}
);
leftKerningGroup = O;
rightKerningGroup = O;
unicode = 004F;
},
{
color = 10;
glyphname = OE;
layers = (
{
anchors = (
{
name = bottom;
position = "{523, 0}";
},
{
name = top;
position = "{636, 710}";
}
);
components = (
{
name = O.alt;
transform = "{1, 0, 0, 1, -2, 0}";
}
);
hints = (
{
horizontal = 1;
origin = "{1, 13}";
target = "{1, 9}";
type = Stem;
},
{
horizontal = 1;
origin = "{2, 13}";
target = "{2, 6}";
type = Stem;
},
{
horizontal = 1;
origin = "{0, 15}";
target = "{0, 8}";
type = Stem;
}
);
layerId = "E79706D4-AD71-4087-AB75-377D41BAFC4F";
paths = (
{
closed = 1;
nodes = (
"1054 493 OFFCURVE",
"1126 555 OFFCURVE",
"1126 656 CURVE SMOOTH",
"1126 676 OFFCURVE",
"1123 698 OFFCURVE",
"1118 721 CURVE",
"1045 696 OFFCURVE",
"958 678 OFFCURVE",
"851 678 CURVE SMOOTH",
"675 678 OFFCURVE",
"627 726 OFFCURVE",
"432 726 CURVE",
"347 548 LINE",
"574 710 OFFCURVE",
"694 493 OFFCURVE",
"935 493 CURVE SMOOTH"
);
},
{
closed = 1;
nodes = (
"1000 -25 OFFCURVE",
"1074 24 OFFCURVE",
"1074 111 CURVE SMOOTH",
"1074 137 OFFCURVE",
"1071 156 OFFCURVE",
"1063 175 CURVE",
"1015 156 OFFCURVE",
"964 143 OFFCURVE",
"915 136 CURVE",
"578 136 LINE",
"537 51 LINE",
"644 -8 OFFCURVE",
"762 -25 OFFCURVE",
"856 -25 CURVE SMOOTH"
);
},
{
closed = 1;
nodes = (
"912 249 OFFCURVE",
"953 284 OFFCURVE",
"953 341 CURVE SMOOTH",
"953 360 OFFCURVE",
"951 377 OFFCURVE",
"948 389 CURVE",
"858 366 LINE",
"816 366 OFFCURVE",
"780 369 OFFCURVE",
"739 376 CURVE",
"719 262 LINE",
"778 252 OFFCURVE",
"810 249 OFFCURVE",
"844 249 CURVE SMOOTH"
);
}
);
width = 1157;
},
{
anchors = (
{
name = bottom;
position = "{484, 0}";
},
{
name = top;
position = "{597, 710}";
}
);
components = (
{
name = O.alt;
transform = "{1, 0, 0, 1, -1, 0}";
}
);
hints = (
{
horizontal = 1;
origin = "{1, 13}";
target = "{1, 9}";
type = Stem;
},
{
horizontal = 1;
origin = "{2, 13}";
target = "{2, 6}";
type = Stem;
},
{
horizontal = 1;
origin = "{0, 15}";
target = "{0, 8}";
type = Stem;
}
);
layerId = "1D04CB99-59CD-4CDD-8259-0FDF24D9F847";
paths = (
{
closed = 1;
nodes = (
"983 604 OFFCURVE",
"1040 621 OFFCURVE",
"1040 683 CURVE SMOOTH",
"1040 693 OFFCURVE",
"1040 704 OFFCURVE",
"1035 720 CURVE",
"938 704 OFFCURVE",
"896 692 OFFCURVE",
"798 692 CURVE SMOOTH",
"681 692 OFFCURVE",
"582 726 OFFCURVE",
"477 726 CURVE",
"330 608 LINE",
"541 752 OFFCURVE",
"685 604 OFFCURVE",
"932 604 CURVE SMOOTH"
);
},
{
closed = 1;
nodes = (
"923 -27 OFFCURVE",
"976 -6 OFFCURVE",
"976 44 CURVE SMOOTH",
"976 55 OFFCURVE",
"975 62 OFFCURVE",
"968 82 CURVE",
"938 71 OFFCURVE",
"910 64 OFFCURVE",
"870 60 CURVE",
"522 60 LINE",
"472 26 LINE",
"549 -2 OFFCURVE",
"673 -27 OFFCURVE",
"805 -27 CURVE SMOOTH"
);
},
{
closed = 1;
nodes = (
"876 288 OFFCURVE",
"906 313 OFFCURVE",
"906 358 CURVE SMOOTH",
"906 363 OFFCURVE",
"906 370 OFFCURVE",
"906 377 CURVE",
"837 360 LINE",
"783 360 OFFCURVE",
"733 362 OFFCURVE",
"688 367 CURVE",
"675 309 LINE",
"733 294 OFFCURVE",
"775 288 OFFCURVE",
"820 288 CURVE SMOOTH"
);
}
);
width = 1085;
},
{
anchors = (
{
name = bottom;
position = "{492, 0}";
},
{
name = top;
position = "{605, 710}";
}
);
components = (
{
alignment = -1;
name = O.alt;
transform = "{1, 0, 0, 1, -1, 0}";
}
);
hints = (
{
horizontal = 1;
origin = "{1, 13}";
target = "{1, 9}";
type = Stem;
},
{
horizontal = 1;
origin = "{2, 13}";
target = "{2, 6}";
type = Stem;
},
{
horizontal = 1;
origin = "{0, 15}";
target = "{0, 8}";
type = Stem;
}
);
layerId = "CE369AAB-0FC9-4F25-BC24-38D80C2A37D0";
paths = (
{
closed = 1;
nodes = (
"997 582 OFFCURVE",
"1057 608 OFFCURVE",
"1057 678 CURVE SMOOTH",
"1057 690 OFFCURVE",
"1057 703 OFFCURVE",
"1052 720 CURVE",
"960 702 OFFCURVE",
"909 689 OFFCURVE",
"809 689 CURVE SMOOTH",
"680 689 OFFCURVE",
"591 726 OFFCURVE",
"468 726 CURVE",
"334 596 LINE",
"548 744 OFFCURVE",
"687 582 OFFCURVE",
"933 582 CURVE SMOOTH"
);
},
{
closed = 1;
nodes = (
"939 -27 OFFCURVE",
"996 0 OFFCURVE",
"996 57 CURVE SMOOTH",
"996 71 OFFCURVE",
"994 81 OFFCURVE",
"987 101 CURVE",
"954 88 OFFCURVE",
"921 80 OFFCURVE",
"879 75 CURVE",
"533 75 LINE",
"485 31 LINE",
"568 -3 OFFCURVE",
"691 -27 OFFCURVE",
"815 -27 CURVE SMOOTH"
);
},
{
closed = 1;
nodes = (
"883 280 OFFCURVE",
"916 307 OFFCURVE",
"916 355 CURVE SMOOTH",
"916 362 OFFCURVE",
"915 371 OFFCURVE",
"915 379 CURVE",
"841 361 LINE",
"790 361 OFFCURVE",
"743 363 OFFCURVE",
"698 369 CURVE",
"684 300 LINE",
"742 286 OFFCURVE",
"782 280 OFFCURVE",
"825 280 CURVE SMOOTH"
);
}
);
width = 1099;
}
);
leftKerningGroup = O;
leftMetricsKey = O;
rightKerningGroup = E;
rightMetricsKey = e;
unicode = 0152;
},
{
color = 10;
glyphname = P;
layers = (
{
hints = (
{
horizontal = 1;
origin = "{0, 25}";
target = "{0, 18}";
type = Stem;
},
{
horizontal = 1;
origin = "{0, 12}";
target = "{0, 5}";
type = Stem;
},
{
origin = "{0, 15}";
target = "{0, 2}";
type = Stem;
},
{
origin = "{1, 18}";
target = "{1, 5}";
type = Stem;
},
{
horizontal = 1;
origin = "{1, 21}";
target = up;
type = BottomGhost;
}
);
layerId = "E79706D4-AD71-4087-AB75-377D41BAFC4F";
paths = (
{
closed = 1;
nodes = (
"612 205 OFFCURVE",
"717 360 OFFCURVE",
"717 500 CURVE SMOOTH",
"717 617 OFFCURVE",
"638 724 OFFCURVE",
"494 724 CURVE SMOOTH",
"381 724 OFFCURVE",
"327 687 OFFCURVE",
"265 640 CURVE",
"265 538 LINE",
"311 575 OFFCURVE",
"352 596 OFFCURVE",
"393 596 CURVE SMOOTH",
"461 596 OFFCURVE",
"494 543 OFFCURVE",
"494 486 CURVE SMOOTH",
"494 396 OFFCURVE",
"423 330 OFFCURVE",
"330 330 CURVE SMOOTH",
"300 330 OFFCURVE",
"267 338 OFFCURVE",
"243 357 CURVE",
"243 238 LINE",
"288 214 OFFCURVE",
"326 205 OFFCURVE",
"383 205 CURVE SMOOTH"
);
},
{
closed = 1;
nodes = (
"227 -26 OFFCURVE",
"267 -12 OFFCURVE",
"306 19 CURVE",
"284 50 OFFCURVE",
"276 83 OFFCURVE",
"276 144 CURVE SMOOTH",
"276 221 OFFCURVE",
"353 564 OFFCURVE",
"353 632 CURVE SMOOTH",
"353 695 OFFCURVE",
"327 726 OFFCURVE",
"276 726 CURVE SMOOTH",
"215 726 OFFCURVE",
"144 701 OFFCURVE",
"70 653 CURVE",
"123 546 LINE",
"72 253 OFFCURVE",
"60 167 OFFCURVE",
"60 109 CURVE SMOOTH",
"60 14 OFFCURVE",
"96 -26 OFFCURVE",
"182 -26 CURVE SMOOTH"
);
}
);
width = 717;
},
{
hints = (
{
horizontal = 1;
origin = "{0, 25}";
target = "{0, 18}";
type = Stem;
},
{
horizontal = 1;
origin = "{0, 12}";
target = "{0, 5}";
type = Stem;
},
{
origin = "{0, 15}";
target = "{0, 2}";
type = Stem;
},
{
origin = "{1, 18}";
target = "{1, 5}";
type = Stem;
},
{
horizontal = 1;
origin = "{1, 21}";
target = up;
type = BottomGhost;
}
);
layerId = "1D04CB99-59CD-4CDD-8259-0FDF24D9F847";
paths = (
{
closed = 1;
nodes = (
"582 205 OFFCURVE",
"672 345 OFFCURVE",
"672 500 CURVE SMOOTH",
"672 617 OFFCURVE",
"599 724 OFFCURVE",
"464 724 CURVE SMOOTH",
"351 724 OFFCURVE",
"297 674 OFFCURVE",
"235 610 CURVE",
"235 583 LINE",
"297 629 OFFCURVE",
"352 656 OFFCURVE",
"408 656 CURVE SMOOTH",
"531 656 OFFCURVE",
"569 575 OFFCURVE",
"569 486 CURVE SMOOTH",
"569 362 OFFCURVE",
"487 270 OFFCURVE",
"345 270 CURVE SMOOTH",
"301 270 OFFCURVE",
"255 281 OFFCURVE",
"220 306 CURVE",
"175 277 LINE",
"231 231 OFFCURVE",
"299 205 OFFCURVE",
"384 205 CURVE SMOOTH"
);
},
{
closed = 1;
nodes = (
"199 -26 OFFCURVE",
"219 -20 OFFCURVE",
"243 -5 CURVE",
"229 13 OFFCURVE",
"221 41 OFFCURVE",
"221 74 CURVE SMOOTH",
"221 169 OFFCURVE",
"308 654 OFFCURVE",
"308 683 CURVE SMOOTH",
"308 712 OFFCURVE",
"296 726 OFFCURVE",
"272 726 CURVE SMOOTH",
"245 726 OFFCURVE",
"210 713 OFFCURVE",
"175 692 CURVE",
"201 642 LINE",
"138 259 OFFCURVE",
"120 124 OFFCURVE",
"120 42 CURVE SMOOTH",
"120 -6 OFFCURVE",
"138 -26 OFFCURVE",
"178 -26 CURVE SMOOTH"
);
}
);
width = 687;
},
{
hints = (
{
horizontal = 1;
origin = "{0, 25}";
target = "{0, 18}";
type = Stem;
},
{
horizontal = 1;
origin = "{0, 12}";
target = "{0, 5}";
type = Stem;
},
{
origin = "{0, 15}";
target = "{0, 2}";
type = Stem;
},
{
origin = "{1, 18}";
target = "{1, 5}";
type = Stem;
},
{
horizontal = 1;
origin = "{1, 21}";
target = up;
type = BottomGhost;
}
);
layerId = "CE369AAB-0FC9-4F25-BC24-38D80C2A37D0";
paths = (
{
closed = 1;
nodes = (
"588 205 OFFCURVE",
"681 348 OFFCURVE",
"681 500 CURVE SMOOTH",
"681 617 OFFCURVE",
"607 724 OFFCURVE",
"470 724 CURVE SMOOTH",
"357 724 OFFCURVE",
"303 677 OFFCURVE",
"241 616 CURVE",
"241 574 LINE",
"300 618 OFFCURVE",
"352 644 OFFCURVE",
"405 644 CURVE SMOOTH",
"517 644 OFFCURVE",
"554 569 OFFCURVE",
"554 486 CURVE SMOOTH",
"554 369 OFFCURVE",
"474 282 OFFCURVE",
"342 282 CURVE SMOOTH",
"301 282 OFFCURVE",
"257 292 OFFCURVE",
"225 316 CURVE",
"189 269 LINE",
"242 228 OFFCURVE",
"304 205 OFFCURVE",
"384 205 CURVE SMOOTH"
);
},
{
closed = 1;
nodes = (
"205 -26 OFFCURVE",
"229 -18 OFFCURVE",
"256 0 CURVE",
"240 20 OFFCURVE",
"232 49 OFFCURVE",
"232 88 CURVE SMOOTH",
"232 179 OFFCURVE",
"317 636 OFFCURVE",
"317 673 CURVE SMOOTH",
"317 709 OFFCURVE",
"302 726 OFFCURVE",
"273 726 CURVE SMOOTH",
"239 726 OFFCURVE",
"197 711 OFFCURVE",
"154 684 CURVE",
"185 623 LINE",
"125 258 OFFCURVE",
"108 133 OFFCURVE",
"108 55 CURVE SMOOTH",
"108 -2 OFFCURVE",
"130 -26 OFFCURVE",
"179 -26 CURVE SMOOTH"
);
}
);
width = 693;
}
);
leftKerningGroup = H;
leftMetricsKey = H;
rightKerningGroup = P;
unicode = 0050;
},
{
color = 10;
glyphname = Thorn;
layers = (
{
hints = (
{
horizontal = 1;
origin = "{0, 25}";
target = "{0, 18}";
type = Stem;
},
{
horizontal = 1;
origin = "{0, 12}";
target = "{0, 5}";
type = Stem;
},
{
origin = "{1, 18}";
target = "{1, 5}";
type = Stem;
},
{
origin = "{0, 15}";
target = "{0, 2}";
type = Stem;
}
);
layerId = "E79706D4-AD71-4087-AB75-377D41BAFC4F";
paths = (
{
closed = 1;
nodes = (
"612 111 OFFCURVE",
"717 266 OFFCURVE",
"717 406 CURVE SMOOTH",
"717 523 OFFCURVE",
"638 630 OFFCURVE",
"494 630 CURVE SMOOTH",
"381 630 OFFCURVE",
"327 593 OFFCURVE",
"265 546 CURVE",
"265 444 LINE",
"311 481 OFFCURVE",
"352 502 OFFCURVE",
"393 502 CURVE SMOOTH",
"461 502 OFFCURVE",
"494 449 OFFCURVE",
"494 392 CURVE SMOOTH",
"494 302 OFFCURVE",
"423 236 OFFCURVE",
"330 236 CURVE SMOOTH",
"300 236 OFFCURVE",
"267 244 OFFCURVE",
"243 263 CURVE",
"243 144 LINE",
"288 120 OFFCURVE",
"326 111 OFFCURVE",
"383 111 CURVE SMOOTH"
);
},
{
closed = 1;
nodes = (
"227 -26 OFFCURVE",
"267 -12 OFFCURVE",
"306 19 CURVE",
"284 50 OFFCURVE",
"276 83 OFFCURVE",
"276 144 CURVE SMOOTH",
"276 221 OFFCURVE",
"353 564 OFFCURVE",
"353 632 CURVE SMOOTH",
"353 695 OFFCURVE",
"327 726 OFFCURVE",
"276 726 CURVE SMOOTH",
"215 726 OFFCURVE",
"144 701 OFFCURVE",
"70 653 CURVE",
"123 546 LINE",
"72 253 OFFCURVE",
"60 167 OFFCURVE",
"60 109 CURVE SMOOTH",
"60 14 OFFCURVE",
"96 -26 OFFCURVE",
"182 -26 CURVE SMOOTH"
);
}
);
width = 717;
},
{
hints = (
{
horizontal = 1;
origin = "{0, 25}";
target = "{0, 18}";
type = Stem;
},
{
horizontal = 1;
origin = "{0, 12}";
target = "{0, 5}";
type = Stem;
},
{
origin = "{1, 18}";
target = "{1, 5}";
type = Stem;
},
{
origin = "{0, 15}";
target = "{0, 2}";
type = Stem;
}
);
layerId = "1D04CB99-59CD-4CDD-8259-0FDF24D9F847";
paths = (
{
closed = 1;
nodes = (
"582 111 OFFCURVE",
"672 251 OFFCURVE",
"672 406 CURVE SMOOTH",
"672 523 OFFCURVE",
"599 630 OFFCURVE",
"464 630 CURVE SMOOTH",
"351 630 OFFCURVE",
"297 580 OFFCURVE",
"235 516 CURVE",
"235 489 LINE",
"297 535 OFFCURVE",
"352 562 OFFCURVE",
"408 562 CURVE SMOOTH",
"531 562 OFFCURVE",
"569 481 OFFCURVE",
"569 392 CURVE SMOOTH",
"569 268 OFFCURVE",
"487 176 OFFCURVE",
"345 176 CURVE SMOOTH",
"301 176 OFFCURVE",
"255 187 OFFCURVE",
"220 212 CURVE",
"175 183 LINE",
"231 137 OFFCURVE",
"299 111 OFFCURVE",
"384 111 CURVE SMOOTH"
);
},
{
closed = 1;
nodes = (
"199 -26 OFFCURVE",
"219 -20 OFFCURVE",
"243 -5 CURVE",
"229 13 OFFCURVE",
"221 41 OFFCURVE",
"221 74 CURVE SMOOTH",
"221 169 OFFCURVE",
"308 654 OFFCURVE",
"308 683 CURVE SMOOTH",
"308 712 OFFCURVE",
"296 726 OFFCURVE",
"272 726 CURVE SMOOTH",
"245 726 OFFCURVE",
"210 713 OFFCURVE",
"175 692 CURVE",
"201 642 LINE",
"138 259 OFFCURVE",
"120 124 OFFCURVE",
"120 42 CURVE SMOOTH",
"120 -6 OFFCURVE",
"138 -26 OFFCURVE",
"178 -26 CURVE SMOOTH"
);
}
);
width = 687;
},
{
hints = (
{
horizontal = 1;
origin = "{0, 25}";
target = "{0, 18}";
type = Stem;
},
{
horizontal = 1;
origin = "{0, 12}";
target = "{0, 5}";
type = Stem;
},
{
origin = "{1, 18}";
target = "{1, 5}";
type = Stem;
},
{
origin = "{0, 15}";
target = "{0, 2}";
type = Stem;
}
);
layerId = "CE369AAB-0FC9-4F25-BC24-38D80C2A37D0";
paths = (
{
closed = 1;
nodes = (
"588 111 OFFCURVE",
"681 254 OFFCURVE",
"681 406 CURVE SMOOTH",
"681 523 OFFCURVE",
"607 630 OFFCURVE",
"470 630 CURVE SMOOTH",
"357 630 OFFCURVE",
"303 583 OFFCURVE",
"241 522 CURVE",
"241 480 LINE",
"300 524 OFFCURVE",
"352 550 OFFCURVE",
"405 550 CURVE SMOOTH",
"517 550 OFFCURVE",
"554 475 OFFCURVE",
"554 392 CURVE SMOOTH",
"554 275 OFFCURVE",
"474 188 OFFCURVE",
"342 188 CURVE SMOOTH",
"301 188 OFFCURVE",
"257 198 OFFCURVE",
"225 222 CURVE",
"189 175 LINE",
"242 134 OFFCURVE",
"304 111 OFFCURVE",
"384 111 CURVE SMOOTH"
);
},
{
closed = 1;
nodes = (
"205 -26 OFFCURVE",
"229 -18 OFFCURVE",
"256 0 CURVE",
"240 20 OFFCURVE",
"232 49 OFFCURVE",
"232 88 CURVE SMOOTH",
"232 179 OFFCURVE",
"317 636 OFFCURVE",
"317 673 CURVE SMOOTH",
"317 709 OFFCURVE",
"302 726 OFFCURVE",
"273 726 CURVE SMOOTH",
"239 726 OFFCURVE",
"197 711 OFFCURVE",
"154 684 CURVE",
"185 623 LINE",
"125 258 OFFCURVE",
"108 133 OFFCURVE",
"108 55 CURVE SMOOTH",
"108 -2 OFFCURVE",
"130 -26 OFFCURVE",
"179 -26 CURVE SMOOTH"
);
}
);
width = 693;
}
);
leftKerningGroup = H;
leftMetricsKey = P;
rightKerningGroup = Thorn;
rightMetricsKey = P;
unicode = 00DE;
},
{
color = 10;
glyphname = Q;
layers = (
{
components = (
{
name = O;
}
);
layerId = "E79706D4-AD71-4087-AB75-377D41BAFC4F";
paths = (
{
closed = 1;
nodes = (
"655 -223 OFFCURVE",
"700 -156 OFFCURVE",
"700 -82 CURVE SMOOTH",
"700 -60 OFFCURVE",
"697 -38 OFFCURVE",
"689 -16 CURVE",
"627 -39 OFFCURVE",
"568 -46 OFFCURVE",
"510 -46 CURVE SMOOTH",
"397 -46 OFFCURVE",
"287 0 OFFCURVE",
"183 0 CURVE SMOOTH",
"107 0 OFFCURVE",
"73 -47 OFFCURVE",
"73 -90 CURVE SMOOTH",
"73 -127 OFFCURVE",
"98 -166 OFFCURVE",
"148 -166 CURVE SMOOTH",
"173 -166 OFFCURVE",
"223 -157 OFFCURVE",
"260 -107 CURVE",
"330 -150 OFFCURVE",
"453 -223 OFFCURVE",
"555 -223 CURVE SMOOTH"
);
}
);
width = 773;
},
{
components = (
{
name = O;
}
);
layerId = "1D04CB99-59CD-4CDD-8259-0FDF24D9F847";
paths = (
{
closed = 1;
nodes = (
"603 -172 OFFCURVE",
"654 -135 OFFCURVE",
"654 -58 CURVE SMOOTH",
"654 -44 OFFCURVE",
"652 -32 OFFCURVE",
"652 -22 CURVE",
"605 -36 OFFCURVE",
"555 -45 OFFCURVE",
"491 -45 CURVE SMOOTH",
"369 -45 OFFCURVE",
"268 0 OFFCURVE",
"188 0 CURVE SMOOTH",
"146 0 OFFCURVE",
"109 -20 OFFCURVE",
"109 -62 CURVE SMOOTH",
"109 -97 OFFCURVE",
"133 -115 OFFCURVE",
"163 -115 CURVE SMOOTH",
"208 -115 OFFCURVE",
"241 -87 OFFCURVE",
"257 -58 CURVE",
"318 -99 OFFCURVE",
"422 -172 OFFCURVE",
"536 -172 CURVE SMOOTH"
);
}
);
width = 737;
},
{
components = (
{
alignment = -1;
name = O;
}
);
layerId = "CE369AAB-0FC9-4F25-BC24-38D80C2A37D0";
paths = (
{
closed = 1;
nodes = (
"613 -182 OFFCURVE",
"663 -139 OFFCURVE",
"663 -63 CURVE SMOOTH",
"663 -47 OFFCURVE",
"661 -33 OFFCURVE",
"659 -21 CURVE",
"609 -37 OFFCURVE",
"558 -45 OFFCURVE",
"495 -45 CURVE SMOOTH",
"375 -45 OFFCURVE",
"272 0 OFFCURVE",
"187 0 CURVE SMOOTH",
"138 0 OFFCURVE",
"102 -25 OFFCURVE",
"102 -68 CURVE SMOOTH",
"102 -103 OFFCURVE",
"126 -125 OFFCURVE",
"160 -125 CURVE SMOOTH",
"201 -125 OFFCURVE",
"237 -101 OFFCURVE",
"258 -68 CURVE",
"320 -109 OFFCURVE",
"428 -182 OFFCURVE",
"540 -182 CURVE SMOOTH"
);
}
);
width = 744;
}
);
leftKerningGroup = O;
leftMetricsKey = O;
rightKerningGroup = O;
rightMetricsKey = O;
unicode = 0051;
},
{
color = 10;
glyphname = R;
layers = (
{
anchors = (
{
name = bottom;
position = "{332, 0}";
},
{
name = top;
position = "{437, 710}";
}
);
hints = (
{
horizontal = 1;
origin = "{0, 25}";
target = "{0, 18}";
type = Stem;
},
{
horizontal = 1;
origin = "{0, 12}";
target = "{0, 5}";
type = Stem;
},
{
origin = "{0, 15}";
target = "{0, 2}";
type = Stem;
},
{
origin = "{1, 18}";
target = "{1, 5}";
type = Stem;
}
);
layerId = "E79706D4-AD71-4087-AB75-377D41BAFC4F";
paths = (
{
closed = 1;
nodes = (
"612 235 OFFCURVE",
"717 377 OFFCURVE",
"717 515 CURVE SMOOTH",
"717 620 OFFCURVE",
"638 724 OFFCURVE",
"494 724 CURVE SMOOTH",
"381 724 OFFCURVE",
"327 687 OFFCURVE",
"265 640 CURVE",
"265 538 LINE",
"311 575 OFFCURVE",
"352 596 OFFCURVE",
"393 596 CURVE SMOOTH",
"461 596 OFFCURVE",
"494 546 OFFCURVE",
"494 501 CURVE SMOOTH",
"494 415 OFFCURVE",
"423 360 OFFCURVE",
"330 360 CURVE SMOOTH",
"300 360 OFFCURVE",
"267 368 OFFCURVE",
"243 387 CURVE",
"243 268 LINE",
"288 244 OFFCURVE",
"326 235 OFFCURVE",
"383 235 CURVE SMOOTH"
);
},
{
closed = 1;
nodes = (
"227 -26 OFFCURVE",
"267 -12 OFFCURVE",
"306 19 CURVE",
"284 50 OFFCURVE",
"276 83 OFFCURVE",
"276 144 CURVE SMOOTH",
"276 251 OFFCURVE",
"353 564 OFFCURVE",
"353 632 CURVE SMOOTH",
"353 695 OFFCURVE",
"327 726 OFFCURVE",
"276 726 CURVE SMOOTH",
"215 726 OFFCURVE",
"144 701 OFFCURVE",
"70 653 CURVE",
"123 546 LINE",
"72 253 OFFCURVE",
"60 167 OFFCURVE",
"60 109 CURVE SMOOTH",
"60 14 OFFCURVE",
"96 -26 OFFCURVE",
"182 -26 CURVE SMOOTH"
);
},
{
closed = 1;
nodes = (
"650 -25 OFFCURVE",
"718 1 OFFCURVE",
"747 30 CURVE",
"688 71 OFFCURVE",
"625 188 OFFCURVE",
"571 349 CURVE",
"375 269 LINE",
"421 139 LINE SMOOTH",
"464 17 OFFCURVE",
"511 -25 OFFCURVE",
"604 -25 CURVE SMOOTH"
);
}
);
width = 747;
},
{
anchors = (
{
name = bottom;
position = "{364, 0}";
},
{
name = top;
position = "{439, 710}";
}
);
hints = (
{
horizontal = 1;
origin = "{0, 25}";
target = "{0, 18}";
type = Stem;
},
{
horizontal = 1;
origin = "{0, 12}";
target = "{0, 5}";
type = Stem;
},
{
origin = "{0, 15}";
target = "{0, 2}";
type = Stem;
},
{
origin = "{1, 18}";
target = "{1, 5}";
type = Stem;
}
);
layerId = "1D04CB99-59CD-4CDD-8259-0FDF24D9F847";
paths = (
{
closed = 1;
nodes = (
"582 250 OFFCURVE",
"672 392 OFFCURVE",
"672 515 CURVE SMOOTH",
"672 626 OFFCURVE",
"599 724 OFFCURVE",
"464 724 CURVE SMOOTH",
"351 724 OFFCURVE",
"297 674 OFFCURVE",
"235 610 CURVE",
"235 583 LINE",
"297 629 OFFCURVE",
"352 656 OFFCURVE",
"408 656 CURVE SMOOTH",
"531 656 OFFCURVE",
"569 584 OFFCURVE",
"569 501 CURVE SMOOTH",
"569 396 OFFCURVE",
"487 315 OFFCURVE",
"345 315 CURVE SMOOTH",
"301 315 OFFCURVE",
"255 326 OFFCURVE",
"220 351 CURVE",
"190 322 LINE",
"253 267 OFFCURVE",
"306 250 OFFCURVE",
"384 250 CURVE SMOOTH"
);
},
{
closed = 1;
nodes = (
"199 -26 OFFCURVE",
"219 -20 OFFCURVE",
"243 -5 CURVE",
"229 13 OFFCURVE",
"221 41 OFFCURVE",
"221 74 CURVE SMOOTH",
"221 199 OFFCURVE",
"308 654 OFFCURVE",
"308 683 CURVE SMOOTH",
"308 712 OFFCURVE",
"296 726 OFFCURVE",
"272 726 CURVE SMOOTH",
"245 726 OFFCURVE",
"210 713 OFFCURVE",
"175 692 CURVE",
"201 642 LINE",
"138 259 OFFCURVE",
"120 124 OFFCURVE",
"120 42 CURVE SMOOTH",
"120 -6 OFFCURVE",
"138 -26 OFFCURVE",
"178 -26 CURVE SMOOTH"
);
},
{
closed = 1;
nodes = (
"627 -25 OFFCURVE",
"662 -13 OFFCURVE",
"675 2 CURVE",
"626 49 OFFCURVE",
"550 178 OFFCURVE",
"485 322 CURVE",
"400 286 LINE",
"466 148 LINE SMOOTH",
"533 1 OFFCURVE",
"553 -25 OFFCURVE",
"605 -25 CURVE SMOOTH"
);
}
);
width = 720;
},
{
anchors = (
{
name = bottom;
position = "{358, 0}";
},
{
name = top;
position = "{439, 710}";
}
);
hints = (
{
horizontal = 1;
origin = "{0, 25}";
target = "{0, 18}";
type = Stem;
},
{
horizontal = 1;
origin = "{0, 12}";
target = "{0, 5}";
type = Stem;
},
{
origin = "{0, 15}";
target = "{0, 2}";
type = Stem;
},
{
origin = "{1, 18}";
target = "{1, 5}";
type = Stem;
}
);
layerId = "CE369AAB-0FC9-4F25-BC24-38D80C2A37D0";
paths = (
{
closed = 1;
nodes = (
"588 247 OFFCURVE",
"681 389 OFFCURVE",
"681 515 CURVE SMOOTH",
"681 625 OFFCURVE",
"607 724 OFFCURVE",
"470 724 CURVE SMOOTH",
"357 724 OFFCURVE",
"303 677 OFFCURVE",
"241 616 CURVE",
"241 574 LINE",
"300 618 OFFCURVE",
"352 644 OFFCURVE",
"405 644 CURVE SMOOTH",
"517 644 OFFCURVE",
"554 576 OFFCURVE",
"554 501 CURVE SMOOTH",
"554 400 OFFCURVE",
"474 324 OFFCURVE",
"342 324 CURVE SMOOTH",
"301 324 OFFCURVE",
"257 334 OFFCURVE",
"225 358 CURVE",
"201 311 LINE",
"260 262 OFFCURVE",
"310 247 OFFCURVE",
"384 247 CURVE SMOOTH"
);
},
{
closed = 1;
nodes = (
"205 -26 OFFCURVE",
"229 -18 OFFCURVE",
"256 0 CURVE",
"240 20 OFFCURVE",
"232 49 OFFCURVE",
"232 88 CURVE SMOOTH",
"232 209 OFFCURVE",
"317 636 OFFCURVE",
"317 673 CURVE SMOOTH",
"317 709 OFFCURVE",
"302 726 OFFCURVE",
"273 726 CURVE SMOOTH",
"239 726 OFFCURVE",
"197 711 OFFCURVE",
"154 684 CURVE",
"185 623 LINE",
"125 258 OFFCURVE",
"108 133 OFFCURVE",
"108 55 CURVE SMOOTH",
"108 -2 OFFCURVE",
"130 -26 OFFCURVE",
"179 -26 CURVE SMOOTH"
);
},
{
closed = 1;
nodes = (
"632 -25 OFFCURVE",
"673 -10 OFFCURVE",
"689 8 CURVE",
"638 53 OFFCURVE",
"565 180 OFFCURVE",
"502 327 CURVE",
"395 283 LINE",
"457 146 LINE SMOOTH",
"519 4 OFFCURVE",
"545 -25 OFFCURVE",
"605 -25 CURVE SMOOTH"
);
}
);
width = 725;
}
);
leftKerningGroup = H;
leftMetricsKey = H;
rightKerningGroup = R;
unicode = 0052;
},
{
color = 10;
glyphname = S;
layers = (
{
anchors = (
{
name = bottom;
position = "{303, 0}";
},
{
name = top;
position = "{428, 710}";
}
);
hints = (
{
horizontal = 1;
origin = "{0, 35}";
target = "{0, 26}";
type = Stem;
},
{
origin = "{0, 29}";
target = "{0, 5}";
type = Stem;
},
{
origin = "{0, 23}";
target = "{0, 2}";
type = Stem;
}
);
layerId = "E79706D4-AD71-4087-AB75-377D41BAFC4F";
paths = (
{
closed = 1;
nodes = (
"480 -25 OFFCURVE",
"664 46 OFFCURVE",
"664 203 CURVE SMOOTH",
"664 438 OFFCURVE",
"293 398 OFFCURVE",
"293 507 CURVE SMOOTH",
"293 554 OFFCURVE",
"355 586 OFFCURVE",
"434 594 CURVE",
"465 521 OFFCURVE",
"522 486 OFFCURVE",
"586 486 CURVE SMOOTH",
"652 486 OFFCURVE",
"709 525 OFFCURVE",
"709 595 CURVE SMOOTH",
"709 672 OFFCURVE",
"611 726 OFFCURVE",
"452 726 CURVE SMOOTH",
"248 726 OFFCURVE",
"75 649 OFFCURVE",
"75 482 CURVE SMOOTH",
"75 241 OFFCURVE",
"446 272 OFFCURVE",
"446 167 CURVE SMOOTH",
"446 114 OFFCURVE",
"384 91 OFFCURVE",
"310 91 CURVE SMOOTH",
"204 91 OFFCURVE",
"135 144 OFFCURVE",
"84 216 CURVE",
"53 189 OFFCURVE",
"35 147 OFFCURVE",
"35 112 CURVE SMOOTH",
"35 32 OFFCURVE",
"118 -25 OFFCURVE",
"321 -25 CURVE SMOOTH"
);
}
);
width = 729;
},
{
anchors = (
{
name = bottom;
position = "{309, 0}";
},
{
name = top;
position = "{419, 710}";
}
);
hints = (
{
horizontal = 1;
origin = "{0, 35}";
target = "{0, 26}";
type = Stem;
},
{
origin = "{0, 29}";
target = "{0, 5}";
type = Stem;
},
{
origin = "{0, 23}";
target = "{0, 2}";
type = Stem;
}
);
layerId = "1D04CB99-59CD-4CDD-8259-0FDF24D9F847";
paths = (
{
closed = 1;
nodes = (
"537 -25 OFFCURVE",
"627 81 OFFCURVE",
"627 184 CURVE SMOOTH",
"627 405 OFFCURVE",
"233 382 OFFCURVE",
"233 516 CURVE SMOOTH",
"233 587 OFFCURVE",
"316 645 OFFCURVE",
"467 663 CURVE",
"485 595 OFFCURVE",
"521 555 OFFCURVE",
"583 555 CURVE SMOOTH",
"640 555 OFFCURVE",
"678 581 OFFCURVE",
"678 636 CURVE SMOOTH",
"678 690 OFFCURVE",
"590 726 OFFCURVE",
"476 726 CURVE SMOOTH",
"260 726 OFFCURVE",
"126 625 OFFCURVE",
"126 505 CURVE SMOOTH",
"126 277 OFFCURVE",
"520 311 OFFCURVE",
"520 164 CURVE SMOOTH",
"520 81 OFFCURVE",
"437 39 OFFCURVE",
"316 39 CURVE SMOOTH",
"239 39 OFFCURVE",
"161 80 OFFCURVE",
"122 165 CURVE",
"97 152 OFFCURVE",
"80 128 OFFCURVE",
"80 100 CURVE SMOOTH",
"80 17 OFFCURVE",
"187 -25 OFFCURVE",
"321 -25 CURVE SMOOTH"
);
}
);
width = 713;
},
{
anchors = (
{
name = bottom;
position = "{308, 0}";
},
{
name = top;
position = "{421, 710}";
}
);
hints = (
{
horizontal = 1;
origin = "{0, 35}";
target = "{0, 26}";
type = Stem;
},
{
origin = "{0, 29}";
target = "{0, 5}";
type = Stem;
},
{
origin = "{0, 23}";
target = "{0, 2}";
type = Stem;
}
);
layerId = "CE369AAB-0FC9-4F25-BC24-38D80C2A37D0";
paths = (
{
closed = 1;
nodes = (
"526 -25 OFFCURVE",
"634 74 OFFCURVE",
"634 188 CURVE SMOOTH",
"634 412 OFFCURVE",
"245 385 OFFCURVE",
"245 514 CURVE SMOOTH",
"245 580 OFFCURVE",
"324 633 OFFCURVE",
"460 649 CURVE",
"481 580 OFFCURVE",
"521 541 OFFCURVE",
"584 541 CURVE SMOOTH",
"642 541 OFFCURVE",
"684 570 OFFCURVE",
"684 628 CURVE SMOOTH",
"684 686 OFFCURVE",
"594 726 OFFCURVE",
"471 726 CURVE SMOOTH",
"258 726 OFFCURVE",
"116 630 OFFCURVE",
"116 500 CURVE SMOOTH",
"116 270 OFFCURVE",
"505 303 OFFCURVE",
"505 165 CURVE SMOOTH",
"505 88 OFFCURVE",
"426 49 OFFCURVE",
"315 49 CURVE SMOOTH",
"232 49 OFFCURVE",
"156 93 OFFCURVE",
"114 175 CURVE",
"88 159 OFFCURVE",
"71 132 OFFCURVE",
"71 102 CURVE SMOOTH",
"71 20 OFFCURVE",
"173 -25 OFFCURVE",
"321 -25 CURVE SMOOTH"
);
}
);
width = 716;
}
);
leftKerningGroup = S;
rightKerningGroup = S;
unicode = 0053;
},
{
color = 10;
glyphname = T;
layers = (
{
anchors = (
{
name = bottom;
position = "{271, 0}";
},
{
name = center;
position = "{312, 305}";
},
{
name = top;
position = "{386, 710}";
}
);
hints = (
{
origin = "{0, 12}";
target = "{0, 5}";
type = Stem;
},
{
horizontal = 1;
origin = "{1, 16}";
target = "{1, 6}";
type = Stem;
}
);
layerId = "E79706D4-AD71-4087-AB75-377D41BAFC4F";
paths = (
{
closed = 1;
nodes = (
"340 -26 OFFCURVE",
"380 -12 OFFCURVE",
"421 19 CURVE",
"401 51 OFFCURVE",
"391 96 OFFCURVE",
"391 164 CURVE SMOOTH",
"391 223 OFFCURVE",
"433 419 OFFCURVE",
"460 564 CURVE",
"249 606 LINE",
"202 353 OFFCURVE",
"175 205 OFFCURVE",
"175 129 CURVE SMOOTH",
"175 25 OFFCURVE",
"207 -26 OFFCURVE",
"297 -26 CURVE SMOOTH"
);
},
{
closed = 1;
nodes = (
"607 485 OFFCURVE",
"664 536 OFFCURVE",
"664 618 CURVE SMOOTH",
"664 655 OFFCURVE",
"657 687 OFFCURVE",
"646 713 CURVE",
"494 674 LINE",
"388 677 OFFCURVE",
"291 715 OFFCURVE",
"189 715 CURVE SMOOTH",
"97 715 OFFCURVE",
"40 664 OFFCURVE",
"40 582 CURVE SMOOTH",
"40 545 OFFCURVE",
"47 513 OFFCURVE",
"58 487 CURVE",
"210 526 LINE",
"316 523 OFFCURVE",
"413 485 OFFCURVE",
"515 485 CURVE SMOOTH"
);
}
);
width = 644;
},
{
anchors = (
{
name = bottom;
position = "{184, 0}";
},
{
name = center;
position = "{297, 350}";
},
{
name = top;
position = "{359, 710}";
}
);
hints = (
{
origin = "{0, 12}";
target = "{0, 5}";
type = Stem;
},
{
horizontal = 1;
origin = "{1, 16}";
target = "{1, 6}";
type = Stem;
}
);
layerId = "1D04CB99-59CD-4CDD-8259-0FDF24D9F847";
paths = (
{
closed = 1;
nodes = (
"277 -26 OFFCURVE",
"297 -20 OFFCURVE",
"320 -5 CURVE",
"305 12 OFFCURVE",
"298 35 OFFCURVE",
"298 64 CURVE SMOOTH",
"298 133 OFFCURVE",
"358 490 OFFCURVE",
"383 656 CURVE",
"285 675 LINE",
"223 293 OFFCURVE",
"197 106 OFFCURVE",
"197 32 CURVE SMOOTH",
"197 -11 OFFCURVE",
"217 -26 OFFCURVE",
"255 -26 CURVE SMOOTH"
);
},
{
closed = 1;
nodes = (
"554 611 OFFCURVE",
"587 634 OFFCURVE",
"587 675 CURVE SMOOTH",
"587 690 OFFCURVE",
"585 704 OFFCURVE",
"580 713 CURVE",
"416 691 LINE",
"328 692 OFFCURVE",
"247 715 OFFCURVE",
"165 715 CURVE SMOOTH",
"112 715 OFFCURVE",
"77 708 OFFCURVE",
"77 651 CURVE SMOOTH",
"77 635 OFFCURVE",
"80 623 OFFCURVE",
"85 613 CURVE",
"249 634 LINE",
"337 634 OFFCURVE",
"417 611 OFFCURVE",
"500 611 CURVE SMOOTH"
);
}
);
width = 530;
},
{
anchors = (
{
name = bottom;
position = "{201, 0}";
},
{
name = center;
position = "{300, 341}";
},
{
name = top;
position = "{364, 710}";
}
);
hints = (
{
origin = "{0, 12}";
target = "{0, 5}";
type = Stem;
},
{
horizontal = 1;
origin = "{1, 16}";
target = "{1, 6}";
type = Stem;
}
);
layerId = "CE369AAB-0FC9-4F25-BC24-38D80C2A37D0";
paths = (
{
closed = 1;
nodes = (
"290 -26 OFFCURVE",
"314 -18 OFFCURVE",
"340 0 CURVE",
"324 20 OFFCURVE",
"317 47 OFFCURVE",
"317 84 CURVE SMOOTH",
"317 151 OFFCURVE",
"373 476 OFFCURVE",
"398 638 CURVE",
"278 661 LINE",
"219 305 OFFCURVE",
"193 126 OFFCURVE",
"193 51 CURVE SMOOTH",
"193 -4 OFFCURVE",
"215 -26 OFFCURVE",
"263 -26 CURVE SMOOTH"
);
},
{
closed = 1;
nodes = (
"565 586 OFFCURVE",
"602 614 OFFCURVE",
"602 664 CURVE SMOOTH",
"602 683 OFFCURVE",
"599 701 OFFCURVE",
"593 713 CURVE",
"432 688 LINE",
"340 689 OFFCURVE",
"256 715 OFFCURVE",
"170 715 CURVE SMOOTH",
"109 715 OFFCURVE",
"70 699 OFFCURVE",
"70 637 CURVE SMOOTH",
"70 617 OFFCURVE",
"73 601 OFFCURVE",
"80 588 CURVE",
"241 612 LINE",
"333 612 OFFCURVE",
"416 586 OFFCURVE",
"503 586 CURVE SMOOTH"
);
}
);
width = 553;
}
);
leftKerningGroup = T;
rightKerningGroup = T;
unicode = 0054;
},
{
color = 10;
glyphname = U;
layers = (
{
anchors = (
{
name = bottom;
position = "{349, 0}";
},
{
name = ogonek;
position = "{740, 19}";
},
{
name = top;
position = "{461, 710}";
},
{
name = topright;
position = "{802, 706}";
}
);
hints = (
{
horizontal = 1;
origin = "{0, 39}";
target = "{0, 20}";
type = Stem;
},
{
origin = "{0, 36}";
target = "{0, 23}";
type = Stem;
},
{
origin = "{0, 46}";
target = "{0, 5}";
type = Stem;
}
);
layerId = "E79706D4-AD71-4087-AB75-377D41BAFC4F";
paths = (
{
closed = 1;
nodes = (
"663 -26 OFFCURVE",
"703 -12 OFFCURVE",
"740 19 CURVE",
"719 49 OFFCURVE",
"710 95 OFFCURVE",
"710 164 CURVE SMOOTH",
"710 285 OFFCURVE",
"761 553 OFFCURVE",
"802 706 CURVE",
"776 718 OFFCURVE",
"744 725 OFFCURVE",
"709 725 CURVE SMOOTH",
"580 725 OFFCURVE",
"488 611 OFFCURVE",
"488 451 CURVE SMOOTH",
"488 404 OFFCURVE",
"495 360 OFFCURVE",
"510 321 CURVE",
"468 205 OFFCURVE",
"400 130 OFFCURVE",
"336 130 CURVE SMOOTH",
"296 130 OFFCURVE",
"277 155 OFFCURVE",
"277 209 CURVE SMOOTH",
"277 268 OFFCURVE",
"349 581 OFFCURVE",
"349 632 CURVE SMOOTH",
"349 696 OFFCURVE",
"325 725 OFFCURVE",
"272 725 CURVE SMOOTH",
"212 725 OFFCURVE",
"158 706 OFFCURVE",
"66 653 CURVE",
"119 546 LINE",
"68 256 OFFCURVE",
"60 206 OFFCURVE",
"60 155 CURVE SMOOTH",
"60 36 OFFCURVE",
"114 -25 OFFCURVE",
"221 -25 CURVE SMOOTH",
"333 -25 OFFCURVE",
"438 48 OFFCURVE",
"500 170 CURVE",
"510 171 LINE",
"503 149 OFFCURVE",
"500 124 OFFCURVE",
"500 95 CURVE SMOOTH",
"500 16 OFFCURVE",
"541 -26 OFFCURVE",
"616 -26 CURVE SMOOTH"
);
}
);
width = 822;
},
{
anchors = (
{
name = bottom;
position = "{358, 0}";
},
{
name = ogonek;
position = "{677, -5}";
},
{
name = top;
position = "{490, 710}";
},
{
name = topright;
position = "{759, 705}";
}
);
hints = (
{
horizontal = 1;
origin = "{0, 39}";
target = "{0, 20}";
type = Stem;
},
{
origin = "{0, 36}";
target = "{0, 23}";
type = Stem;
},
{
origin = "{0, 46}";
target = "{0, 5}";
type = Stem;
}
);
layerId = "1D04CB99-59CD-4CDD-8259-0FDF24D9F847";
paths = (
{
closed = 1;
nodes = (
"636 -26 OFFCURVE",
"655 -20 OFFCURVE",
"677 -5 CURVE",
"667 13 OFFCURVE",
"662 35 OFFCURVE",
"662 64 CURVE SMOOTH",
"662 281 OFFCURVE",
"722 573 OFFCURVE",
"759 705 CURVE",
"740 720 OFFCURVE",
"720 727 OFFCURVE",
"705 727 CURVE SMOOTH",
"588 727 OFFCURVE",
"587 536 OFFCURVE",
"587 429 CURVE SMOOTH",
"587 380 OFFCURVE",
"591 339 OFFCURVE",
"591 321 CURVE",
"527 157 OFFCURVE",
"397 49 OFFCURVE",
"311 49 CURVE SMOOTH",
"232 49 OFFCURVE",
"216 95 OFFCURVE",
"216 167 CURVE SMOOTH",
"216 252 OFFCURVE",
"306 655 OFFCURVE",
"306 683 CURVE SMOOTH",
"306 711 OFFCURVE",
"292 727 OFFCURVE",
"269 727 CURVE SMOOTH",
"242 727 OFFCURVE",
"200 711 OFFCURVE",
"174 692 CURVE",
"200 642 LINE",
"140 339 OFFCURVE",
"120 214 OFFCURVE",
"120 145 CURVE SMOOTH",
"120 74 OFFCURVE",
"149 -22 OFFCURVE",
"268 -22 CURVE SMOOTH",
"408 -22 OFFCURVE",
"515 90 OFFCURVE",
"574 202 CURVE",
"579 201 LINE",
"568 158 OFFCURVE",
"560 114 OFFCURVE",
"560 76 CURVE SMOOTH",
"560 25 OFFCURVE",
"570 -26 OFFCURVE",
"619 -26 CURVE SMOOTH"
);
}
);
width = 810;
},
{
anchors = (
{
name = bottom;
position = "{356, 0}";
},
{
name = ogonek;
position = "{689, 0}";
},
{
name = top;
position = "{484, 710}";
},
{
name = topright;
position = "{767, 705}";
}
);
hints = (
{
horizontal = 1;
origin = "{0, 39}";
target = "{0, 20}";
type = Stem;
},
{
origin = "{0, 36}";
target = "{0, 23}";
type = Stem;
},
{
origin = "{0, 46}";
target = "{0, 5}";
type = Stem;
}
);
layerId = "CE369AAB-0FC9-4F25-BC24-38D80C2A37D0";
paths = (
{
closed = 1;
nodes = (
"641 -26 OFFCURVE",
"664 -18 OFFCURVE",
"689 0 CURVE",
"677 20 OFFCURVE",
"671 47 OFFCURVE",
"671 84 CURVE SMOOTH",
"671 282 OFFCURVE",
"729 569 OFFCURVE",
"767 705 CURVE",
"747 720 OFFCURVE",
"724 727 OFFCURVE",
"705 727 CURVE SMOOTH",
"586 727 OFFCURVE",
"567 551 OFFCURVE",
"567 433 CURVE SMOOTH",
"567 385 OFFCURVE",
"571 343 OFFCURVE",
"574 321 CURVE",
"515 167 OFFCURVE",
"397 65 OFFCURVE",
"316 65 CURVE SMOOTH",
"244 65 OFFCURVE",
"228 107 OFFCURVE",
"228 175 CURVE SMOOTH",
"228 255 OFFCURVE",
"314 640 OFFCURVE",
"314 673 CURVE SMOOTH",
"314 708 OFFCURVE",
"298 727 OFFCURVE",
"269 727 CURVE SMOOTH",
"236 727 OFFCURVE",
"191 710 OFFCURVE",
"152 684 CURVE",
"183 623 LINE",
"125 322 OFFCURVE",
"108 212 OFFCURVE",
"108 147 CURVE SMOOTH",
"108 66 OFFCURVE",
"142 -23 OFFCURVE",
"258 -23 CURVE SMOOTH",
"393 -23 OFFCURVE",
"499 82 OFFCURVE",
"559 196 CURVE",
"565 195 LINE",
"555 156 OFFCURVE",
"548 116 OFFCURVE",
"548 80 CURVE SMOOTH",
"548 23 OFFCURVE",
"564 -26 OFFCURVE",
"618 -26 CURVE SMOOTH"
);
}
);
width = 812;
}
);
leftKerningGroup = U;
leftMetricsKey = H;
rightKerningGroup = U;
rightMetricsKey = "=H-10";
unicode = 0055;
},
{
color = 10;
glyphname = V;
layers = (
{
hints = (
{
horizontal = 1;
origin = "{0, 34}";
target = "{0, 19}";
type = Stem;
},
{
origin = "{0, 31}";
target = "{0, 22}";
type = Stem;
},
{
origin = "{0, 15}";
target = "{0, 6}";
type = Stem;
}
);
layerId = "E79706D4-AD71-4087-AB75-377D41BAFC4F";
paths = (
{
closed = 1;
nodes = (
"369 -30 OFFCURVE",
"477 9 OFFCURVE",
"538 64 CURVE",
"523 120 LINE",
"682 431 OFFCURVE",
"727 547 OFFCURVE",
"727 628 CURVE SMOOTH",
"727 692 OFFCURVE",
"695 726 OFFCURVE",
"634 726 CURVE SMOOTH",
"588 726 OFFCURVE",
"532 709 OFFCURVE",
"493 681 CURVE",
"509 651 OFFCURVE",
"515 622 OFFCURVE",
"515 587 CURVE SMOOTH",
"515 510 OFFCURVE",
"448 339 OFFCURVE",
"300 104 CURVE",
"288 104 LINE",
"291 167 OFFCURVE",
"294 270 OFFCURVE",
"294 405 CURVE SMOOTH",
"294 651 OFFCURVE",
"241 726 OFFCURVE",
"145 726 CURVE SMOOTH",
"100 726 OFFCURVE",
"59 711 OFFCURVE",
"20 681 CURVE",
"101 593 OFFCURVE",
"85 424 OFFCURVE",
"85 226 CURVE SMOOTH",
"85 40 OFFCURVE",
"141 -30 OFFCURVE",
"284 -30 CURVE SMOOTH"
);
}
);
width = 727;
},
{
hints = (
{
horizontal = 1;
origin = "{0, 34}";
target = "{0, 19}";
type = Stem;
},
{
origin = "{0, 31}";
target = "{0, 22}";
type = Stem;
},
{
origin = "{0, 15}";
target = "{0, 6}";
type = Stem;
}
);
layerId = "1D04CB99-59CD-4CDD-8259-0FDF24D9F847";
paths = (
{
closed = 1;
nodes = (
"245 -30 OFFCURVE",
"290 -17 OFFCURVE",
"306 -1 CURVE",
"285 27 LINE",
"483 314 OFFCURVE",
"589 537 OFFCURVE",
"589 640 CURVE SMOOTH",
"589 692 OFFCURVE",
"568 726 OFFCURVE",
"537 726 CURVE SMOOTH",
"515 726 OFFCURVE",
"504 724 OFFCURVE",
"463 704 CURVE",
"481 675 OFFCURVE",
"487 642 OFFCURVE",
"487 599 CURVE SMOOTH",
"487 512 OFFCURVE",
"411 356 OFFCURVE",
"209 59 CURVE",
"197 59 LINE",
"197 73 OFFCURVE",
"197 75 OFFCURVE",
"197 326 CURVE SMOOTH",
"197 624 OFFCURVE",
"180 726 OFFCURVE",
"85 726 CURVE SMOOTH",
"61 726 OFFCURVE",
"40 719 OFFCURVE",
"20 704 CURVE",
"112 605 OFFCURVE",
"93 405 OFFCURVE",
"93 214 CURVE SMOOTH",
"93 24 OFFCURVE",
"116 -30 OFFCURVE",
"209 -30 CURVE SMOOTH"
);
}
);
width = 589;
},
{
hints = (
{
horizontal = 1;
origin = "{0, 34}";
target = "{0, 19}";
type = Stem;
},
{
origin = "{0, 31}";
target = "{0, 22}";
type = Stem;
},
{
origin = "{0, 15}";
target = "{0, 6}";
type = Stem;
}
);
layerId = "CE369AAB-0FC9-4F25-BC24-38D80C2A37D0";
paths = (
{
closed = 1;
nodes = (
"270 -30 OFFCURVE",
"327 -12 OFFCURVE",
"352 12 CURVE",
"333 46 LINE",
"523 337 OFFCURVE",
"617 539 OFFCURVE",
"617 638 CURVE SMOOTH",
"617 692 OFFCURVE",
"593 726 OFFCURVE",
"556 726 CURVE SMOOTH",
"530 726 OFFCURVE",
"510 721 OFFCURVE",
"469 699 CURVE",
"487 670 OFFCURVE",
"493 638 OFFCURVE",
"493 597 CURVE SMOOTH",
"493 512 OFFCURVE",
"418 353 OFFCURVE",
"227 68 CURVE",
"215 68 LINE",
"216 92 OFFCURVE",
"216 114 OFFCURVE",
"216 342 CURVE SMOOTH",
"216 629 OFFCURVE",
"192 726 OFFCURVE",
"97 726 CURVE SMOOTH",
"69 726 OFFCURVE",
"44 717 OFFCURVE",
"20 699 CURVE",
"110 603 OFFCURVE",
"91 409 OFFCURVE",
"91 216 CURVE SMOOTH",
"91 27 OFFCURVE",
"121 -30 OFFCURVE",
"224 -30 CURVE SMOOTH"
);
}
);
width = 617;
}
);
leftKerningGroup = V;
rightKerningGroup = V;
unicode = 0056;
userData = {
RMXScaler = {
source = v;
};
};
},
{
color = 10;
glyphname = W;
layers = (
{
anchors = (
{
name = bottom;
position = "{460, 0}";
},
{
name = top;
position = "{585, 710}";
}
);
hints = (
{
horizontal = 1;
origin = "{0, 33}";
target = "{0, 18}";
type = Stem;
},
{
origin = "{0, 30}";
target = "{0, 21}";
type = Stem;
},
{
origin = "{0, 14}";
target = "{0, 5}";
type = Stem;
},
{
origin = "{1, 15}";
target = "{1, 6}";
type = Stem;
}
);
layerId = "E79706D4-AD71-4087-AB75-377D41BAFC4F";
paths = (
{
closed = 1;
nodes = (
"364 -30 OFFCURVE",
"432 51 OFFCURVE",
"522 199 CURVE SMOOTH",
"599 328 OFFCURVE",
"661 480 OFFCURVE",
"661 584 CURVE SMOOTH",
"661 654 OFFCURVE",
"627 690 OFFCURVE",
"564 690 CURVE SMOOTH",
"533 690 OFFCURVE",
"499 675 OFFCURVE",
"471 650 CURVE",
"489 615 OFFCURVE",
"514 575 OFFCURVE",
"514 535 CURVE SMOOTH",
"514 484 OFFCURVE",
"471 283 OFFCURVE",
"309 104 CURVE",
"297 104 LINE",
"297 167 OFFCURVE",
"299 270 OFFCURVE",
"299 405 CURVE SMOOTH",
"299 651 OFFCURVE",
"248 726 OFFCURVE",
"147 726 CURVE SMOOTH",
"101 726 OFFCURVE",
"59 711 OFFCURVE",
"20 681 CURVE",
"107 587 OFFCURVE",
"90 407 OFFCURVE",
"90 197 CURVE SMOOTH",
"90 33 OFFCURVE",
"131 -30 OFFCURVE",
"240 -30 CURVE SMOOTH"
);
},
{
closed = 1;
nodes = (
"740 -30 OFFCURVE",
"831 9 OFFCURVE",
"882 64 CURVE",
"857 120 LINE",
"1013 431 OFFCURVE",
"1061 547 OFFCURVE",
"1061 628 CURVE SMOOTH",
"1061 692 OFFCURVE",
"1028 726 OFFCURVE",
"966 726 CURVE SMOOTH",
"919 726 OFFCURVE",
"864 709 OFFCURVE",
"824 681 CURVE",
"840 651 OFFCURVE",
"848 622 OFFCURVE",
"848 587 CURVE SMOOTH",
"848 510 OFFCURVE",
"784 339 OFFCURVE",
"644 104 CURVE",
"632 104 LINE",
"606 619 LINE",
"564 690 LINE",
"539 690 OFFCURVE",
"500 681 OFFCURVE",
"461 650 CURVE",
"498 202 LINE SMOOTH",
"511 43 OFFCURVE",
"544 -30 OFFCURVE",
"666 -30 CURVE SMOOTH"
);
}
);
width = 1061;
},
{
anchors = (
{
name = bottom;
position = "{424, 0}";
},
{
name = top;
position = "{549, 710}";
}
);
hints = (
{
horizontal = 1;
origin = "{0, 33}";
target = "{0, 18}";
type = Stem;
},
{
origin = "{0, 30}";
target = "{0, 21}";
type = Stem;
},
{
origin = "{0, 14}";
target = "{0, 5}";
type = Stem;
},
{
origin = "{1, 15}";
target = "{1, 6}";
type = Stem;
}
);
layerId = "1D04CB99-59CD-4CDD-8259-0FDF24D9F847";
paths = (
{
closed = 1;
nodes = (
"234 -30 OFFCURVE",
"299 11 OFFCURVE",
"455 288 CURVE SMOOTH",
"559 472 OFFCURVE",
"603 536 OFFCURVE",
"603 611 CURVE SMOOTH",
"603 659 OFFCURVE",
"575 690 OFFCURVE",
"537 690 CURVE SMOOTH",
"521 690 OFFCURVE",
"511 686 OFFCURVE",
"486 661 CURVE",
"485 651 OFFCURVE",
"513 608 OFFCURVE",
"513 589 CURVE SMOOTH",
"513 600 OFFCURVE",
"470 372 OFFCURVE",
"219 59 CURVE",
"206 59 LINE",
"207 73 OFFCURVE",
"206 75 OFFCURVE",
"206 326 CURVE SMOOTH",
"206 624 OFFCURVE",
"191 726 OFFCURVE",
"89 726 CURVE SMOOTH",
"64 726 OFFCURVE",
"41 719 OFFCURVE",
"20 704 CURVE",
"125 580 OFFCURVE",
"105 329 OFFCURVE",
"105 86 CURVE SMOOTH",
"105 23 OFFCURVE",
"113 -30 OFFCURVE",
"161 -30 CURVE SMOOTH"
);
},
{
closed = 1;
nodes = (
"631 -30 OFFCURVE",
"674 -17 OFFCURVE",
"690 -1 CURVE",
"673 27 LINE",
"856 314 OFFCURVE",
"959 537 OFFCURVE",
"959 640 CURVE SMOOTH",
"959 692 OFFCURVE",
"937 726 OFFCURVE",
"905 726 CURVE SMOOTH",
"880 726 OFFCURVE",
"870 724 OFFCURVE",
"829 704 CURVE",
"848 675 OFFCURVE",
"856 642 OFFCURVE",
"856 599 CURVE SMOOTH",
"856 512 OFFCURVE",
"784 356 OFFCURVE",
"593 59 CURVE",
"581 59 LINE",
"564 616 LINE",
"537 690 LINE",
"497 690 OFFCURVE",
"470 677 OFFCURVE",
"461 661 CURVE",
"500 108 LINE SMOOTH",
"504 37 OFFCURVE",
"514 -30 OFFCURVE",
"593 -30 CURVE SMOOTH"
);
}
);
width = 960;
},
{
anchors = (
{
name = bottom;
position = "{431, 0}";
},
{
name = top;
position = "{556, 710}";
}
);
hints = (
{
horizontal = 1;
origin = "{0, 33}";
target = "{0, 18}";
type = Stem;
},
{
origin = "{0, 30}";
target = "{0, 21}";
type = Stem;
},
{
origin = "{0, 14}";
target = "{0, 5}";
type = Stem;
},
{
origin = "{1, 15}";
target = "{1, 6}";
type = Stem;
}
);
layerId = "CE369AAB-0FC9-4F25-BC24-38D80C2A37D0";
paths = (
{
closed = 1;
nodes = (
"260 -30 OFFCURVE",
"326 19 OFFCURVE",
"468 270 CURVE SMOOTH",
"567 443 OFFCURVE",
"615 525 OFFCURVE",
"615 606 CURVE SMOOTH",
"615 658 OFFCURVE",
"585 690 OFFCURVE",
"542 690 CURVE SMOOTH",
"523 690 OFFCURVE",
"509 684 OFFCURVE",
"483 659 CURVE",
"486 644 OFFCURVE",
"513 601 OFFCURVE",
"513 578 CURVE SMOOTH",
"513 577 OFFCURVE",
"470 354 OFFCURVE",
"237 68 CURVE",
"224 68 LINE",
"225 92 OFFCURVE",
"225 114 OFFCURVE",
"225 342 CURVE SMOOTH",
"225 629 OFFCURVE",
"202 726 OFFCURVE",
"101 726 CURVE SMOOTH",
"71 726 OFFCURVE",
"45 717 OFFCURVE",
"20 699 CURVE",
"121 581 OFFCURVE",
"102 345 OFFCURVE",
"102 108 CURVE SMOOTH",
"102 25 OFFCURVE",
"117 -30 OFFCURVE",
"177 -30 CURVE SMOOTH"
);
},
{
closed = 1;
nodes = (
"653 -30 OFFCURVE",
"705 -12 OFFCURVE",
"728 12 CURVE",
"710 46 LINE",
"887 337 OFFCURVE",
"979 539 OFFCURVE",
"979 638 CURVE SMOOTH",
"979 692 OFFCURVE",
"955 726 OFFCURVE",
"917 726 CURVE SMOOTH",
"888 726 OFFCURVE",
"869 721 OFFCURVE",
"828 699 CURVE",
"846 670 OFFCURVE",
"854 638 OFFCURVE",
"854 597 CURVE SMOOTH",
"854 512 OFFCURVE",
"784 353 OFFCURVE",
"603 68 CURVE",
"591 68 LINE",
"572 617 LINE",
"542 690 LINE",
"505 690 OFFCURVE",
"476 678 OFFCURVE",
"461 659 CURVE",
"500 127 LINE SMOOTH",
"505 38 OFFCURVE",
"520 -30 OFFCURVE",
"608 -30 CURVE SMOOTH"
);
}
);
width = 980;
}
);
leftKerningGroup = W;
leftMetricsKey = V;
rightKerningGroup = W;
rightMetricsKey = V;
unicode = 0057;
},
{
color = 10;
glyphname = X;
layers = (
{
hints = (
{
origin = "{1, 13}";
target = "{1, 5}";
type = Stem;
},
{
origin = "{2, 12}";
target = "{2, 3}";
type = Stem;
}
);
layerId = "E79706D4-AD71-4087-AB75-377D41BAFC4F";
paths = (
{
closed = 1;
nodes = (
"657 -30 OFFCURVE",
"715 4 OFFCURVE",
"758 70 CURVE",
"675 103 OFFCURVE",
"630 161 OFFCURVE",
"591 235 CURVE SMOOTH",
"404 586 LINE SMOOTH",
"347 692 OFFCURVE",
"308 725 OFFCURVE",
"238 725 CURVE SMOOTH",
"167 725 OFFCURVE",
"109 691 OFFCURVE",
"65 624 CURVE",
"148 592 OFFCURVE",
"193 534 OFFCURVE",
"232 460 CURVE SMOOTH",
"420 108 LINE SMOOTH",
"476 2 OFFCURVE",
"516 -30 OFFCURVE",
"586 -30 CURVE SMOOTH"
);
},
{
closed = 1;
nodes = (
"160 -30 OFFCURVE",
"207 -14 OFFCURVE",
"254 15 CURVE",
"248 30 OFFCURVE",
"244 46 OFFCURVE",
"244 68 CURVE SMOOTH",
"244 129 OFFCURVE",
"302 203 OFFCURVE",
"419 281 CURVE",
"352 399 LINE",
"228 318 LINE SMOOTH",
"78 220 OFFCURVE",
"16 149 OFFCURVE",
"16 75 CURVE SMOOTH",
"16 12 OFFCURVE",
"55 -30 OFFCURVE",
"115 -30 CURVE SMOOTH"
);
},
{
closed = 1;
nodes = (
"584 378 LINE SMOOTH",
"733 476 OFFCURVE",
"795 548 OFFCURVE",
"795 620 CURVE SMOOTH",
"795 684 OFFCURVE",
"756 726 OFFCURVE",
"697 726 CURVE SMOOTH",
"651 726 OFFCURVE",
"604 710 OFFCURVE",
"558 681 CURVE",
"564 666 OFFCURVE",
"567 650 OFFCURVE",
"567 628 CURVE SMOOTH",
"567 567 OFFCURVE",
"510 493 OFFCURVE",
"392 415 CURVE",
"460 296 LINE"
);
}
);
width = 800;
},
{
hints = (
{
origin = "{1, 13}";
target = "{1, 5}";
type = Stem;
},
{
origin = "{2, 12}";
target = "{2, 3}";
type = Stem;
}
);
layerId = "1D04CB99-59CD-4CDD-8259-0FDF24D9F847";
paths = (
{
closed = 1;
nodes = (
"652 -30 OFFCURVE",
"689 -8 OFFCURVE",
"708 25 CURVE",
"651 46 OFFCURVE",
"610 71 OFFCURVE",
"556 171 CURVE SMOOTH",
"332 588 LINE SMOOTH",
"278 689 OFFCURVE",
"239 727 OFFCURVE",
"181 727 CURVE SMOOTH",
"147 727 OFFCURVE",
"110 705 OFFCURVE",
"90 671 CURVE",
"148 651 OFFCURVE",
"190 624 OFFCURVE",
"244 525 CURVE SMOOTH",
"469 108 LINE SMOOTH",
"524 8 OFFCURVE",
"561 -30 OFFCURVE",
"619 -30 CURVE SMOOTH"
);
},
{
closed = 1;
nodes = (
"130 -30 OFFCURVE",
"158 -16 OFFCURVE",
"164 -8 CURVE",
"158 5 OFFCURVE",
"154 18 OFFCURVE",
"154 35 CURVE SMOOTH",
"154 99 OFFCURVE",
"220 193 OFFCURVE",
"397 316 CURVE",
"370 368 LINE",
"204 233 LINE SMOOTH",
"69 121 OFFCURVE",
"46 79 OFFCURVE",
"46 39 CURVE SMOOTH",
"46 -2 OFFCURVE",
"67 -30 OFFCURVE",
"103 -30 CURVE SMOOTH"
);
},
{
closed = 1;
nodes = (
"585 464 LINE SMOOTH",
"719 575 OFFCURVE",
"741 620 OFFCURVE",
"741 656 CURVE SMOOTH",
"741 698 OFFCURVE",
"720 726 OFFCURVE",
"685 726 CURVE SMOOTH",
"657 726 OFFCURVE",
"629 712 OFFCURVE",
"624 704 CURVE",
"630 692 OFFCURVE",
"633 679 OFFCURVE",
"633 661 CURVE SMOOTH",
"633 597 OFFCURVE",
"568 504 OFFCURVE",
"390 381 CURVE",
"418 328 LINE"
);
}
);
width = 761;
},
{
hints = (
{
origin = "{1, 13}";
target = "{1, 5}";
type = Stem;
},
{
origin = "{2, 12}";
target = "{2, 3}";
type = Stem;
}
);
layerId = "CE369AAB-0FC9-4F25-BC24-38D80C2A37D0";
paths = (
{
closed = 1;
nodes = (
"653 -30 OFFCURVE",
"694 -6 OFFCURVE",
"718 34 CURVE",
"656 57 OFFCURVE",
"614 89 OFFCURVE",
"563 184 CURVE SMOOTH",
"346 588 LINE SMOOTH",
"292 690 OFFCURVE",
"253 727 OFFCURVE",
"192 727 CURVE SMOOTH",
"151 727 OFFCURVE",
"110 702 OFFCURVE",
"85 662 CURVE",
"148 639 OFFCURVE",
"191 606 OFFCURVE",
"242 512 CURVE SMOOTH",
"459 108 LINE SMOOTH",
"514 7 OFFCURVE",
"552 -30 OFFCURVE",
"612 -30 CURVE SMOOTH"
);
},
{
closed = 1;
nodes = (
"136 -30 OFFCURVE",
"168 -16 OFFCURVE",
"182 -3 CURVE",
"176 10 OFFCURVE",
"172 24 OFFCURVE",
"172 42 CURVE SMOOTH",
"172 105 OFFCURVE",
"236 195 OFFCURVE",
"401 309 CURVE",
"366 374 LINE",
"209 250 LINE SMOOTH",
"71 141 OFFCURVE",
"40 93 OFFCURVE",
"40 46 CURVE SMOOTH",
"40 1 OFFCURVE",
"65 -30 OFFCURVE",
"105 -30 CURVE SMOOTH"
);
},
{
closed = 1;
nodes = (
"585 447 LINE SMOOTH",
"722 555 OFFCURVE",
"752 606 OFFCURVE",
"752 649 CURVE SMOOTH",
"752 695 OFFCURVE",
"727 726 OFFCURVE",
"687 726 CURVE SMOOTH",
"656 726 OFFCURVE",
"624 712 OFFCURVE",
"611 699 CURVE",
"617 687 OFFCURVE",
"620 673 OFFCURVE",
"620 654 CURVE SMOOTH",
"620 591 OFFCURVE",
"556 502 OFFCURVE",
"390 388 CURVE",
"426 322 LINE"
);
}
);
width = 769;
}
);
leftKerningGroup = X;
rightKerningGroup = X;
unicode = 0058;
},
{
color = 10;
glyphname = Y;
layers = (
{
anchors = (
{
name = bottom;
position = "{341, -200}";
},
{
name = top;
position = "{484, 710}";
},
{
name = topleft;
position = "{20, 710}";
}
);
hints = (
{
horizontal = 1;
origin = "{0, 23}";
target = "{0, 20}";
type = Stem;
},
{
horizontal = 1;
place = "{726, -20}";
target = down;
type = TopGhost;
},
{
place = "{147.3, 131.6}";
type = Stem;
},
{
origin = "{0, 2}";
target = "{0, 2}";
type = Stem;
}
);
layerId = "E79706D4-AD71-4087-AB75-377D41BAFC4F";
paths = (
{
closed = 1;
nodes = (
"547 -242 OFFCURVE",
"806 334 OFFCURVE",
"806 630 CURVE",
"806 694 OFFCURVE",
"775 726 OFFCURVE",
"714 726 CURVE SMOOTH",
"668 726 OFFCURVE",
"612 709 OFFCURVE",
"573 681 CURVE",
"589 651 OFFCURVE",
"595 622 OFFCURVE",
"595 587 CURVE SMOOTH",
"595 144 OFFCURVE",
"298 -85 OFFCURVE",
"130 -85 CURVE SMOOTH",
"47 -85 OFFCURVE",
"3 -49 OFFCURVE",
"-21 -12 CURVE",
"-45 -31 OFFCURVE",
"-70 -72 OFFCURVE",
"-70 -113 CURVE SMOOTH",
"-70 -194 OFFCURVE",
"-6 -242 OFFCURVE",
"121 -242 CURVE SMOOTH"
);
},
{
closed = 1;
nodes = (
"468 53 LINE",
"206 53 OFFCURVE",
"492 726 OFFCURVE",
"190 726 CURVE SMOOTH",
"145 726 OFFCURVE",
"103 711 OFFCURVE",
"65 681 CURVE",
"230 527 OFFCURVE",
"-9 -30 OFFCURVE",
"356 -30 CURVE"
);
}
);
width = 841;
},
{
anchors = (
{
name = bottom;
position = "{308, -200}";
},
{
name = top;
position = "{454, 710}";
},
{
name = topleft;
position = "{20, 710}";
}
);
hints = (
{
horizontal = 1;
origin = "{0, 23}";
target = "{0, 20}";
type = Stem;
},
{
horizontal = 1;
place = "{1089, -20}";
target = down;
type = TopGhost;
},
{
place = "{220.95, 197.4}";
type = Stem;
},
{
origin = "{0, 2}";
target = "{0, 2}";
type = Stem;
}
);
layerId = "1D04CB99-59CD-4CDD-8259-0FDF24D9F847";
paths = (
{
closed = 1;
nodes = (
"481 -242 OFFCURVE",
"730 237 OFFCURVE",
"730 639 CURVE SMOOTH",
"730 691 OFFCURVE",
"708 726 OFFCURVE",
"677 726 CURVE SMOOTH",
"655 726 OFFCURVE",
"644 724 OFFCURVE",
"603 704 CURVE",
"621 675 OFFCURVE",
"627 642 OFFCURVE",
"627 599 CURVE SMOOTH",
"627 20 OFFCURVE",
"262 -165 OFFCURVE",
"115 -165 CURVE SMOOTH",
"25 -165 OFFCURVE",
"-8 -130 OFFCURVE",
"-32 -105 CURVE",
"-39 -120 OFFCURVE",
"-46 -141 OFFCURVE",
"-46 -157 CURVE SMOOTH",
"-46 -205 OFFCURVE",
"-9 -242 OFFCURVE",
"81 -242 CURVE SMOOTH"
);
},
{
closed = 1;
nodes = (
"468 11 LINE",
"155 11 OFFCURVE",
"432 726 OFFCURVE",
"180 726 CURVE SMOOTH",
"157 726 OFFCURVE",
"138 719 OFFCURVE",
"118 704 CURVE",
"284 545 OFFCURVE",
"63 -30 OFFCURVE",
"409 -30 CURVE"
);
}
);
width = 781;
},
{
anchors = (
{
name = bottom;
position = "{315, -200}";
},
{
name = top;
position = "{460, 710}";
},
{
name = topleft;
position = "{20, 710}";
}
);
hints = (
{
horizontal = 1;
origin = "{0, 23}";
target = "{0, 20}";
type = Stem;
},
{
horizontal = 1;
place = "{1016.4, -20}";
target = down;
type = TopGhost;
},
{
place = "{206.22, 184.24}";
type = Stem;
},
{
origin = "{0, 2}";
target = "{0, 2}";
type = Stem;
}
);
layerId = "CE369AAB-0FC9-4F25-BC24-38D80C2A37D0";
paths = (
{
closed = 1;
nodes = (
"494 -242 OFFCURVE",
"745 256 OFFCURVE",
"745 637 CURVE",
"745 692 OFFCURVE",
"721 726 OFFCURVE",
"684 726 CURVE SMOOTH",
"658 726 OFFCURVE",
"638 721 OFFCURVE",
"597 699 CURVE",
"615 670 OFFCURVE",
"621 638 OFFCURVE",
"621 597 CURVE SMOOTH",
"621 45 OFFCURVE",
"269 -149 OFFCURVE",
"118 -149 CURVE SMOOTH",
"29 -149 OFFCURVE",
"-6 -114 OFFCURVE",
"-30 -86 CURVE",
"-40 -102 OFFCURVE",
"-51 -127 OFFCURVE",
"-51 -148 CURVE SMOOTH",
"-51 -203 OFFCURVE",
"-8 -242 OFFCURVE",
"89 -242 CURVE SMOOTH"
);
},
{
closed = 1;
nodes = (
"468 19 LINE",
"165 19 OFFCURVE",
"444 726 OFFCURVE",
"182 726 CURVE SMOOTH",
"155 726 OFFCURVE",
"131 717 OFFCURVE",
"107 699 CURVE",
"273 541 OFFCURVE",
"49 -30 OFFCURVE",
"398 -30 CURVE"
);
}
);
width = 793;
}
);
leftKerningGroup = Y;
rightKerningGroup = Y;
unicode = 0059;
},
{
color = 10;
glyphname = Z;
layers = (
{
anchors = (
{
name = bottom;
position = "{296, 0}";
},
{
name = top;
position = "{421, 710}";
}
);
hints = (
{
horizontal = 1;
origin = "{1, 21}";
target = "{1, 6}";
type = Stem;
},
{
horizontal = 1;
origin = "{2, 17}";
target = "{2, 8}";
type = Stem;
}
);
layerId = "E79706D4-AD71-4087-AB75-377D41BAFC4F";
paths = (
{
closed = 1;
nodes = (
"651 564 LINE",
"405 534 LINE",
"96 143 LINE",
"294 104 LINE"
);
},
{
closed = 1;
nodes = (
"596 -30 OFFCURVE",
"673 29 OFFCURVE",
"673 104 CURVE SMOOTH",
"673 137 OFFCURVE",
"665 169 OFFCURVE",
"648 211 CURVE",
"497 146 LINE",
"413 146 OFFCURVE",
"252 219 OFFCURVE",
"176 219 CURVE SMOOTH",
"81 218 OFFCURVE",
"15 161 OFFCURVE",
"15 81 CURVE SMOOTH",
"15 21 OFFCURVE",
"56 -22 OFFCURVE",
"115 -22 CURVE SMOOTH",
"160 -22 OFFCURVE",
"196 -7 OFFCURVE",
"242 30 CURVE",
"328 -2 OFFCURVE",
"403 -30 OFFCURVE",
"497 -30 CURVE SMOOTH"
);
},
{
closed = 1;
nodes = (
"593 480 OFFCURVE",
"701 534 OFFCURVE",
"701 626 CURVE SMOOTH",
"701 689 OFFCURVE",
"662 726 OFFCURVE",
"597 726 CURVE SMOOTH",
"546 726 OFFCURVE",
"501 698 OFFCURVE",
"461 641 CURVE",
"381 645 OFFCURVE",
"217 688 OFFCURVE",
"111 732 CURVE",
"99 697 OFFCURVE",
"93 663 OFFCURVE",
"93 635 CURVE SMOOTH",
"93 523 OFFCURVE",
"181 480 OFFCURVE",
"411 480 CURVE SMOOTH"
);
}
);
width = 716;
},
{
anchors = (
{
name = bottom;
position = "{272, 0}";
},
{
name = top;
position = "{397, 710}";
}
);
hints = (
{
horizontal = 1;
origin = "{1, 21}";
target = "{1, 6}";
type = Stem;
},
{
horizontal = 1;
origin = "{2, 17}";
target = "{2, 8}";
type = Stem;
}
);
layerId = "1D04CB99-59CD-4CDD-8259-0FDF24D9F847";
paths = (
{
closed = 1;
nodes = (
"555 627 LINE",
"435 597 LINE",
"117 98 LINE",
"206 83 LINE"
);
},
{
closed = 1;
nodes = (
"529 -30 OFFCURVE",
"583 5 OFFCURVE",
"583 52 CURVE SMOOTH",
"583 67 OFFCURVE",
"577 81 OFFCURVE",
"558 106 CURVE",
"460 49 LINE",
"377 49 OFFCURVE",
"218 114 OFFCURVE",
"142 114 CURVE SMOOTH",
"77 115 OFFCURVE",
"30 79 OFFCURVE",
"30 29 CURVE SMOOTH",
"30 0 OFFCURVE",
"53 -22 OFFCURVE",
"84 -22 CURVE SMOOTH",
"117 -22 OFFCURVE",
"142 -7 OFFCURVE",
"179 33 CURVE",
"333 -23 OFFCURVE",
"390 -30 OFFCURVE",
"460 -30 CURVE SMOOTH"
);
},
{
closed = 1;
nodes = (
"548 585 OFFCURVE",
"623 611 OFFCURVE",
"623 676 CURVE SMOOTH",
"623 709 OFFCURVE",
"601 726 OFFCURVE",
"558 726 CURVE SMOOTH",
"524 726 OFFCURVE",
"480 695 OFFCURVE",
"463 656 CURVE",
"360 660 OFFCURVE",
"228 690 OFFCURVE",
"126 732 CURVE",
"116 721 OFFCURVE",
"108 696 OFFCURVE",
"108 673 CURVE SMOOTH",
"108 610 OFFCURVE",
"181 585 OFFCURVE",
"365 585 CURVE SMOOTH"
);
}
);
width = 638;
},
{
anchors = (
{
name = bottom;
position = "{277, 0}";
},
{
name = top;
position = "{402, 710}";
}
);
hints = (
{
horizontal = 1;
origin = "{1, 21}";
target = "{1, 6}";
type = Stem;
},
{
horizontal = 1;
origin = "{2, 17}";
target = "{2, 8}";
type = Stem;
}
);
layerId = "CE369AAB-0FC9-4F25-BC24-38D80C2A37D0";
paths = (
{
closed = 1;
nodes = (
"574 614 LINE",
"429 584 LINE",
"113 107 LINE",
"224 87 LINE"
);
},
{
closed = 1;
nodes = (
"542 -30 OFFCURVE",
"601 10 OFFCURVE",
"601 62 CURVE SMOOTH",
"601 81 OFFCURVE",
"595 99 OFFCURVE",
"576 127 CURVE",
"467 68 LINE",
"384 68 OFFCURVE",
"225 135 OFFCURVE",
"149 135 CURVE SMOOTH",
"78 136 OFFCURVE",
"27 95 OFFCURVE",
"27 39 CURVE SMOOTH",
"27 4 OFFCURVE",
"54 -22 OFFCURVE",
"90 -22 CURVE SMOOTH",
"126 -22 OFFCURVE",
"153 -7 OFFCURVE",
"192 32 CURVE",
"332 -19 OFFCURVE",
"393 -30 OFFCURVE",
"467 -30 CURVE SMOOTH"
);
},
{
closed = 1;
nodes = (
"557 564 OFFCURVE",
"639 596 OFFCURVE",
"639 666 CURVE SMOOTH",
"639 705 OFFCURVE",
"613 726 OFFCURVE",
"566 726 CURVE SMOOTH",
"528 726 OFFCURVE",
"484 696 OFFCURVE",
"463 653 CURVE",
"364 657 OFFCURVE",
"226 690 OFFCURVE",
"123 732 CURVE",
"113 716 OFFCURVE",
"105 689 OFFCURVE",
"105 665 CURVE SMOOTH",
"105 593 OFFCURVE",
"181 564 OFFCURVE",
"374 564 CURVE SMOOTH"
);
}
);
width = 654;
}
);
leftKerningGroup = Z;
rightKerningGroup = Z;
unicode = 005A;
},
{
color = 10;
glyphname = O.alt;
layers = (
{
hints = (
{
horizontal = 1;
origin = "{0, 29}";
target = "{0, 14}";
type = Stem;
},
{
horizontal = 1;
origin = "{0, 23}";
target = "{0, 20}";
type = Stem;
},
{
origin = "{0, 26}";
target = "{0, 17}";
type = Stem;
},
{
origin = "{0, 11}";
target = "{0, 2}";
type = Stem;
}
);
layerId = "E79706D4-AD71-4087-AB75-377D41BAFC4F";
paths = (
{
closed = 1;
nodes = (
"588 -25 OFFCURVE",
"768 168 OFFCURVE",
"768 424 CURVE SMOOTH",
"768 547 OFFCURVE",
"713 629 OFFCURVE",
"630 629 CURVE SMOOTH",
"584 629 OFFCURVE",
"543 607 OFFCURVE",
"518 571 CURVE",
"570 513 OFFCURVE",
"593 444 OFFCURVE",
"593 349 CURVE SMOOTH",
"593 194 OFFCURVE",
"508 86 OFFCURVE",
"388 86 CURVE SMOOTH",
"295 86 OFFCURVE",
"244 155 OFFCURVE",
"244 283 CURVE SMOOTH",
"244 488 OFFCURVE",
"379 629 OFFCURVE",
"573 629 CURVE",
"573 677 OFFCURVE",
"536 726 OFFCURVE",
"434 726 CURVE SMOOTH",
"200 726 OFFCURVE",
"32 546 OFFCURVE",
"32 293 CURVE SMOOTH",
"32 99 OFFCURVE",
"156 -25 OFFCURVE",
"351 -25 CURVE SMOOTH"
);
}
);
width = 788;
},
{
hints = (
{
horizontal = 1;
origin = "{0, 29}";
target = "{0, 14}";
type = Stem;
},
{
horizontal = 1;
origin = "{0, 23}";
target = "{0, 20}";
type = Stem;
},
{
origin = "{0, 26}";
target = "{0, 17}";
type = Stem;
},
{
origin = "{0, 11}";
target = "{0, 2}";
type = Stem;
}
);
layerId = "1D04CB99-59CD-4CDD-8259-0FDF24D9F847";
paths = (
{
closed = 1;
nodes = (
"573 -25 OFFCURVE",
"721 149 OFFCURVE",
"721 414 CURVE SMOOTH",
"721 564 OFFCURVE",
"666 652 OFFCURVE",
"598 652 CURVE SMOOTH",
"575 652 OFFCURVE",
"556 643 OFFCURVE",
"540 627 CURVE",
"588 569 OFFCURVE",
"618 489 OFFCURVE",
"618 376 CURVE SMOOTH",
"618 172 OFFCURVE",
"518 41 OFFCURVE",
"362 41 CURVE SMOOTH",
"250 41 OFFCURVE",
"181 131 OFFCURVE",
"181 279 CURVE SMOOTH",
"181 526 OFFCURVE",
"329 674 OFFCURVE",
"573 674 CURVE",
"573 700 OFFCURVE",
"551 726 OFFCURVE",
"477 726 CURVE SMOOTH",
"233 726 OFFCURVE",
"60 545 OFFCURVE",
"60 286 CURVE SMOOTH",
"60 98 OFFCURVE",
"169 -25 OFFCURVE",
"340 -25 CURVE SMOOTH"
);
}
);
width = 748;
},
{
hints = (
{
horizontal = 1;
origin = "{0, 29}";
target = "{0, 14}";
type = Stem;
},
{
horizontal = 1;
origin = "{0, 23}";
target = "{0, 20}";
type = Stem;
},
{
origin = "{0, 26}";
target = "{0, 17}";
type = Stem;
},
{
origin = "{0, 11}";
target = "{0, 2}";
type = Stem;
}
);
layerId = "CE369AAB-0FC9-4F25-BC24-38D80C2A37D0";
paths = (
{
closed = 1;
nodes = (
"577 -25 OFFCURVE",
"731 153 OFFCURVE",
"731 416 CURVE SMOOTH",
"731 561 OFFCURVE",
"676 647 OFFCURVE",
"605 647 CURVE SMOOTH",
"578 647 OFFCURVE",
"554 636 OFFCURVE",
"536 616 CURVE",
"585 558 OFFCURVE",
"614 480 OFFCURVE",
"614 371 CURVE SMOOTH",
"614 176 OFFCURVE",
"517 50 OFFCURVE",
"368 50 CURVE SMOOTH",
"260 50 OFFCURVE",
"194 136 OFFCURVE",
"194 280 CURVE SMOOTH",
"194 518 OFFCURVE",
"340 665 OFFCURVE",
"574 665 CURVE",
"574 695 OFFCURVE",
"549 726 OFFCURVE",
"469 726 CURVE SMOOTH",
"227 726 OFFCURVE",
"55 545 OFFCURVE",
"55 287 CURVE SMOOTH",
"55 98 OFFCURVE",
"167 -25 OFFCURVE",
"343 -25 CURVE SMOOTH"
);
}
);
width = 761;
}
);
leftKerningGroup = O.alt;
leftMetricsKey = O;
rightKerningGroup = O.alt;
rightMetricsKey = O;
},
{
color = 10;
glyphname = Y.alt;
layers = (
{
hints = (
{
place = "{457, 208}";
type = Stem;
},
{
place = "{457, 250}";
type = Stem;
},
{
horizontal = 1;
place = "{194, 86}";
type = Stem;
},
{
horizontal = 1;
place = "{-25, 21}";
target = up;
type = BottomGhost;
},
{
horizontal = 1;
place = "{700, -20}";
target = down;
type = TopGhost;
},
{
horizontal = 1;
origin = "{0, 11}";
target = "{0, 18}";
type = Stem;
},
{
origin = "{0, 18}";
target = "{0, 21}";
type = Stem;
},
{
origin = "{0, 18}";
target = "{1, 8}";
type = Stem;
},
{
origin = "{1, 8}";
target = "{1, 8}";
type = Stem;
},
{
horizontal = 1;
place = "{-25, -2147483648}";
type = Stem;
},
{
horizontal = 1;
place = "{245, 0}";
type = Stem;
}
);
layerId = "E79706D4-AD71-4087-AB75-377D41BAFC4F";
paths = (
{
closed = 1;
nodes = (
"440 234 OFFCURVE",
"646 473 OFFCURVE",
"646 650 CURVE SMOOTH",
"646 701 OFFCURVE",
"615 725 OFFCURVE",
"554 725 CURVE SMOOTH",
"511 725 OFFCURVE",
"452 706 OFFCURVE",
"421 682 CURVE SMOOTH",
"435 654 OFFCURVE",
"441 631 OFFCURVE",
"441 606 CURVE SMOOTH",
"441 526 OFFCURVE",
"398 435 OFFCURVE",
"325 367 CURVE",
"315 367 LINE SMOOTH",
"301 633 OFFCURVE",
"263 725 OFFCURVE",
"160 725 CURVE SMOOTH",
"113 725 OFFCURVE",
"72 711 OFFCURVE",
"32 682 CURVE SMOOTH",
"96 631 OFFCURVE",
"99 540 OFFCURVE",
"117 407 CURVE SMOOTH",
"127 287 OFFCURVE",
"173 234 OFFCURVE",
"283 234 CURVE SMOOTH"
);
},
{
closed = 1;
nodes = (
"317 -25 OFFCURVE",
"357 -11 OFFCURVE",
"398 20 CURVE",
"377 51 OFFCURVE",
"372 84 OFFCURVE",
"372 145 CURVE SMOOTH",
"372 176 OFFCURVE",
"393 271 OFFCURVE",
"416 333 CURVE",
"199 333 LINE",
"166 205 OFFCURVE",
"155 150 OFFCURVE",
"155 110 CURVE SMOOTH",
"155 15 OFFCURVE",
"186 -25 OFFCURVE",
"272 -25 CURVE SMOOTH"
);
}
);
width = 632;
},
{
hints = (
{
place = "{685.5, 312}";
type = Stem;
},
{
place = "{685.5, 375}";
type = Stem;
},
{
horizontal = 1;
place = "{291, 129}";
type = Stem;
},
{
horizontal = 1;
place = "{-37.5, 21}";
target = up;
type = BottomGhost;
},
{
horizontal = 1;
place = "{1050, -20}";
target = down;
type = TopGhost;
},
{
horizontal = 1;
origin = "{0, 11}";
target = "{0, 18}";
type = Stem;
},
{
origin = "{0, 18}";
target = "{0, 21}";
type = Stem;
},
{
origin = "{0, 18}";
target = "{1, 8}";
type = Stem;
},
{
origin = "{1, 8}";
target = "{1, 8}";
type = Stem;
},
{
horizontal = 1;
place = "{-25, -2147483648}";
type = Stem;
},
{
horizontal = 1;
place = "{367.5, 0}";
type = Stem;
}
);
layerId = "1D04CB99-59CD-4CDD-8259-0FDF24D9F847";
paths = (
{
closed = 1;
nodes = (
"389 251 OFFCURVE",
"575 517 OFFCURVE",
"575 662 CURVE SMOOTH",
"575 700 OFFCURVE",
"552 727 OFFCURVE",
"519 727 CURVE SMOOTH",
"505 727 OFFCURVE",
"498 726 OFFCURVE",
"463 714 CURVE",
"472 693 OFFCURVE",
"477 675 OFFCURVE",
"477 644 CURVE SMOOTH",
"477 544 OFFCURVE",
"405 416 OFFCURVE",
"298 324 CURVE",
"294 324 LINE",
"247 636 OFFCURVE",
"213 727 OFFCURVE",
"130 727 CURVE SMOOTH",
"105 727 OFFCURVE",
"84 720 OFFCURVE",
"66 706 CURVE",
"120 664 OFFCURVE",
"157 594 OFFCURVE",
"190 397 CURVE SMOOTH",
"209 284 OFFCURVE",
"224 251 OFFCURVE",
"286 251 CURVE SMOOTH"
);
},
{
closed = 1;
nodes = (
"266 -25 OFFCURVE",
"288 -19 OFFCURVE",
"314 -4 CURVE SMOOTH",
"305 26 OFFCURVE",
"299 51 OFFCURVE",
"299 90 CURVE SMOOTH",
"299 137 OFFCURVE",
"308 232 OFFCURVE",
"341 305 CURVE",
"240 305 LINE",
"202 136 OFFCURVE",
"194 81 OFFCURVE",
"194 35 CURVE SMOOTH",
"194 -8 OFFCURVE",
"215 -25 OFFCURVE",
"245 -25 CURVE SMOOTH"
);
}
);
width = 551;
},
{
hints = (
{
place = "{606.6, -2147483648}";
type = Stem;
},
{
place = "{639.8, 299.6}";
type = Stem;
},
{
horizontal = 1;
place = "{332.8, 17.2}";
type = Stem;
},
{
horizontal = 1;
place = "{-35, 21}";
target = up;
type = BottomGhost;
},
{
horizontal = 1;
place = "{980, -20}";
target = down;
type = TopGhost;
},
{
horizontal = 1;
origin = "{0, 11}";
target = "{0, 18}";
type = Stem;
},
{
origin = "{0, 18}";
target = "{0, 21}";
type = Stem;
},
{
origin = "{0, 18}";
target = "{1, 8}";
type = Stem;
},
{
origin = "{1, 8}";
target = "{1, 8}";
type = Stem;
},
{
horizontal = 1;
place = "{-25, -2147483648}";
type = Stem;
},
{
horizontal = 1;
place = "{321.8, -2147483648}";
type = Stem;
}
);
layerId = "CE369AAB-0FC9-4F25-BC24-38D80C2A37D0";
paths = (
{
closed = 1;
nodes = (
"399 248 OFFCURVE",
"589 508 OFFCURVE",
"589 660 CURVE SMOOTH",
"589 700 OFFCURVE",
"565 727 OFFCURVE",
"526 727 CURVE SMOOTH",
"506 727 OFFCURVE",
"489 722 OFFCURVE",
"455 708 CURVE SMOOTH",
"465 685 OFFCURVE",
"470 666 OFFCURVE",
"470 636 CURVE SMOOTH",
"470 540 OFFCURVE",
"404 420 OFFCURVE",
"303 333 CURVE",
"298 333 LINE SMOOTH",
"258 635 OFFCURVE",
"223 727 OFFCURVE",
"136 727 CURVE SMOOTH",
"107 727 OFFCURVE",
"82 718 OFFCURVE",
"59 701 CURVE SMOOTH",
"115 657 OFFCURVE",
"145 583 OFFCURVE",
"175 399 CURVE SMOOTH",
"193 285 OFFCURVE",
"214 248 OFFCURVE",
"285 248 CURVE SMOOTH"
);
},
{
closed = 1;
nodes = (
"276 -25 OFFCURVE",
"302 -17 OFFCURVE",
"331 1 CURVE",
"319 31 OFFCURVE",
"314 58 OFFCURVE",
"314 101 CURVE SMOOTH",
"314 145 OFFCURVE",
"325 240 OFFCURVE",
"356 311 CURVE",
"232 311 LINE",
"195 150 OFFCURVE",
"186 95 OFFCURVE",
"186 50 CURVE SMOOTH",
"186 -3 OFFCURVE",
"209 -25 OFFCURVE",
"250 -25 CURVE SMOOTH"
);
}
);
width = 567;
}
);
leftKerningGroup = Y.alt;
rightKerningGroup = Y.alt;
},
{
color = 10;
glyphname = a;
layers = (
{
anchors = (
{
name = bottom;
position = "{322, 0}";
},
{
name = ogonek;
position = "{669, 24}";
},
{
name = top;
position = "{424, 575}";
}
);
hints = (
{
horizontal = 1;
origin = "{0, 45}";
target = "{0, 27}";
type = Stem;
},
{
horizontal = 1;
origin = "{0, 39}";
target = "{0, 24}";
type = Stem;
},
{
origin = "{0, 42}";
target = "{0, 30}";
type = Stem;
},
{
origin = "{0, 6}";
target = "{0, 15}";
type = Stem;
},
{
horizontal = 1;
origin = "{0, 45}";
type = Anchor;
options = 1;
},
{
horizontal = 1;
origin = "{0, 9}";
type = Anchor;
},
{
horizontal = 1;
origin = "{0, 9}";
type = Anchor;
options = 1;
},
{
horizontal = 1;
origin = "{0, 45}";
target = "{0, 27}";
type = TTStem;
},
{
horizontal = 1;
origin = "{0, 39}";
target = "{0, 24}";
type = TTStem;
}
);
layerId = "E79706D4-AD71-4087-AB75-377D41BAFC4F";
paths = (
{
closed = 1;
nodes = (
"314 -25 OFFCURVE",
"389 32 OFFCURVE",
"427 128 CURVE",
"437 123 LINE",
"435 110 OFFCURVE",
"434 98 OFFCURVE",
"434 87 CURVE SMOOTH",
"434 16 OFFCURVE",
"472 -25 OFFCURVE",
"540 -25 CURVE SMOOTH",
"585 -25 OFFCURVE",
"629 -8 OFFCURVE",
"669 24 CURVE",
"649 41 OFFCURVE",
"638 73 OFFCURVE",
"638 115 CURVE SMOOTH",
"638 243 OFFCURVE",
"701 426 OFFCURVE",
"701 496 CURVE SMOOTH",
"701 547 OFFCURVE",
"675 575 OFFCURVE",
"628 575 CURVE SMOOTH",
"575 575 OFFCURVE",
"533 554 OFFCURVE",
"497 509 CURVE",
"471 261 OFFCURVE",
"414 147 OFFCURVE",
"316 147 CURVE SMOOTH",
"267 147 OFFCURVE",
"238 184 OFFCURVE",
"238 249 CURVE SMOOTH",
"238 391 OFFCURVE",
"370 509 OFFCURVE",
"530 509 CURVE",
"530 544 OFFCURVE",
"526 574 OFFCURVE",
"518 592 CURVE",
"495 597 OFFCURVE",
"466 600 OFFCURVE",
"439 600 CURVE SMOOTH",
"202 600 OFFCURVE",
"40 442 OFFCURVE",
"40 210 CURVE SMOOTH",
"40 68 OFFCURVE",
"114 -25 OFFCURVE",
"227 -25 CURVE SMOOTH"
);
}
);
width = 746;
},
{
anchors = (
{
name = bottom;
position = "{324, 0}";
},
{
name = ogonek;
position = "{591, -2}";
},
{
name = top;
position = "{426, 575}";
}
);
hints = (
{
horizontal = 1;
origin = "{0, 45}";
target = "{0, 27}";
type = Stem;
},
{
horizontal = 1;
origin = "{0, 39}";
target = "{0, 24}";
type = Stem;
},
{
origin = "{0, 42}";
target = "{0, 30}";
type = Stem;
},
{
origin = "{0, 6}";
target = "{0, 15}";
type = Stem;
},
{
horizontal = 1;
origin = "{0, 45}";
type = Anchor;
options = 1;
},
{
horizontal = 1;
origin = "{0, 9}";
type = Anchor;
},
{
horizontal = 1;
origin = "{0, 9}";
type = Anchor;
options = 1;
},
{
horizontal = 1;
origin = "{0, 45}";
target = "{0, 27}";
type = TTStem;
},
{
horizontal = 1;
origin = "{0, 39}";
target = "{0, 24}";
type = TTStem;
}
);
layerId = "1D04CB99-59CD-4CDD-8259-0FDF24D9F847";
paths = (
{
closed = 1;
nodes = (
"350 -25 OFFCURVE",
"427 28 OFFCURVE",
"477 121 CURVE",
"487 116 LINE",
"482 91 OFFCURVE",
"479 68 OFFCURVE",
"479 50 CURVE SMOOTH",
"479 1 OFFCURVE",
"501 -25 OFFCURVE",
"540 -25 CURVE SMOOTH",
"558 -25 OFFCURVE",
"574 -19 OFFCURVE",
"591 -2 CURVE",
"582 7 OFFCURVE",
"577 21 OFFCURVE",
"577 40 CURVE SMOOTH",
"577 252 OFFCURVE",
"658 447 OFFCURVE",
"658 538 CURVE SMOOTH",
"658 562 OFFCURVE",
"639 575 OFFCURVE",
"609 575 CURVE SMOOTH",
"593 575 OFFCURVE",
"572 566 OFFCURVE",
"562 554 CURVE",
"519 218 OFFCURVE",
"434 50 OFFCURVE",
"304 50 CURVE SMOOTH",
"231 50 OFFCURVE",
"189 106 OFFCURVE",
"189 204 CURVE SMOOTH",
"189 403 OFFCURVE",
"325 554 OFFCURVE",
"575 554 CURVE",
"575 567 OFFCURVE",
"571 579 OFFCURVE",
"563 592 CURVE",
"531 597 OFFCURVE",
"496 600 OFFCURVE",
"465 600 CURVE SMOOTH",
"255 600 OFFCURVE",
"85 427 OFFCURVE",
"85 210 CURVE SMOOTH",
"85 68 OFFCURVE",
"158 -25 OFFCURVE",
"266 -25 CURVE SMOOTH"
);
}
);
width = 748;
},
{
anchors = (
{
name = bottom;
position = "{324, 0}";
},
{
name = ogonek;
position = "{607, 3}";
},
{
name = top;
position = "{426, 575}";
}
);
hints = (
{
horizontal = 1;
origin = "{0, 45}";
target = "{0, 27}";
type = Stem;
},
{
horizontal = 1;
origin = "{0, 39}";
target = "{0, 24}";
type = Stem;
},
{
origin = "{0, 42}";
target = "{0, 30}";
type = Stem;
},
{
origin = "{0, 6}";
target = "{0, 15}";
type = Stem;
},
{
horizontal = 1;
origin = "{0, 45}";
type = Anchor;
options = 1;
},
{
horizontal = 1;
origin = "{0, 9}";
type = Anchor;
},
{
horizontal = 1;
origin = "{0, 9}";
type = Anchor;
options = 1;
},
{
horizontal = 1;
origin = "{0, 45}";
target = "{0, 27}";
type = TTStem;
},
{
horizontal = 1;
origin = "{0, 39}";
target = "{0, 24}";
type = TTStem;
}
);
layerId = "CE369AAB-0FC9-4F25-BC24-38D80C2A37D0";
paths = (
{
closed = 1;
nodes = (
"343 -25 OFFCURVE",
"419 29 OFFCURVE",
"467 122 CURVE",
"477 117 LINE",
"473 95 OFFCURVE",
"470 74 OFFCURVE",
"470 57 CURVE SMOOTH",
"470 4 OFFCURVE",
"495 -25 OFFCURVE",
"540 -25 CURVE SMOOTH",
"563 -25 OFFCURVE",
"585 -17 OFFCURVE",
"607 3 CURVE",
"595 14 OFFCURVE",
"589 31 OFFCURVE",
"589 55 CURVE SMOOTH",
"589 250 OFFCURVE",
"667 443 OFFCURVE",
"667 530 CURVE SMOOTH",
"667 559 OFFCURVE",
"646 575 OFFCURVE",
"613 575 CURVE SMOOTH",
"589 575 OFFCURVE",
"564 564 OFFCURVE",
"549 545 CURVE",
"509 227 OFFCURVE",
"430 69 OFFCURVE",
"306 69 CURVE SMOOTH",
"238 69 OFFCURVE",
"199 122 OFFCURVE",
"199 213 CURVE SMOOTH",
"199 401 OFFCURVE",
"334 545 OFFCURVE",
"566 545 CURVE",
"566 562 OFFCURVE",
"562 578 OFFCURVE",
"554 592 CURVE",
"524 597 OFFCURVE",
"490 600 OFFCURVE",
"460 600 CURVE SMOOTH",
"244 600 OFFCURVE",
"76 430 OFFCURVE",
"76 210 CURVE SMOOTH",
"76 68 OFFCURVE",
"149 -25 OFFCURVE",
"258 -25 CURVE SMOOTH"
);
}
);
width = 748;
}
);
leftKerningGroup = a;
rightKerningGroup = n;
unicode = 0061;
},
{
color = 10;
glyphname = ae;
layers = (
{
anchors = (
{
name = bottom;
position = "{470, 0}";
},
{
name = top;
position = "{562, 575}";
}
);
components = (
{
name = e;
transform = "{1, 0, 0, 1, 388, 0}";
}
);
hints = (
{
horizontal = 1;
origin = "{0, 25}";
target = "{0, 7}";
type = Stem;
},
{
horizontal = 1;
origin = "{0, 13}";
target = "{0, 19}";
type = Stem;
},
{
origin = "{0, 22}";
target = "{0, 10}";
type = Stem;
}
);
layerId = "E79706D4-AD71-4087-AB75-377D41BAFC4F";
paths = (
{
closed = 1;
nodes = (
"318 -25 OFFCURVE",
"396 32 OFFCURVE",
"436 128 CURVE",
"446 128 LINE",
"454 262 LINE",
"421 191 OFFCURVE",
"368 147 OFFCURVE",
"316 147 CURVE SMOOTH",
"267 147 OFFCURVE",
"238 184 OFFCURVE",
"238 249 CURVE SMOOTH",
"238 379 OFFCURVE",
"370 484 OFFCURVE",
"530 484 CURVE",
"530 515 OFFCURVE",
"526 545 OFFCURVE",
"518 567 CURVE",
"495 572 OFFCURVE",
"466 575 OFFCURVE",
"439 575 CURVE SMOOTH",
"202 575 OFFCURVE",
"40 427 OFFCURVE",
"40 210 CURVE SMOOTH",
"40 68 OFFCURVE",
"114 -25 OFFCURVE",
"227 -25 CURVE SMOOTH"
);
}
);
width = 1049;
},
{
anchors = (
{
name = bottom;
position = "{454, 0}";
},
{
name = top;
position = "{576, 575}";
}
);
components = (
{
name = e;
transform = "{1, 0, 0, 1, 378, 0}";
}
);
hints = (
{
horizontal = 1;
origin = "{0, 25}";
target = "{0, 7}";
type = Stem;
},
{
horizontal = 1;
origin = "{0, 13}";
target = "{0, 19}";
type = Stem;
},
{
origin = "{0, 22}";
target = "{0, 10}";
type = Stem;
}
);
layerId = "1D04CB99-59CD-4CDD-8259-0FDF24D9F847";
paths = (
{
closed = 1;
nodes = (
"348 -25 OFFCURVE",
"423 28 OFFCURVE",
"472 121 CURVE",
"478 121 LINE",
"507 247 LINE",
"465 124 OFFCURVE",
"380 50 OFFCURVE",
"304 50 CURVE SMOOTH",
"231 50 OFFCURVE",
"189 106 OFFCURVE",
"189 204 CURVE SMOOTH",
"189 396 OFFCURVE",
"333 529 OFFCURVE",
"575 529 CURVE",
"575 544 OFFCURVE",
"571 556 OFFCURVE",
"563 567 CURVE",
"537 572 OFFCURVE",
"502 575 OFFCURVE",
"465 575 CURVE SMOOTH",
"255 575 OFFCURVE",
"85 412 OFFCURVE",
"85 210 CURVE SMOOTH",
"85 68 OFFCURVE",
"158 -25 OFFCURVE",
"266 -25 CURVE SMOOTH"
);
}
);
width = 1025;
},
{
anchors = (
{
name = bottom;
position = "{457, 0}";
},
{
name = top;
position = "{573, 575}";
}
);
components = (
{
alignment = -1;
name = e;
transform = "{1, 0, 0, 1, 380, 0}";
}
);
hints = (
{
horizontal = 1;
origin = "{0, 25}";
target = "{0, 7}";
type = Stem;
},
{
horizontal = 1;
origin = "{0, 13}";
target = "{0, 19}";
type = Stem;
},
{
origin = "{0, 22}";
target = "{0, 10}";
type = Stem;
}
);
layerId = "CE369AAB-0FC9-4F25-BC24-38D80C2A37D0";
paths = (
{
closed = 1;
nodes = (
"342 -25 OFFCURVE",
"418 29 OFFCURVE",
"465 122 CURVE",
"472 122 LINE",
"496 250 LINE",
"456 137 OFFCURVE",
"378 69 OFFCURVE",
"306 69 CURVE SMOOTH",
"238 69 OFFCURVE",
"199 122 OFFCURVE",
"199 213 CURVE SMOOTH",
"199 393 OFFCURVE",
"340 520 OFFCURVE",
"566 520 CURVE",
"566 538 OFFCURVE",
"562 554 OFFCURVE",
"554 567 CURVE",
"529 572 OFFCURVE",
"495 575 OFFCURVE",
"460 575 CURVE SMOOTH",
"244 575 OFFCURVE",
"76 415 OFFCURVE",
"76 210 CURVE SMOOTH",
"76 68 OFFCURVE",
"149 -25 OFFCURVE",
"258 -25 CURVE SMOOTH"
);
}
);
width = 1030;
}
);
leftKerningGroup = a;
leftMetricsKey = a;
rightKerningGroup = e;
rightMetricsKey = e;
unicode = 00E6;
},
{
color = 10;
glyphname = b;
layers = (
{
hints = (
{
horizontal = 1;
origin = "{0, 25}";
target = "{1, 8}";
type = Stem;
},
{
horizontal = 1;
origin = "{0, 5}";
target = "{1, 2}";
type = Stem;
},
{
origin = "{0, 22}";
target = "{1, 8}";
type = Stem;
},
{
origin = "{1, 5}";
target = "{0, 2}";
type = Stem;
}
);
layerId = "E79706D4-AD71-4087-AB75-377D41BAFC4F";
paths = (
{
closed = 1;
nodes = (
"524 -25 OFFCURVE",
"702 133 OFFCURVE",
"702 365 CURVE SMOOTH",
"702 507 OFFCURVE",
"628 600 OFFCURVE",
"515 600 CURVE SMOOTH",
"428 600 OFFCURVE",
"353 543 OFFCURVE",
"315 447 CURVE",
"305 452 LINE",
"329 560 OFFCURVE",
"355 652 OFFCURVE",
"355 703 CURVE SMOOTH",
"355 753 OFFCURVE",
"333 774 OFFCURVE",
"270 774 CURVE SMOOTH",
"209 774 OFFCURVE",
"139 742 OFFCURVE",
"83 701 CURVE",
"139 621 LINE",
"84 306 OFFCURVE",
"70 213 OFFCURVE",
"70 160 CURVE SMOOTH",
"70 40 OFFCURVE",
"116 -25 OFFCURVE",
"263 -25 CURVE SMOOTH"
);
},
{
closed = 1;
nodes = (
"245 292 OFFCURVE",
"328 428 OFFCURVE",
"426 428 CURVE SMOOTH",
"475 428 OFFCURVE",
"504 391 OFFCURVE",
"504 326 CURVE SMOOTH",
"504 199 OFFCURVE",
"390 92 OFFCURVE",
"245 78 CURVE"
);
}
);
width = 742;
},
{
hints = (
{
horizontal = 1;
origin = "{0, 25}";
target = "{1, 8}";
type = Stem;
},
{
horizontal = 1;
origin = "{0, 5}";
target = "{1, 2}";
type = Stem;
},
{
origin = "{0, 22}";
target = "{1, 8}";
type = Stem;
},
{
origin = "{1, 5}";
target = "{0, 2}";
type = Stem;
}
);
layerId = "1D04CB99-59CD-4CDD-8259-0FDF24D9F847";
paths = (
{
closed = 1;
nodes = (
"462 -25 OFFCURVE",
"663 154 OFFCURVE",
"663 380 CURVE SMOOTH",
"663 513 OFFCURVE",
"590 600 OFFCURVE",
"482 600 CURVE SMOOTH",
"393 600 OFFCURVE",
"314 542 OFFCURVE",
"261 440 CURVE",
"251 445 LINE",
"281 578 OFFCURVE",
"314 681 OFFCURVE",
"314 723 CURVE SMOOTH",
"314 761 OFFCURVE",
"301 774 OFFCURVE",
"270 774 CURVE SMOOTH",
"242 774 OFFCURVE",
"200 762 OFFCURVE",
"173 739 CURVE",
"214 696 LINE",
"159 458 OFFCURVE",
"107 195 OFFCURVE",
"107 90 CURVE SMOOTH",
"107 -19 OFFCURVE",
"165 -25 OFFCURVE",
"213 -25 CURVE SMOOTH"
);
},
{
closed = 1;
nodes = (
"186 327 OFFCURVE",
"314 526 OFFCURVE",
"444 526 CURVE SMOOTH",
"517 526 OFFCURVE",
"559 469 OFFCURVE",
"559 371 CURVE SMOOTH",
"559 181 OFFCURVE",
"399 37 OFFCURVE",
"186 30 CURVE"
);
}
);
width = 748;
},
{
hints = (
{
horizontal = 1;
origin = "{0, 25}";
target = "{1, 8}";
type = Stem;
},
{
horizontal = 1;
origin = "{0, 5}";
target = "{1, 2}";
type = Stem;
},
{
origin = "{0, 22}";
target = "{1, 8}";
type = Stem;
},
{
origin = "{1, 5}";
target = "{0, 2}";
type = Stem;
}
);
layerId = "CE369AAB-0FC9-4F25-BC24-38D80C2A37D0";
paths = (
{
closed = 1;
nodes = (
"475 -25 OFFCURVE",
"671 150 OFFCURVE",
"671 377 CURVE SMOOTH",
"671 512 OFFCURVE",
"598 600 OFFCURVE",
"489 600 CURVE SMOOTH",
"400 600 OFFCURVE",
"322 542 OFFCURVE",
"272 441 CURVE",
"262 446 LINE",
"291 574 OFFCURVE",
"323 675 OFFCURVE",
"323 719 CURVE SMOOTH",
"323 759 OFFCURVE",
"308 774 OFFCURVE",
"270 774 CURVE SMOOTH",
"236 774 OFFCURVE",
"188 758 OFFCURVE",
"155 731 CURVE",
"199 681 LINE",
"144 428 OFFCURVE",
"100 199 OFFCURVE",
"100 104 CURVE SMOOTH",
"100 -7 OFFCURVE",
"156 -25 OFFCURVE",
"223 -25 CURVE SMOOTH"
);
},
{
closed = 1;
nodes = (
"198 320 OFFCURVE",
"317 506 OFFCURVE",
"441 506 CURVE SMOOTH",
"509 506 OFFCURVE",
"548 453 OFFCURVE",
"548 362 CURVE SMOOTH",
"548 185 OFFCURVE",
"398 48 OFFCURVE",
"198 40 CURVE"
);
}
);
width = 747;
}
);
leftKerningGroup = h;
leftMetricsKey = l;
rightKerningGroup = o;
rightMetricsKey = "=|a";
unicode = 0062;
},
{
color = 10;
glyphname = c;
layers = (
{
anchors = (
{
name = bottom;
position = "{300, 0}";
},
{
name = top;
position = "{412, 575}";
}
);
hints = (
{
horizontal = 1;
origin = "{0, 29}";
target = "{0, 8}";
type = Stem;
},
{
horizontal = 1;
origin = "{0, 23}";
target = "{0, 14}";
type = Stem;
},
{
origin = "{0, 26}";
target = "{0, 11}";
type = Stem;
},
{
origin = "{0, 3}";
target = "{0, 2}";
type = Stem;
}
);
layerId = "E79706D4-AD71-4087-AB75-377D41BAFC4F";
paths = (
{
closed = 1;
nodes = (
"473 -25 OFFCURVE",
"592 48 OFFCURVE",
"592 141 CURVE SMOOTH",
"592 197 OFFCURVE",
"549 227 OFFCURVE",
"469 227 CURVE",
"466 144 OFFCURVE",
"408 78 OFFCURVE",
"338 78 CURVE SMOOTH",
"278 78 OFFCURVE",
"243 135 OFFCURVE",
"243 233 CURVE SMOOTH",
"243 344 OFFCURVE",
"302 449 OFFCURVE",
"379 477 CURVE",
"406 420 OFFCURVE",
"456 385 OFFCURVE",
"513 385 CURVE SMOOTH",
"574 385 OFFCURVE",
"617 426 OFFCURVE",
"617 483 CURVE SMOOTH",
"617 554 OFFCURVE",
"543 600 OFFCURVE",
"429 600 CURVE SMOOTH",
"205 600 OFFCURVE",
"45 448 OFFCURVE",
"45 235 CURVE SMOOTH",
"45 72 OFFCURVE",
"149 -25 OFFCURVE",
"323 -25 CURVE SMOOTH"
);
}
);
width = 638;
},
{
anchors = (
{
name = bottom;
position = "{273, 0}";
},
{
name = top;
position = "{385, 575}";
}
);
hints = (
{
horizontal = 1;
origin = "{0, 29}";
target = "{0, 8}";
type = Stem;
},
{
horizontal = 1;
origin = "{0, 23}";
target = "{0, 14}";
type = Stem;
},
{
origin = "{0, 26}";
target = "{0, 11}";
type = Stem;
},
{
origin = "{0, 3}";
target = "{0, 2}";
type = Stem;
}
);
layerId = "1D04CB99-59CD-4CDD-8259-0FDF24D9F847";
paths = (
{
closed = 1;
nodes = (
"430 -25 OFFCURVE",
"530 51 OFFCURVE",
"530 141 CURVE SMOOTH",
"530 181 OFFCURVE",
"502 196 OFFCURVE",
"459 196 CURVE",
"453 104 OFFCURVE",
"395 33 OFFCURVE",
"306 33 CURVE SMOOTH",
"234 33 OFFCURVE",
"191 98 OFFCURVE",
"191 206 CURVE SMOOTH",
"191 362 OFFCURVE",
"270 488 OFFCURVE",
"377 536 CURVE",
"404 483 OFFCURVE",
"446 469 OFFCURVE",
"488 469 CURVE SMOOTH",
"531 469 OFFCURVE",
"564 497 OFFCURVE",
"564 533 CURVE SMOOTH",
"564 575 OFFCURVE",
"518 600 OFFCURVE",
"442 600 CURVE SMOOTH",
"246 600 OFFCURVE",
"86 433 OFFCURVE",
"86 213 CURVE SMOOTH",
"86 63 OFFCURVE",
"171 -25 OFFCURVE",
"310 -25 CURVE SMOOTH"
);
}
);
width = 616;
},
{
anchors = (
{
name = bottom;
position = "{278, 0}";
},
{
name = top;
position = "{390, 575}";
}
);
hints = (
{
horizontal = 1;
origin = "{0, 29}";
target = "{0, 8}";
type = Stem;
},
{
horizontal = 1;
origin = "{0, 23}";
target = "{0, 14}";
type = Stem;
},
{
origin = "{0, 26}";
target = "{0, 11}";
type = Stem;
},
{
origin = "{0, 3}";
target = "{0, 2}";
type = Stem;
}
);
layerId = "CE369AAB-0FC9-4F25-BC24-38D80C2A37D0";
paths = (
{
closed = 1;
nodes = (
"439 -25 OFFCURVE",
"542 50 OFFCURVE",
"542 141 CURVE SMOOTH",
"542 184 OFFCURVE",
"511 202 OFFCURVE",
"461 202 CURVE",
"456 112 OFFCURVE",
"398 42 OFFCURVE",
"312 42 CURVE SMOOTH",
"243 42 OFFCURVE",
"201 105 OFFCURVE",
"201 211 CURVE SMOOTH",
"201 358 OFFCURVE",
"276 480 OFFCURVE",
"377 524 CURVE",
"404 470 OFFCURVE",
"448 452 OFFCURVE",
"493 452 CURVE SMOOTH",
"540 452 OFFCURVE",
"575 483 OFFCURVE",
"575 523 CURVE SMOOTH",
"575 571 OFFCURVE",
"523 600 OFFCURVE",
"439 600 CURVE SMOOTH",
"238 600 OFFCURVE",
"78 436 OFFCURVE",
"78 217 CURVE SMOOTH",
"78 65 OFFCURVE",
"167 -25 OFFCURVE",
"313 -25 CURVE SMOOTH"
);
}
);
width = 620;
}
);
leftKerningGroup = o;
leftMetricsKey = o;
rightKerningGroup = c;
rightMetricsKey = "=o-25";
unicode = 0063;
},
{
color = 10;
glyphname = d;
layers = (
{
anchors = (
{
name = bottom;
position = "{309, 0}";
},
{
name = center;
position = "{617, 612}";
},
{
name = top;
position = "{410, 575}";
},
{
name = topright;
position = "{711, 575}";
}
);
hints = (
{
horizontal = 1;
origin = "{0, 25}";
target = "{0, 7}";
type = Stem;
},
{
horizontal = 1;
origin = "{0, 13}";
target = "{0, 19}";
type = Stem;
},
{
origin = "{0, 22}";
target = "{0, 10}";
type = Stem;
},
{
origin = "{1, 18}";
target = "{1, 5}";
type = Stem;
}
);
layerId = "E79706D4-AD71-4087-AB75-377D41BAFC4F";
paths = (
{
closed = 1;
nodes = (
"313 -25 OFFCURVE",
"387 32 OFFCURVE",
"425 128 CURVE",
"446 119 LINE",
"453 262 LINE",
"420 191 OFFCURVE",
"367 147 OFFCURVE",
"315 147 CURVE SMOOTH",
"266 147 OFFCURVE",
"237 184 OFFCURVE",
"237 249 CURVE SMOOTH",
"237 379 OFFCURVE",
"369 484 OFFCURVE",
"529 484 CURVE",
"529 515 OFFCURVE",
"525 545 OFFCURVE",
"517 567 CURVE",
"494 572 OFFCURVE",
"465 575 OFFCURVE",
"438 575 CURVE SMOOTH",
"201 575 OFFCURVE",
"39 427 OFFCURVE",
"39 210 CURVE SMOOTH",
"39 68 OFFCURVE",
"113 -25 OFFCURVE",
"226 -25 CURVE SMOOTH"
);
},
{
closed = 1;
nodes = (
"587 -25 OFFCURVE",
"636 -9 OFFCURVE",
"673 24 CURVE",
"655 46 OFFCURVE",
"642 65 OFFCURVE",
"642 132 CURVE SMOOTH",
"642 357 OFFCURVE",
"731 605 OFFCURVE",
"731 704 CURVE SMOOTH",
"731 754 OFFCURVE",
"709 775 OFFCURVE",
"646 775 CURVE SMOOTH",
"585 775 OFFCURVE",
"515 743 OFFCURVE",
"459 702 CURVE",
"515 622 LINE",
"489 472 OFFCURVE",
"436 195 OFFCURVE",
"436 119 CURVE SMOOTH",
"436 22 OFFCURVE",
"468 -25 OFFCURVE",
"549 -25 CURVE SMOOTH"
);
}
);
width = 751;
},
{
anchors = (
{
name = bottom;
position = "{308, 0}";
},
{
name = center;
position = "{619, 612}";
},
{
name = top;
position = "{409, 575}";
},
{
name = topright;
position = "{651, 575}";
}
);
hints = (
{
horizontal = 1;
origin = "{0, 25}";
target = "{0, 7}";
type = Stem;
},
{
horizontal = 1;
origin = "{0, 13}";
target = "{0, 19}";
type = Stem;
},
{
origin = "{0, 22}";
target = "{0, 10}";
type = Stem;
},
{
origin = "{1, 18}";
target = "{1, 5}";
type = Stem;
}
);
layerId = "1D04CB99-59CD-4CDD-8259-0FDF24D9F847";
paths = (
{
closed = 1;
nodes = (
"349 -25 OFFCURVE",
"426 28 OFFCURVE",
"476 121 CURVE",
"496 113 LINE",
"506 247 LINE",
"464 124 OFFCURVE",
"379 50 OFFCURVE",
"303 50 CURVE SMOOTH",
"230 50 OFFCURVE",
"188 106 OFFCURVE",
"188 204 CURVE SMOOTH",
"188 396 OFFCURVE",
"332 529 OFFCURVE",
"574 529 CURVE",
"574 544 OFFCURVE",
"570 556 OFFCURVE",
"562 567 CURVE",
"536 572 OFFCURVE",
"501 575 OFFCURVE",
"464 575 CURVE SMOOTH",
"254 575 OFFCURVE",
"84 412 OFFCURVE",
"84 210 CURVE SMOOTH",
"84 68 OFFCURVE",
"157 -25 OFFCURVE",
"265 -25 CURVE SMOOTH"
);
},
{
closed = 1;
nodes = (
"559 -25 OFFCURVE",
"579 -15 OFFCURVE",
"594 -2 CURVE",
"582 7 OFFCURVE",
"576 34 OFFCURVE",
"576 47 CURVE SMOOTH",
"576 345 OFFCURVE",
"680 646 OFFCURVE",
"680 724 CURVE SMOOTH",
"680 762 OFFCURVE",
"667 775 OFFCURVE",
"636 775 CURVE SMOOTH",
"608 775 OFFCURVE",
"566 763 OFFCURVE",
"539 740 CURVE",
"580 697 LINE",
"545 505 OFFCURVE",
"481 107 OFFCURVE",
"481 38 CURVE SMOOTH",
"481 -5 OFFCURVE",
"501 -25 OFFCURVE",
"531 -25 CURVE SMOOTH"
);
}
);
width = 746;
},
{
anchors = (
{
name = bottom;
position = "{308, 0}";
},
{
name = center;
position = "{619, 612}";
},
{
name = top;
position = "{409, 575}";
},
{
name = topright;
position = "{663, 575}";
}
);
hints = (
{
horizontal = 1;
origin = "{0, 25}";
target = "{0, 7}";
type = Stem;
},
{
horizontal = 1;
origin = "{0, 13}";
target = "{0, 19}";
type = Stem;
},
{
origin = "{0, 22}";
target = "{0, 10}";
type = Stem;
},
{
origin = "{1, 18}";
target = "{1, 5}";
type = Stem;
}
);
layerId = "CE369AAB-0FC9-4F25-BC24-38D80C2A37D0";
paths = (
{
closed = 1;
nodes = (
"342 -25 OFFCURVE",
"418 29 OFFCURVE",
"466 122 CURVE",
"486 114 LINE",
"495 250 LINE",
"455 137 OFFCURVE",
"377 69 OFFCURVE",
"305 69 CURVE SMOOTH",
"237 69 OFFCURVE",
"198 122 OFFCURVE",
"198 213 CURVE SMOOTH",
"198 393 OFFCURVE",
"339 520 OFFCURVE",
"565 520 CURVE",
"565 538 OFFCURVE",
"561 554 OFFCURVE",
"553 567 CURVE",
"528 572 OFFCURVE",
"494 575 OFFCURVE",
"459 575 CURVE SMOOTH",
"243 575 OFFCURVE",
"75 415 OFFCURVE",
"75 210 CURVE SMOOTH",
"75 68 OFFCURVE",
"148 -25 OFFCURVE",
"257 -25 CURVE SMOOTH"
);
},
{
closed = 1;
nodes = (
"565 -25 OFFCURVE",
"590 -14 OFFCURVE",
"610 3 CURVE",
"597 15 OFFCURVE",
"589 40 OFFCURVE",
"589 64 CURVE SMOOTH",
"589 347 OFFCURVE",
"690 638 OFFCURVE",
"690 720 CURVE SMOOTH",
"690 760 OFFCURVE",
"675 775 OFFCURVE",
"638 775 CURVE SMOOTH",
"603 775 OFFCURVE",
"556 759 OFFCURVE",
"523 732 CURVE",
"567 682 LINE",
"534 498 OFFCURVE",
"472 125 OFFCURVE",
"472 54 CURVE SMOOTH",
"472 0 OFFCURVE",
"494 -25 OFFCURVE",
"535 -25 CURVE SMOOTH"
);
}
);
width = 747;
}
);
leftKerningGroup = a;
leftMetricsKey = a;
rightKerningGroup = l;
rightMetricsKey = l;
unicode = 0064;
},
{
color = 10;
glyphname = eth;
layers = (
{
components = (
{
name = strokeshortcomb.Rhalf;
transform = "{0.94, 0.342, -0.342, 0.94, 583, 327}";
}
);
hints = (
{
horizontal = 1;
origin = "{0, 32}";
target = "{0, 14}";
type = Stem;
},
{
horizontal = 1;
origin = "{0, 26}";
target = "{0, 20}";
type = Stem;
},
{
horizontal = 1;
origin = "{0, 8}";
target = "{0, 5}";
type = Stem;
},
{
horizontal = 1;
origin = "{0, 5}";
target = "{0, 8}";
type = Stem;
},
{
origin = "{0, 29}";
target = "{0, 17}";
type = Stem;
},
{
origin = "{0, 11}";
target = "{0, 2}";
type = Stem;
}
);
layerId = "E79706D4-AD71-4087-AB75-377D41BAFC4F";
paths = (
{
closed = 1;
nodes = (
"539 -25 OFFCURVE",
"680 122 OFFCURVE",
"680 337 CURVE SMOOTH",
"680 587 OFFCURVE",
"490 827 OFFCURVE",
"291 827 CURVE SMOOTH",
"212 827 OFFCURVE",
"163 781 OFFCURVE",
"163 706 CURVE",
"360 706 OFFCURVE",
"517 510 OFFCURVE",
"517 291 CURVE SMOOTH",
"517 167 OFFCURVE",
"450 78 OFFCURVE",
"357 78 CURVE SMOOTH",
"283 78 OFFCURVE",
"244 132 OFFCURVE",
"244 236 CURVE SMOOTH",
"244 395 OFFCURVE",
"354 509 OFFCURVE",
"506 509 CURVE",
"507 544 OFFCURVE",
"504 573 OFFCURVE",
"497 592 CURVE",
"475 598 OFFCURVE",
"455 600 OFFCURVE",
"426 600 CURVE SMOOTH",
"204 600 OFFCURVE",
"46 452 OFFCURVE",
"46 245 CURVE SMOOTH",
"46 80 OFFCURVE",
"158 -25 OFFCURVE",
"333 -25 CURVE SMOOTH"
);
}
);
width = 718;
},
{
components = (
{
name = strokeshortcomb.Rhalf;
transform = "{0.94, 0.342, -0.342, 0.94, 569, 353}";
}
);
hints = (
{
horizontal = 1;
origin = "{0, 32}";
target = "{0, 14}";
type = Stem;
},
{
horizontal = 1;
origin = "{0, 26}";
target = "{0, 20}";
type = Stem;
},
{
horizontal = 1;
origin = "{0, 8}";
target = "{0, 5}";
type = Stem;
},
{
horizontal = 1;
origin = "{0, 5}";
target = "{0, 8}";
type = Stem;
},
{
origin = "{0, 29}";
target = "{0, 17}";
type = Stem;
},
{
origin = "{0, 11}";
target = "{0, 2}";
type = Stem;
}
);
layerId = "1D04CB99-59CD-4CDD-8259-0FDF24D9F847";
paths = (
{
closed = 1;
nodes = (
"502 -25 OFFCURVE",
"634 131 OFFCURVE",
"634 354 CURVE SMOOTH",
"634 604 OFFCURVE",
"470 827 OFFCURVE",
"286 827 CURVE SMOOTH",
"250 827 OFFCURVE",
"222 799 OFFCURVE",
"222 763 CURVE",
"400 763 OFFCURVE",
"545 584 OFFCURVE",
"545 306 CURVE SMOOTH",
"545 140 OFFCURVE",
"464 33 OFFCURVE",
"340 33 CURVE SMOOTH",
"249 33 OFFCURVE",
"195 107 OFFCURVE",
"195 230 CURVE SMOOTH",
"195 431 OFFCURVE",
"316 554 OFFCURVE",
"510 554 CURVE",
"509 567 OFFCURVE",
"505 579 OFFCURVE",
"496 592 CURVE",
"476 598 OFFCURVE",
"454 600 OFFCURVE",
"418 600 CURVE SMOOTH",
"226 600 OFFCURVE",
"90 449 OFFCURVE",
"90 235 CURVE SMOOTH",
"90 77 OFFCURVE",
"178 -25 OFFCURVE",
"316 -25 CURVE SMOOTH"
);
}
);
width = 701;
},
{
components = (
{
alignment = -1;
name = strokeshortcomb.Rhalf;
transform = "{0.94, 0.342, -0.342, 0.94, 572, 348}";
}
);
hints = (
{
horizontal = 1;
origin = "{0, 32}";
target = "{0, 14}";
type = Stem;
},
{
horizontal = 1;
origin = "{0, 26}";
target = "{0, 20}";
type = Stem;
},
{
horizontal = 1;
origin = "{0, 8}";
target = "{0, 5}";
type = Stem;
},
{
horizontal = 1;
origin = "{0, 5}";
target = "{0, 8}";
type = Stem;
},
{
origin = "{0, 29}";
target = "{0, 17}";
type = Stem;
},
{
origin = "{0, 11}";
target = "{0, 2}";
type = Stem;
}
);
layerId = "CE369AAB-0FC9-4F25-BC24-38D80C2A37D0";
paths = (
{
closed = 1;
nodes = (
"509 -25 OFFCURVE",
"643 129 OFFCURVE",
"643 351 CURVE SMOOTH",
"643 601 OFFCURVE",
"474 827 OFFCURVE",
"287 827 CURVE SMOOTH",
"242 827 OFFCURVE",
"210 795 OFFCURVE",
"210 752 CURVE",
"392 752 OFFCURVE",
"539 569 OFFCURVE",
"539 303 CURVE SMOOTH",
"539 145 OFFCURVE",
"461 42 OFFCURVE",
"343 42 CURVE SMOOTH",
"256 42 OFFCURVE",
"205 112 OFFCURVE",
"205 231 CURVE SMOOTH",
"205 424 OFFCURVE",
"324 545 OFFCURVE",
"509 545 CURVE",
"509 562 OFFCURVE",
"505 578 OFFCURVE",
"496 592 CURVE",
"476 598 OFFCURVE",
"454 600 OFFCURVE",
"420 600 CURVE SMOOTH",
"222 600 OFFCURVE",
"81 450 OFFCURVE",
"81 237 CURVE SMOOTH",
"81 78 OFFCURVE",
"174 -25 OFFCURVE",
"319 -25 CURVE SMOOTH"
);
}
);
width = 704;
}
);
leftKerningGroup = eth;
leftMetricsKey = o;
rightKerningGroup = eth;
unicode = 00F0;
},
{
color = 10;
glyphname = e;
layers = (
{
anchors = (
{
name = bottom;
position = "{318, 0}";
},
{
name = ogonek;
position = "{453, 0}";
},
{
name = top;
position = "{420, 575}";
}
);
hints = (
{
horizontal = 1;
origin = "{0, 33}";
target = "{0, 8}";
type = Stem;
},
{
horizontal = 1;
origin = "{0, 21}";
target = "{0, 20}";
type = Stem;
},
{
horizontal = 1;
origin = "{0, 27}";
target = "{0, 14}";
type = Stem;
},
{
origin = "{0, 30}";
target = "{0, 11}";
type = Stem;
},
{
origin = "{0, 17}";
target = "{0, 24}";
type = Stem;
},
{
origin = "{0, 5}";
target = "{0, 2}";
type = Stem;
}
);
layerId = "E79706D4-AD71-4087-AB75-377D41BAFC4F";
paths = (
{
closed = 1;
nodes = (
"456 -25 OFFCURVE",
"572 42 OFFCURVE",
"572 128 CURVE SMOOTH",
"572 184 OFFCURVE",
"529 214 OFFCURVE",
"449 214 CURVE",
"446 132 OFFCURVE",
"398 78 OFFCURVE",
"330 78 CURVE SMOOTH",
"274 78 OFFCURVE",
"241 132 OFFCURVE",
"241 223 CURVE SMOOTH",
"241 359 OFFCURVE",
"318 483 OFFCURVE",
"403 483 CURVE SMOOTH",
"435 483 OFFCURVE",
"457 463 OFFCURVE",
"457 434 CURVE SMOOTH",
"457 360 OFFCURVE",
"377 314 OFFCURVE",
"235 306 CURVE",
"222 232 LINE",
"475 227 OFFCURVE",
"630 312 OFFCURVE",
"630 455 CURVE SMOOTH",
"630 547 OFFCURVE",
"559 600 OFFCURVE",
"437 600 CURVE SMOOTH",
"210 600 OFFCURVE",
"43 441 OFFCURVE",
"43 225 CURVE SMOOTH",
"43 68 OFFCURVE",
"142 -25 OFFCURVE",
"308 -25 CURVE SMOOTH"
);
}
);
width = 661;
},
{
anchors = (
{
name = bottom;
position = "{309, 0}";
},
{
name = ogonek;
position = "{429, 0}";
},
{
name = top;
position = "{411, 575}";
}
);
hints = (
{
horizontal = 1;
origin = "{0, 33}";
target = "{0, 8}";
type = Stem;
},
{
horizontal = 1;
origin = "{0, 21}";
target = "{0, 20}";
type = Stem;
},
{
horizontal = 1;
origin = "{0, 27}";
target = "{0, 14}";
type = Stem;
},
{
origin = "{0, 30}";
target = "{0, 11}";
type = Stem;
},
{
origin = "{0, 17}";
target = "{0, 24}";
type = Stem;
},
{
origin = "{0, 5}";
target = "{0, 2}";
type = Stem;
}
);
layerId = "1D04CB99-59CD-4CDD-8259-0FDF24D9F847";
paths = (
{
closed = 1;
nodes = (
"439 -25 OFFCURVE",
"540 53 OFFCURVE",
"540 133 CURVE SMOOTH",
"540 172 OFFCURVE",
"512 187 OFFCURVE",
"469 187 CURVE",
"463 93 OFFCURVE",
"400 33 OFFCURVE",
"310 33 CURVE SMOOTH",
"236 33 OFFCURVE",
"192 101 OFFCURVE",
"192 211 CURVE SMOOTH",
"192 400 OFFCURVE",
"299 551 OFFCURVE",
"428 551 CURVE SMOOTH",
"478 551 OFFCURVE",
"510 517 OFFCURVE",
"510 467 CURVE SMOOTH",
"510 348 OFFCURVE",
"384 280 OFFCURVE",
"173 284 CURVE",
"161 232 LINE",
"444 235 OFFCURVE",
"602 315 OFFCURVE",
"602 458 CURVE SMOOTH",
"602 547 OFFCURVE",
"542 600 OFFCURVE",
"441 600 CURVE SMOOTH",
"239 600 OFFCURVE",
"87 438 OFFCURVE",
"87 218 CURVE SMOOTH",
"87 67 OFFCURVE",
"167 -25 OFFCURVE",
"303 -25 CURVE SMOOTH"
);
}
);
width = 647;
},
{
anchors = (
{
name = bottom;
position = "{311, 0}";
},
{
name = ogonek;
position = "{434, 0}";
},
{
name = top;
position = "{413, 575}";
}
);
hints = (
{
horizontal = 1;
origin = "{0, 33}";
target = "{0, 8}";
type = Stem;
},
{
horizontal = 1;
origin = "{0, 21}";
target = "{0, 20}";
type = Stem;
},
{
horizontal = 1;
origin = "{0, 27}";
target = "{0, 14}";
type = Stem;
},
{
origin = "{0, 30}";
target = "{0, 11}";
type = Stem;
},
{
origin = "{0, 17}";
target = "{0, 24}";
type = Stem;
},
{
origin = "{0, 5}";
target = "{0, 2}";
type = Stem;
}
);
layerId = "CE369AAB-0FC9-4F25-BC24-38D80C2A37D0";
paths = (
{
closed = 1;
nodes = (
"442 -25 OFFCURVE",
"546 51 OFFCURVE",
"546 132 CURVE SMOOTH",
"546 174 OFFCURVE",
"515 192 OFFCURVE",
"465 192 CURVE",
"460 101 OFFCURVE",
"400 42 OFFCURVE",
"314 42 CURVE SMOOTH",
"244 42 OFFCURVE",
"202 107 OFFCURVE",
"202 213 CURVE SMOOTH",
"202 392 OFFCURVE",
"303 537 OFFCURVE",
"423 537 CURVE SMOOTH",
"469 537 OFFCURVE",
"499 506 OFFCURVE",
"499 460 CURVE SMOOTH",
"499 350 OFFCURVE",
"383 287 OFFCURVE",
"185 288 CURVE",
"173 232 LINE",
"450 233 OFFCURVE",
"608 314 OFFCURVE",
"608 457 CURVE SMOOTH",
"608 547 OFFCURVE",
"545 600 OFFCURVE",
"440 600 CURVE SMOOTH",
"233 600 OFFCURVE",
"78 439 OFFCURVE",
"78 219 CURVE SMOOTH",
"78 67 OFFCURVE",
"162 -25 OFFCURVE",
"304 -25 CURVE SMOOTH"
);
}
);
width = 650;
}
);
leftKerningGroup = o;
leftMetricsKey = o;
rightKerningGroup = e;
unicode = 0065;
},
{
color = 10;
glyphname = f;
layers = (
{
hints = (
{
horizontal = 1;
origin = "{1, 2}";
target = "{1, 8}";
type = Stem;
},
{
horizontal = 1;
origin = "{0, 10}";
target = "{0, 19}";
type = Stem;
},
{
origin = "{0, 28}";
target = "{0, 5}";
type = Stem;
}
);
layerId = "E79706D4-AD71-4087-AB75-377D41BAFC4F";
paths = (
{
closed = 1;
nodes = (
"222 -200 OFFCURVE",
"263 -184 OFFCURVE",
"312 -151 CURVE",
"292 -134 OFFCURVE",
"281 -102 OFFCURVE",
"281 -60 CURVE SMOOTH",
"281 16 OFFCURVE",
"310 208 OFFCURVE",
"349 379 CURVE",
"274 590 LINE",
"288 600 LINE",
"311 585 OFFCURVE",
"338 577 OFFCURVE",
"367 577 CURVE SMOOTH",
"433 577 OFFCURVE",
"479 619 OFFCURVE",
"479 680 CURVE SMOOTH",
"479 741 OFFCURVE",
"425 787 OFFCURVE",
"353 787 CURVE SMOOTH",
"223 787 OFFCURVE",
"151 693 OFFCURVE",
"151 544 CURVE SMOOTH",
"151 513 OFFCURVE",
"154 481 OFFCURVE",
"160 446 CURVE",
"100 153 OFFCURVE",
"70 -15 OFFCURVE",
"70 -82 CURVE SMOOTH",
"70 -157 OFFCURVE",
"111 -200 OFFCURVE",
"182 -200 CURVE SMOOTH"
);
},
{
closed = 1;
nodes = (
"131 341 OFFCURVE",
"223 355 OFFCURVE",
"310 355 CURVE SMOOTH",
"382 355 OFFCURVE",
"422 390 OFFCURVE",
"422 453 CURVE SMOOTH",
"422 466 OFFCURVE",
"419 485 OFFCURVE",
"415 498 CURVE",
"351 474 OFFCURVE",
"259 460 OFFCURVE",
"172 460 CURVE SMOOTH",
"100 460 OFFCURVE",
"60 425 OFFCURVE",
"60 362 CURVE SMOOTH",
"60 349 OFFCURVE",
"63 330 OFFCURVE",
"67 317 CURVE"
);
}
);
width = 439;
},
{
hints = (
{
horizontal = 1;
origin = "{1, 2}";
target = "{1, 8}";
type = Stem;
},
{
horizontal = 1;
origin = "{0, 10}";
target = "{0, 19}";
type = Stem;
},
{
origin = "{0, 28}";
target = "{0, 5}";
type = Stem;
}
);
layerId = "1D04CB99-59CD-4CDD-8259-0FDF24D9F847";
paths = (
{
closed = 1;
nodes = (
"186 -200 OFFCURVE",
"204 -193 OFFCURVE",
"228 -178 CURVE",
"215 -170 OFFCURVE",
"209 -155 OFFCURVE",
"209 -135 CURVE SMOOTH",
"209 -37 OFFCURVE",
"250 207 OFFCURVE",
"310 424 CURVE",
"262 677 LINE",
"270 684 LINE",
"293 663 OFFCURVE",
"321 655 OFFCURVE",
"349 655 CURVE SMOOTH",
"391 655 OFFCURVE",
"419 681 OFFCURVE",
"419 719 CURVE SMOOTH",
"419 758 OFFCURVE",
"384 787 OFFCURVE",
"336 787 CURVE SMOOTH",
"271 787 OFFCURVE",
"208 749 OFFCURVE",
"208 615 CURVE SMOOTH",
"208 567 OFFCURVE",
"211 511 OFFCURVE",
"218 445 CURVE",
"151 125 OFFCURVE",
"113 -57 OFFCURVE",
"113 -132 CURVE SMOOTH",
"113 -175 OFFCURVE",
"133 -200 OFFCURVE",
"167 -200 CURVE SMOOTH"
);
},
{
closed = 1;
nodes = (
"172 389 OFFCURVE",
"259 400 OFFCURVE",
"295 400 CURVE SMOOTH",
"352 400 OFFCURVE",
"407 416 OFFCURVE",
"407 461 CURVE SMOOTH",
"407 469 OFFCURVE",
"404 482 OFFCURVE",
"400 491 CURVE",
"341 471 OFFCURVE",
"253 460 OFFCURVE",
"217 460 CURVE SMOOTH",
"160 460 OFFCURVE",
"105 445 OFFCURVE",
"105 400 CURVE SMOOTH",
"105 391 OFFCURVE",
"108 378 OFFCURVE",
"112 370 CURVE"
);
}
);
width = 432;
},
{
hints = (
{
horizontal = 1;
origin = "{1, 2}";
target = "{1, 8}";
type = Stem;
},
{
horizontal = 1;
origin = "{0, 10}";
target = "{0, 19}";
type = Stem;
},
{
origin = "{0, 28}";
target = "{0, 5}";
type = Stem;
}
);
layerId = "CE369AAB-0FC9-4F25-BC24-38D80C2A37D0";
paths = (
{
closed = 1;
nodes = (
"193 -200 OFFCURVE",
"216 -191 OFFCURVE",
"245 -173 CURVE",
"230 -163 OFFCURVE",
"223 -144 OFFCURVE",
"223 -120 CURVE SMOOTH",
"223 -26 OFFCURVE",
"262 207 OFFCURVE",
"318 415 CURVE",
"264 660 LINE",
"274 667 LINE",
"297 647 OFFCURVE",
"324 639 OFFCURVE",
"353 639 CURVE SMOOTH",
"399 639 OFFCURVE",
"431 669 OFFCURVE",
"431 711 CURVE SMOOTH",
"431 755 OFFCURVE",
"392 787 OFFCURVE",
"339 787 CURVE SMOOTH",
"261 787 OFFCURVE",
"197 738 OFFCURVE",
"197 601 CURVE SMOOTH",
"197 556 OFFCURVE",
"200 505 OFFCURVE",
"206 445 CURVE",
"141 131 OFFCURVE",
"104 -49 OFFCURVE",
"104 -122 CURVE SMOOTH",
"104 -171 OFFCURVE",
"129 -200 OFFCURVE",
"170 -200 CURVE SMOOTH"
);
},
{
closed = 1;
nodes = (
"164 379 OFFCURVE",
"252 391 OFFCURVE",
"298 391 CURVE SMOOTH",
"358 391 OFFCURVE",
"410 411 OFFCURVE",
"410 459 CURVE SMOOTH",
"410 468 OFFCURVE",
"407 483 OFFCURVE",
"403 492 CURVE",
"343 472 OFFCURVE",
"254 460 OFFCURVE",
"208 460 CURVE SMOOTH",
"148 460 OFFCURVE",
"96 441 OFFCURVE",
"96 392 CURVE SMOOTH",
"96 383 OFFCURVE",
"99 368 OFFCURVE",
"103 359 CURVE"
);
}
);
width = 433;
}
);
leftKerningGroup = f;
rightKerningGroup = f;
unicode = 0066;
},
{
color = 10;
glyphname = g;
layers = (
{
anchors = (
{
name = bottom;
position = "{312, 0}";
},
{
name = top;
position = "{413, 575}";
}
);
hints = (
{
horizontal = 1;
origin = "{0, 20}";
target = "{0, 11}";
type = Stem;
},
{
horizontal = 1;
origin = "{1, 25}";
target = "{1, 7}";
type = Stem;
},
{
horizontal = 1;
origin = "{1, 19}";
target = "{0, 8}";
type = Stem;
},
{
origin = "{1, 22}";
target = "{1, 10}";
type = Stem;
},
{
origin = "{0, 8}";
target = "{0, 2}";
type = Stem;
}
);
layerId = "E79706D4-AD71-4087-AB75-377D41BAFC4F";
paths = (
{
closed = 1;
nodes = (
"544 -238 OFFCURVE",
"675 156 OFFCURVE",
"675 505 CURVE SMOOTH",
"675 551 OFFCURVE",
"651 576 OFFCURVE",
"604 576 CURVE SMOOTH",
"550 576 OFFCURVE",
"508 555 OFFCURVE",
"471 509 CURVE",
"482 29 OFFCURVE",
"320 -89 OFFCURVE",
"180 -89 CURVE SMOOTH",
"120 -89 OFFCURVE",
"65 -66 OFFCURVE",
"33 -15 CURVE",
"-2 -35 OFFCURVE",
"-29 -80 OFFCURVE",
"-29 -124 CURVE SMOOTH",
"-29 -197 OFFCURVE",
"41 -238 OFFCURVE",
"168 -238 CURVE SMOOTH"
);
},
{
closed = 1;
nodes = (
"291 10 OFFCURVE",
"369 63 OFFCURVE",
"409 153 CURVE",
"471 153 LINE",
"471 509 LINE",
"471 216 OFFCURVE",
"355 142 OFFCURVE",
"289 142 CURVE SMOOTH",
"237 142 OFFCURVE",
"206 183 OFFCURVE",
"206 254 CURVE SMOOTH",
"206 395 OFFCURVE",
"340 509 OFFCURVE",
"503 509 CURVE",
"503 540 OFFCURVE",
"499 570 OFFCURVE",
"491 592 CURVE",
"468 597 OFFCURVE",
"439 600 OFFCURVE",
"412 600 CURVE SMOOTH",
"172 600 OFFCURVE",
"8 452 OFFCURVE",
"8 235 CURVE SMOOTH",
"8 99 OFFCURVE",
"84 10 OFFCURVE",
"200 10 CURVE SMOOTH"
);
}
);
width = 702;
},
{
anchors = (
{
name = bottom;
position = "{303, 0}";
},
{
name = top;
position = "{404, 575}";
}
);
hints = (
{
horizontal = 1;
origin = "{0, 20}";
target = "{0, 11}";
type = Stem;
},
{
horizontal = 1;
origin = "{1, 25}";
target = "{1, 7}";
type = Stem;
},
{
horizontal = 1;
origin = "{1, 19}";
target = "{0, 8}";
type = Stem;
},
{
origin = "{1, 22}";
target = "{1, 10}";
type = Stem;
},
{
origin = "{0, 8}";
target = "{0, 2}";
type = Stem;
}
);
layerId = "1D04CB99-59CD-4CDD-8259-0FDF24D9F847";
paths = (
{
closed = 1;
nodes = (
"486 -234 OFFCURVE",
"602 131 OFFCURVE",
"602 549 CURVE SMOOTH",
"602 568 OFFCURVE",
"591 578 OFFCURVE",
"568 578 CURVE SMOOTH",
"559 578 OFFCURVE",
"552 576 OFFCURVE",
"521 554 CURVE",
"545 -15 OFFCURVE",
"308 -164 OFFCURVE",
"183 -164 CURVE SMOOTH",
"117 -164 OFFCURVE",
"76 -137 OFFCURVE",
"47 -84 CURVE",
"21 -104 OFFCURVE",
"4 -131 OFFCURVE",
"4 -154 CURVE SMOOTH",
"4 -200 OFFCURVE",
"67 -234 OFFCURVE",
"156 -234 CURVE SMOOTH"
);
},
{
closed = 1;
nodes = (
"322 3 OFFCURVE",
"412 54 OFFCURVE",
"461 146 CURVE",
"526 146 LINE",
"520 554 LINE",
"520 168 OFFCURVE",
"361 75 OFFCURVE",
"278 75 CURVE SMOOTH",
"202 75 OFFCURVE",
"158 135 OFFCURVE",
"158 239 CURVE SMOOTH",
"158 425 OFFCURVE",
"298 554 OFFCURVE",
"534 554 CURVE",
"534 569 OFFCURVE",
"530 581 OFFCURVE",
"522 592 CURVE",
"496 597 OFFCURVE",
"461 600 OFFCURVE",
"424 600 CURVE SMOOTH",
"191 600 OFFCURVE",
"54 437 OFFCURVE",
"54 235 CURVE SMOOTH",
"54 95 OFFCURVE",
"129 3 OFFCURVE",
"240 3 CURVE SMOOTH"
);
}
);
width = 665;
},
{
anchors = (
{
name = bottom;
position = "{305, 0}";
},
{
name = top;
position = "{406, 575}";
}
);
hints = (
{
horizontal = 1;
origin = "{0, 20}";
target = "{0, 11}";
type = Stem;
},
{
horizontal = 1;
origin = "{1, 25}";
target = "{1, 7}";
type = Stem;
},
{
horizontal = 1;
origin = "{1, 19}";
target = "{0, 8}";
type = Stem;
},
{
origin = "{1, 22}";
target = "{1, 10}";
type = Stem;
},
{
origin = "{0, 8}";
target = "{0, 2}";
type = Stem;
}
);
layerId = "CE369AAB-0FC9-4F25-BC24-38D80C2A37D0";
paths = (
{
closed = 1;
nodes = (
"498 -235 OFFCURVE",
"617 136 OFFCURVE",
"617 540 CURVE SMOOTH",
"617 565 OFFCURVE",
"603 578 OFFCURVE",
"575 578 CURVE SMOOTH",
"557 578 OFFCURVE",
"543 572 OFFCURVE",
"511 545 CURVE",
"532 -6 OFFCURVE",
"310 -149 OFFCURVE",
"182 -149 CURVE SMOOTH",
"118 -149 OFFCURVE",
"74 -123 OFFCURVE",
"44 -70 CURVE",
"16 -90 OFFCURVE",
"-3 -121 OFFCURVE",
"-3 -148 CURVE SMOOTH",
"-3 -199 OFFCURVE",
"62 -235 OFFCURVE",
"158 -235 CURVE SMOOTH"
);
},
{
closed = 1;
nodes = (
"316 4 OFFCURVE",
"403 56 OFFCURVE",
"451 147 CURVE",
"515 147 LINE",
"510 545 LINE",
"510 178 OFFCURVE",
"360 88 OFFCURVE",
"280 88 CURVE SMOOTH",
"209 88 OFFCURVE",
"168 145 OFFCURVE",
"168 242 CURVE SMOOTH",
"168 419 OFFCURVE",
"306 545 OFFCURVE",
"528 545 CURVE",
"528 563 OFFCURVE",
"524 579 OFFCURVE",
"516 592 CURVE",
"490 597 OFFCURVE",
"457 600 OFFCURVE",
"422 600 CURVE SMOOTH",
"187 600 OFFCURVE",
"45 440 OFFCURVE",
"45 235 CURVE SMOOTH",
"45 96 OFFCURVE",
"120 4 OFFCURVE",
"232 4 CURVE SMOOTH"
);
}
);
width = 672;
}
);
leftKerningGroup = a;
leftMetricsKey = "=a-35";
rightKerningGroup = g;
unicode = 0067;
},
{
color = 10;
glyphname = h;
layers = (
{
anchors = (
{
name = bottom;
position = "{377, 0}";
},
{
name = center;
position = "{249, 612}";
},
{
name = top;
position = "{263, 725}";
}
);
hints = (
{
horizontal = 1;
origin = "{0, 29}";
target = "{0, 8}";
type = Stem;
},
{
origin = "{0, 46}";
target = "{0, 5}";
type = Stem;
},
{
origin = "{0, 14}";
target = "{0, 23}";
type = Stem;
}
);
layerId = "E79706D4-AD71-4087-AB75-377D41BAFC4F";
paths = (
{
closed = 1;
nodes = (
"214 -25 OFFCURVE",
"251 -9 OFFCURVE",
"287 24 CURVE",
"274 42 OFFCURVE",
"266 75 OFFCURVE",
"266 115 CURVE SMOOTH",
"266 309 OFFCURVE",
"407 443 OFFCURVE",
"479 443 CURVE SMOOTH",
"504 443 OFFCURVE",
"513 427 OFFCURVE",
"513 401 CURVE SMOOTH",
"513 329 OFFCURVE",
"453 210 OFFCURVE",
"453 99 CURVE SMOOTH",
"453 19 OFFCURVE",
"486 -25 OFFCURVE",
"570 -25 CURVE SMOOTH",
"607 -25 OFFCURVE",
"644 -9 OFFCURVE",
"680 24 CURVE",
"667 42 OFFCURVE",
"659 75 OFFCURVE",
"659 115 CURVE SMOOTH",
"659 239 OFFCURVE",
"718 371 OFFCURVE",
"718 479 CURVE SMOOTH",
"718 562 OFFCURVE",
"678 600 OFFCURVE",
"597 600 CURVE SMOOTH",
"495 600 OFFCURVE",
"394 535 OFFCURVE",
"313 396 CURVE",
"303 401 LINE",
"329 530 OFFCURVE",
"365 646 OFFCURVE",
"365 704 CURVE SMOOTH",
"365 754 OFFCURVE",
"343 775 OFFCURVE",
"280 775 CURVE SMOOTH",
"219 775 OFFCURVE",
"149 743 OFFCURVE",
"93 702 CURVE",
"149 622 LINE",
"120 466 OFFCURVE",
"60 178 OFFCURVE",
"60 99 CURVE SMOOTH",
"60 19 OFFCURVE",
"93 -25 OFFCURVE",
"177 -25 CURVE SMOOTH"
);
}
);
width = 763;
},
{
anchors = (
{
name = bottom;
position = "{356, 0}";
},
{
name = center;
position = "{242, 612}";
},
{
name = top;
position = "{263, 725}";
}
);
hints = (
{
horizontal = 1;
origin = "{0, 29}";
target = "{0, 8}";
type = Stem;
},
{
origin = "{0, 46}";
target = "{0, 5}";
type = Stem;
},
{
origin = "{0, 14}";
target = "{0, 23}";
type = Stem;
}
);
layerId = "1D04CB99-59CD-4CDD-8259-0FDF24D9F847";
paths = (
{
closed = 1;
nodes = (
"161 -25 OFFCURVE",
"179 -18 OFFCURVE",
"195 -2 CURVE",
"188 6 OFFCURVE",
"185 23 OFFCURVE",
"185 40 CURVE SMOOTH",
"185 332 OFFCURVE",
"347 533 OFFCURVE",
"476 533 CURVE SMOOTH",
"525 533 OFFCURVE",
"544 499 OFFCURVE",
"544 442 CURVE SMOOTH",
"544 344 OFFCURVE",
"480 143 OFFCURVE",
"480 33 CURVE SMOOTH",
"480 -5 OFFCURVE",
"496 -25 OFFCURVE",
"535 -25 CURVE SMOOTH",
"553 -25 OFFCURVE",
"570 -18 OFFCURVE",
"587 -2 CURVE",
"580 6 OFFCURVE",
"576 23 OFFCURVE",
"576 40 CURVE SMOOTH",
"576 185 OFFCURVE",
"649 338 OFFCURVE",
"649 464 CURVE SMOOTH",
"649 558 OFFCURVE",
"606 600 OFFCURVE",
"519 600 CURVE SMOOTH",
"436 600 OFFCURVE",
"328 555 OFFCURVE",
"250 413 CURVE",
"240 418 LINE",
"278 595 OFFCURVE",
"306 678 OFFCURVE",
"306 724 CURVE SMOOTH",
"306 762 OFFCURVE",
"293 775 OFFCURVE",
"262 775 CURVE SMOOTH",
"234 775 OFFCURVE",
"192 763 OFFCURVE",
"165 740 CURVE",
"206 697 LINE",
"153 411 OFFCURVE",
"88 102 OFFCURVE",
"88 33 CURVE SMOOTH",
"88 -5 OFFCURVE",
"105 -25 OFFCURVE",
"144 -25 CURVE SMOOTH"
);
}
);
width = 730;
},
{
anchors = (
{
name = bottom;
position = "{360, 0}";
},
{
name = center;
position = "{243, 612}";
},
{
name = top;
position = "{263, 725}";
}
);
hints = (
{
horizontal = 1;
origin = "{0, 29}";
target = "{0, 8}";
type = Stem;
},
{
origin = "{0, 46}";
target = "{0, 5}";
type = Stem;
},
{
origin = "{0, 14}";
target = "{0, 23}";
type = Stem;
}
);
layerId = "CE369AAB-0FC9-4F25-BC24-38D80C2A37D0";
paths = (
{
closed = 1;
nodes = (
"172 -25 OFFCURVE",
"193 -16 OFFCURVE",
"213 3 CURVE",
"205 13 OFFCURVE",
"201 33 OFFCURVE",
"201 55 CURVE SMOOTH",
"201 327 OFFCURVE",
"359 515 OFFCURVE",
"477 515 CURVE SMOOTH",
"521 515 OFFCURVE",
"538 485 OFFCURVE",
"538 434 CURVE SMOOTH",
"538 341 OFFCURVE",
"475 156 OFFCURVE",
"475 46 CURVE SMOOTH",
"475 0 OFFCURVE",
"494 -25 OFFCURVE",
"542 -25 CURVE SMOOTH",
"564 -25 OFFCURVE",
"585 -16 OFFCURVE",
"606 3 CURVE",
"597 13 OFFCURVE",
"593 33 OFFCURVE",
"593 55 CURVE SMOOTH",
"593 196 OFFCURVE",
"663 345 OFFCURVE",
"663 467 CURVE SMOOTH",
"663 559 OFFCURVE",
"620 600 OFFCURVE",
"535 600 CURVE SMOOTH",
"448 600 OFFCURVE",
"341 551 OFFCURVE",
"263 410 CURVE",
"253 415 LINE",
"288 582 OFFCURVE",
"318 672 OFFCURVE",
"318 720 CURVE SMOOTH",
"318 760 OFFCURVE",
"303 775 OFFCURVE",
"266 775 CURVE SMOOTH",
"231 775 OFFCURVE",
"183 759 OFFCURVE",
"151 732 CURVE",
"195 682 LINE",
"146 422 OFFCURVE",
"82 117 OFFCURVE",
"82 46 CURVE SMOOTH",
"82 0 OFFCURVE",
"103 -25 OFFCURVE",
"151 -25 CURVE SMOOTH"
);
}
);
width = 737;
}
);
leftKerningGroup = h;
leftMetricsKey = l;
rightKerningGroup = n;
rightMetricsKey = n;
unicode = 0068;
},
{
color = 10;
glyphname = i;
layers = (
{
anchors = (
{
name = bottom;
position = "{175, 0}";
},
{
name = ogonek;
position = "{302, 24}";
}
);
hints = (
{
horizontal = 1;
origin = "{1, 11}";
target = "{1, 5}";
type = Stem;
},
{
origin = "{0, 18}";
target = "{0, 5}";
type = Stem;
},
{
horizontal = 1;
origin = "{0, 11}";
target = down;
type = TopGhost;
},
{
origin = "{1, 8}";
target = "{1, 2}";
type = Stem;
}
);
layerId = "E79706D4-AD71-4087-AB75-377D41BAFC4F";
paths = (
{
closed = 1;
nodes = (
"223 -25 OFFCURVE",
"264 -9 OFFCURVE",
"302 24 CURVE",
"281 42 OFFCURVE",
"271 75 OFFCURVE",
"271 115 CURVE SMOOTH",
"271 243 OFFCURVE",
"345 476 OFFCURVE",
"345 526 CURVE SMOOTH",
"345 577 OFFCURVE",
"326 600 OFFCURVE",
"270 600 CURVE SMOOTH",
"206 600 OFFCURVE",
"133 567 OFFCURVE",
"73 525 CURVE",
"129 441 LINE",
"102 324 OFFCURVE",
"65 158 OFFCURVE",
"65 99 CURVE SMOOTH",
"65 19 OFFCURVE",
"98 -25 OFFCURVE",
"183 -25 CURVE SMOOTH"
);
},
{
closed = 1;
nodes = (
"314 655 OFFCURVE",
"378 699 OFFCURVE",
"378 764 CURVE SMOOTH",
"378 816 OFFCURVE",
"333 847 OFFCURVE",
"272 847 CURVE SMOOTH",
"215 847 OFFCURVE",
"137 811 OFFCURVE",
"137 738 CURVE SMOOTH",
"137 686 OFFCURVE",
"182 655 OFFCURVE",
"243 655 CURVE SMOOTH"
);
}
);
width = 388;
},
{
anchors = (
{
name = bottom;
position = "{160, 0}";
},
{
name = ogonek;
position = "{224, -3}";
}
);
hints = (
{
horizontal = 1;
origin = "{1, 11}";
target = "{1, 5}";
type = Stem;
},
{
origin = "{0, 18}";
target = "{0, 5}";
type = Stem;
},
{
horizontal = 1;
origin = "{0, 11}";
target = down;
type = TopGhost;
},
{
origin = "{1, 8}";
target = "{1, 2}";
type = Stem;
}
);
layerId = "1D04CB99-59CD-4CDD-8259-0FDF24D9F847";
paths = (
{
closed = 1;
nodes = (
"190 -25 OFFCURVE",
"207 -18 OFFCURVE",
"224 -3 CURVE",
"215 5 OFFCURVE",
"210 18 OFFCURVE",
"210 40 CURVE SMOOTH",
"210 201 OFFCURVE",
"305 529 OFFCURVE",
"305 550 CURVE SMOOTH",
"305 588 OFFCURVE",
"290 600 OFFCURVE",
"255 600 CURVE SMOOTH",
"229 600 OFFCURVE",
"189 588 OFFCURVE",
"163 566 CURVE",
"204 525 LINE",
"131 197 OFFCURVE",
"113 85 OFFCURVE",
"113 33 CURVE SMOOTH",
"113 -10 OFFCURVE",
"133 -25 OFFCURVE",
"168 -25 CURVE SMOOTH"
);
},
{
closed = 1;
nodes = (
"311 693 OFFCURVE",
"342 723 OFFCURVE",
"342 760 CURVE SMOOTH",
"342 789 OFFCURVE",
"320 810 OFFCURVE",
"281 810 CURVE SMOOTH",
"229 810 OFFCURVE",
"203 774 OFFCURVE",
"203 743 CURVE SMOOTH",
"203 713 OFFCURVE",
"226 693 OFFCURVE",
"264 693 CURVE SMOOTH"
);
}
);
width = 388;
},
{
anchors = (
{
name = bottom;
position = "{163, 0}";
},
{
name = ogonek;
position = "{240, 2}";
}
);
hints = (
{
horizontal = 1;
origin = "{1, 11}";
target = "{1, 5}";
type = Stem;
},
{
origin = "{0, 18}";
target = "{0, 5}";
type = Stem;
},
{
horizontal = 1;
origin = "{0, 11}";
target = down;
type = TopGhost;
},
{
origin = "{1, 8}";
target = "{1, 2}";
type = Stem;
}
);
layerId = "CE369AAB-0FC9-4F25-BC24-38D80C2A37D0";
paths = (
{
closed = 1;
nodes = (
"197 -25 OFFCURVE",
"218 -16 OFFCURVE",
"240 2 CURVE",
"228 12 OFFCURVE",
"222 29 OFFCURVE",
"222 55 CURVE SMOOTH",
"222 209 OFFCURVE",
"313 518 OFFCURVE",
"313 545 CURVE SMOOTH",
"313 586 OFFCURVE",
"297 600 OFFCURVE",
"258 600 CURVE SMOOTH",
"224 600 OFFCURVE",
"178 584 OFFCURVE",
"145 558 CURVE",
"189 508 LINE",
"125 222 OFFCURVE",
"103 100 OFFCURVE",
"103 46 CURVE SMOOTH",
"103 -4 OFFCURVE",
"126 -25 OFFCURVE",
"171 -25 CURVE SMOOTH"
);
},
{
closed = 1;
nodes = (
"312 685 OFFCURVE",
"349 718 OFFCURVE",
"349 761 CURVE SMOOTH",
"349 794 OFFCURVE",
"323 817 OFFCURVE",
"279 817 CURVE SMOOTH",
"226 817 OFFCURVE",
"190 781 OFFCURVE",
"190 742 CURVE SMOOTH",
"190 708 OFFCURVE",
"217 685 OFFCURVE",
"260 685 CURVE SMOOTH"
);
}
);
width = 388;
}
);
leftKerningGroup = i;
rightKerningGroup = i;
unicode = 0069;
},
{
color = 10;
glyphname = idotless;
layers = (
{
anchors = (
{
name = bottom;
position = "{143, 0}";
},
{
name = ogonek;
position = "{302, 24}";
},
{
name = top;
position = "{245, 575}";
}
);
hints = (
{
origin = "{0, 18}";
target = "{0, 5}";
type = Stem;
}
);
layerId = "E79706D4-AD71-4087-AB75-377D41BAFC4F";
paths = (
{
closed = 1;
nodes = (
"223 -25 OFFCURVE",
"264 -9 OFFCURVE",
"302 24 CURVE",
"281 42 OFFCURVE",
"271 75 OFFCURVE",
"271 115 CURVE SMOOTH",
"271 243 OFFCURVE",
"345 476 OFFCURVE",
"345 526 CURVE SMOOTH",
"345 577 OFFCURVE",
"326 600 OFFCURVE",
"270 600 CURVE SMOOTH",
"206 600 OFFCURVE",
"133 567 OFFCURVE",
"73 525 CURVE",
"129 441 LINE",
"102 324 OFFCURVE",
"65 158 OFFCURVE",
"65 99 CURVE SMOOTH",
"65 19 OFFCURVE",
"98 -25 OFFCURVE",
"183 -25 CURVE SMOOTH"
);
}
);
width = 388;
},
{
anchors = (
{
name = bottom;
position = "{143, 0}";
},
{
name = ogonek;
position = "{224, -3}";
},
{
name = top;
position = "{245, 575}";
}
);
hints = (
{
origin = "{0, 18}";
target = "{0, 5}";
type = Stem;
}
);
layerId = "1D04CB99-59CD-4CDD-8259-0FDF24D9F847";
paths = (
{
closed = 1;
nodes = (
"190 -25 OFFCURVE",
"207 -18 OFFCURVE",
"224 -3 CURVE",
"215 5 OFFCURVE",
"210 18 OFFCURVE",
"210 40 CURVE SMOOTH",
"210 201 OFFCURVE",
"305 529 OFFCURVE",
"305 550 CURVE SMOOTH",
"305 588 OFFCURVE",
"290 600 OFFCURVE",
"255 600 CURVE SMOOTH",
"229 600 OFFCURVE",
"189 588 OFFCURVE",
"163 566 CURVE",
"204 525 LINE",
"132 200 OFFCURVE",
"113 85 OFFCURVE",
"113 33 CURVE SMOOTH",
"113 -10 OFFCURVE",
"133 -25 OFFCURVE",
"168 -25 CURVE SMOOTH"
);
}
);
width = 388;
},
{
anchors = (
{
name = bottom;
position = "{143, 0}";
},
{
name = ogonek;
position = "{240, 2}";
},
{
name = top;
position = "{245, 575}";
}
);
hints = (
{
origin = "{0, 18}";
target = "{0, 5}";
type = Stem;
}
);
layerId = "CE369AAB-0FC9-4F25-BC24-38D80C2A37D0";
paths = (
{
closed = 1;
nodes = (
"197 -25 OFFCURVE",
"218 -16 OFFCURVE",
"240 2 CURVE",
"228 12 OFFCURVE",
"222 29 OFFCURVE",
"222 55 CURVE SMOOTH",
"222 209 OFFCURVE",
"313 518 OFFCURVE",
"313 545 CURVE SMOOTH",
"313 586 OFFCURVE",
"297 600 OFFCURVE",
"258 600 CURVE SMOOTH",
"224 600 OFFCURVE",
"178 584 OFFCURVE",
"145 558 CURVE",
"189 508 LINE",
"126 225 OFFCURVE",
"103 100 OFFCURVE",
"103 46 CURVE SMOOTH",
"103 -4 OFFCURVE",
"126 -25 OFFCURVE",
"171 -25 CURVE SMOOTH"
);
}
);
width = 388;
}
);
leftKerningGroup = idotless;
rightKerningGroup = idotless;
unicode = 0131;
},
{
color = 10;
glyphname = j;
layers = (
{
hints = (
{
place = "{134, 241}";
type = Stem;
},
{
horizontal = 1;
place = "{837, -20}";
target = down;
type = TopGhost;
},
{
horizontal = 1;
place = "{600, -20}";
target = down;
type = TopGhost;
},
{
horizontal = 1;
place = "{-15, 21}";
target = up;
type = BottomGhost;
},
{
horizontal = 1;
place = "{-210, 21}";
target = up;
type = BottomGhost;
}
);
layerId = "E79706D4-AD71-4087-AB75-377D41BAFC4F";
paths = (
{
closed = 1;
nodes = (
"165 -210 OFFCURVE",
"230 -87 OFFCURVE",
"255 37 CURVE SMOOTH",
"290 210 OFFCURVE",
"337 465 OFFCURVE",
"337 526 CURVE SMOOTH",
"337 577 OFFCURVE",
"318 600 OFFCURVE",
"262 600 CURVE SMOOTH",
"198 600 OFFCURVE",
"125 567 OFFCURVE",
"65 525 CURVE",
"121 441 LINE",
"99 316 OFFCURVE",
"67 134 OFFCURVE",
"67 105 CURVE SMOOTH",
"67 50 OFFCURVE",
"77 18 OFFCURVE",
"134 -34 CURVE",
"124 -48 LINE",
"102 -33 OFFCURVE",
"76 -15 OFFCURVE",
"38 -15 CURVE SMOOTH",
"-29 -15 OFFCURVE",
"-73 -52 OFFCURVE",
"-73 -113 CURVE SMOOTH",
"-73 -165 OFFCURVE",
"-37 -210 OFFCURVE",
"46 -210 CURVE SMOOTH"
);
},
{
closed = 1;
nodes = (
"306 665 OFFCURVE",
"370 704 OFFCURVE",
"370 763 CURVE SMOOTH",
"370 809 OFFCURVE",
"325 837 OFFCURVE",
"264 837 CURVE SMOOTH",
"207 837 OFFCURVE",
"129 805 OFFCURVE",
"129 739 CURVE SMOOTH",
"129 693 OFFCURVE",
"174 665 OFFCURVE",
"235 665 CURVE SMOOTH"
);
}
);
width = 397;
},
{
hints = (
{
place = "{201, 361.5}";
type = Stem;
},
{
horizontal = 1;
place = "{1255.5, -20}";
target = down;
type = TopGhost;
},
{
horizontal = 1;
place = "{900, -20}";
target = down;
type = TopGhost;
},
{
horizontal = 1;
place = "{-22.5, 21}";
target = up;
type = BottomGhost;
},
{
horizontal = 1;
place = "{-315, 21}";
target = up;
type = BottomGhost;
}
);
layerId = "1D04CB99-59CD-4CDD-8259-0FDF24D9F847";
paths = (
{
closed = 1;
nodes = (
"117 -210 OFFCURVE",
"161 -161 OFFCURVE",
"183 -58 CURVE SMOOTH",
"224 152 OFFCURVE",
"301 527 OFFCURVE",
"301 550 CURVE SMOOTH",
"301 588 OFFCURVE",
"287 600 OFFCURVE",
"252 600 CURVE SMOOTH",
"225 600 OFFCURVE",
"185 588 OFFCURVE",
"160 566 CURVE",
"201 525 LINE",
"165 288 OFFCURVE",
"111 50 OFFCURVE",
"111 -21 CURVE SMOOTH",
"111 -60 OFFCURVE",
"118 -86 OFFCURVE",
"133 -102 CURVE",
"124 -117 LINE",
"111 -107 OFFCURVE",
"88 -89 OFFCURVE",
"58 -89 CURVE SMOOTH",
"15 -89 OFFCURVE",
"-13 -112 OFFCURVE",
"-13 -149 CURVE SMOOTH",
"-13 -182 OFFCURVE",
"7 -210 OFFCURVE",
"49 -210 CURVE SMOOTH"
);
},
{
closed = 1;
nodes = (
"307 703 OFFCURVE",
"338 728 OFFCURVE",
"338 759 CURVE SMOOTH",
"338 782 OFFCURVE",
"314 800 OFFCURVE",
"277 800 CURVE SMOOTH",
"225 800 OFFCURVE",
"199 769 OFFCURVE",
"199 744 CURVE SMOOTH",
"199 720 OFFCURVE",
"223 703 OFFCURVE",
"260 703 CURVE SMOOTH"
);
}
);
width = 397;
},
{
hints = (
{
place = "{187.6, 337.4}";
type = Stem;
},
{
horizontal = 1;
place = "{1171.8, -20}";
target = down;
type = TopGhost;
},
{
horizontal = 1;
place = "{840, -20}";
target = down;
type = TopGhost;
},
{
horizontal = 1;
place = "{-21, 21}";
target = up;
type = BottomGhost;
},
{
horizontal = 1;
place = "{-294, 21}";
target = up;
type = BottomGhost;
}
);
layerId = "CE369AAB-0FC9-4F25-BC24-38D80C2A37D0";
paths = (
{
closed = 1;
nodes = (
"127 -210 OFFCURVE",
"175 -146 OFFCURVE",
"197 -39 CURVE SMOOTH",
"237 164 OFFCURVE",
"308 515 OFFCURVE",
"308 545 CURVE SMOOTH",
"308 586 OFFCURVE",
"293 600 OFFCURVE",
"254 600 CURVE SMOOTH",
"220 600 OFFCURVE",
"173 584 OFFCURVE",
"141 558 CURVE",
"185 508 LINE",
"152 294 OFFCURVE",
"102 67 OFFCURVE",
"102 4 CURVE SMOOTH",
"102 -38 OFFCURVE",
"110 -65 OFFCURVE",
"133 -88 CURVE",
"124 -103 LINE",
"109 -92 OFFCURVE",
"86 -74 OFFCURVE",
"54 -74 CURVE SMOOTH",
"6 -74 OFFCURVE",
"-25 -100 OFFCURVE",
"-25 -142 CURVE SMOOTH",
"-25 -179 OFFCURVE",
"-2 -210 OFFCURVE",
"48 -210 CURVE SMOOTH"
);
},
{
closed = 1;
nodes = (
"307 695 OFFCURVE",
"344 723 OFFCURVE",
"344 760 CURVE SMOOTH",
"344 787 OFFCURVE",
"316 807 OFFCURVE",
"274 807 CURVE SMOOTH",
"221 807 OFFCURVE",
"185 776 OFFCURVE",
"185 743 CURVE SMOOTH",
"185 715 OFFCURVE",
"213 695 OFFCURVE",
"255 695 CURVE SMOOTH"
);
}
);
width = 397;
}
);
leftKerningGroup = j;
rightKerningGroup = j;
unicode = 006A;
},
